<!-- Generated by readme-aura https://github.com/collectioneur/readme-aura -->
<svg width="860" height="200" viewBox="0 0 860 200" xmlns="http://www.w3.org/2000/svg"><defs><clipPath id="satori_bc-id"><path x="0" y="0" width="860" height="200" d="M16,0 h828 a16,16 0 0 1 16,16 v168 a16,16 0 0 1 -16,16 h-828 a16,16 0 0 1 -16,-16 v-168 a16,16 0 0 1 16,-16"/></clipPath></defs><clipPath id="satori_cp-id"><path x="0" y="0" width="860" height="200" d="M16,0 h828 a16,16 0 0 1 16,16 v168 a16,16 0 0 1 -16,16 h-828 a16,16 0 0 1 -16,-16 v-168 a16,16 0 0 1 16,-16"/></clipPath><mask id="satori_om-id"><rect x="1" y="1" width="858" height="198" fill="#fff"/><path width="860" height="200" fill="none" stroke="#000" stroke-width="2" d="M4.686,4.686 A16,16 0 0 1 16,0 h828 a16,16 0 0 1 16,16 v168 a16,16 0 0 1 -16,16 h-828 a16,16 0 0 1 -16,-16 v-168 A16,16 0 0 1 4.686,4.686"/></mask><path x="0" y="0" width="860" height="200" fill="#08080c" d="M16,0 h828 a16,16 0 0 1 16,16 v168 a16,16 0 0 1 -16,16 h-828 a16,16 0 0 1 -16,-16 v-168 a16,16 0 0 1 16,-16"/><path width="860" height="200" clip-path="url(#satori_bc-id)" fill="none" stroke="rgba(110,80,220,0.18)" stroke-width="2" d="M4.686,4.686 A16,16 0 0 1 16,0 h828 a16,16 0 0 1 16,16 v168 a16,16 0 0 1 -16,16 h-828 a16,16 0 0 1 -16,-16 v-168 A16,16 0 0 1 4.686,4.686"/><clipPath id="satori_cp-id-0" clip-path="url(#satori_cp-id)"><rect x="1" y="1" width="860" height="200"/></clipPath><mask id="satori_om-id-0"><rect x="1" y="1" width="860" height="200" fill="#fff" mask="url(#satori_om-id)"/></mask><svg x="1" y="1" width="860" height="200" preserveAspectRatio="none" clip-path="url(#satori_cp-id-0)" mask="url(#satori_om-id-0)"><defs><radialGradient id="pg1" cx="50%" cy="50%" r="50%"><stop offset="0%" stop-color="rgba(110,20,210,0.5)"></stop><stop offset="70%" stop-color="rgba(110,20,210,0)"></stop></radialGradient><radialGradient id="pg2" cx="50%" cy="50%" r="50%"><stop offset="0%" stop-color="rgba(0,140,255,0.35)"></stop><stop offset="70%" stop-color="rgba(0,140,255,0)"></stop></radialGradient></defs><ellipse cx="100" cy="200" rx="240" ry="160" fill="url(#pg1)"></ellipse><ellipse cx="750" cy="200" rx="200" ry="140" fill="url(#pg2)"></ellipse></svg><mask id="satori_om-id-0-0"><rect x="1" y="1" width="0" height="200" fill="#fff" mask="url(#satori_om-id)"/></mask><mask id="satori_om-id-0-0-0"><rect x="1" y="1" width="0" height="200" fill="#fff" mask="url(#satori_om-id)"/></mask><mask id="satori_om-id-0-0-0-0"><rect x="1" y="1" width="0" height="200" fill="#fff" mask="url(#satori_om-id)"/></mask><mask id="satori_om-id-0-0-0-1"><rect x="1" y="1" width="0" height="200" fill="#fff" mask="url(#satori_om-id)"/></mask><mask id="satori_om-id-0-0-1"><rect x="1" y="1" width="0" height="200" fill="#fff" mask="url(#satori_om-id)"/></mask><mask id="satori_om-id-0-0-1-0"><rect x="1" y="1" width="0" height="200" fill="#fff" mask="url(#satori_om-id)"/></mask><mask id="satori_om-id-0-0-1-1"><rect x="1" y="1" width="0" height="200" fill="#fff" mask="url(#satori_om-id)"/></mask><mask id="satori_om-id-0-1"><rect x="1" y="1" width="0" height="200" fill="#fff" mask="url(#satori_om-id)"/></mask><mask id="satori_om-id-0-2"><rect x="1" y="1" width="0" height="200" fill="#fff" mask="url(#satori_om-id)"/></mask><mask id="satori_om-id-1"><rect x="33" y="19" width="794" height="12" fill="#fff" mask="url(#satori_om-id)"/></mask><g mask="url(#satori_om-id)" clip-path="url(#satori_cp-id)"><path fill="rgba(155,140,210,0.5)" d="M35.1 29L33.7 29L33.7 21.7L38.4 21.7L38.4 23.0L35.1 23.0L35.1 25.0L38.1 25.0L38.1 26.2L35.1 26.2L35.1 29ZM47.4 29L42.5 29L42.5 21.7L47.4 21.7L47.4 23.0L44.0 23.0L44.0 24.7L47.1 24.7L47.1 25.9L44.0 25.9L44.0 27.8L47.4 27.8L47.4 29ZM52.8 29L51.2 29L53.7 21.7L55.6 21.7L58.2 29L56.5 29L56.0 27.3L53.4 27.3L52.8 29ZM53.7 26.1L55.6 26.1L55.3 25.5Q55.1 24.8 54.9 24L54.9 24Q54.8 23.5 54.6 22.9L54.6 22.9Q54.5 23.5 54.4 24.0L54.4 24.0Q54.2 24.8 54.0 25.5L54.0 25.5L53.7 26.1ZM64.0 23.0L61.8 23.0L61.8 21.7L67.7 21.7L67.7 23.0L65.5 23.0L65.5 29L64.0 29L64.0 23.0ZM74.7 29.1L74.7 29.1Q73.8 29.1 73.2 28.8Q72.5 28.4 72.1 27.8Q71.7 27.2 71.7 26.4L71.7 26.4L71.7 21.7L73.2 21.7L73.2 26.3Q73.2 26.7 73.4 27.1Q73.6 27.4 73.9 27.6Q74.3 27.8 74.7 27.8L74.7 27.8Q75.2 27.8 75.5 27.6Q75.9 27.4 76.1 27.1Q76.3 26.7 76.3 26.3L76.3 26.3L76.3 21.7L77.7 21.7L77.7 26.4Q77.7 27.2 77.4 27.8Q77.0 28.4 76.3 28.8Q75.6 29.1 74.7 29.1ZM83.6 29L82.1 29L82.1 21.7L84.9 21.7Q85.7 21.7 86.3 22.0Q86.9 22.3 87.2 22.8Q87.5 23.4 87.5 24.1Q87.5 24.8 87.2 25.3Q86.9 25.9 86.3 26.1L86.3 26.1Q86.3 26.1 86.2 26.2L86.2 26.2L87.8 29L86.1 29L84.7 26.4L83.6 26.4L83.6 29ZM83.6 23.0L83.6 25.2L84.6 25.2Q85.1 25.2 85.4 25.1Q85.7 24.9 85.8 24.7Q86.0 24.5 86.0 24.1L86.0 24.1Q86.0 23.7 85.8 23.5Q85.7 23.2 85.4 23.1Q85.1 23.0 84.6 23.0L84.6 23.0L83.6 23.0ZM96.5 29L91.6 29L91.6 21.7L96.5 21.7L96.5 23.0L93.1 23.0L93.1 24.7L96.2 24.7L96.2 25.9L93.1 25.9L93.1 27.8L96.5 27.8L96.5 29ZM103.3 29L103.3 29L100.7 29L100.7 21.7L103.3 21.7Q104.4 21.7 105.2 22.2Q106.0 22.6 106.4 23.4Q106.8 24.2 106.8 25.4L106.8 25.4Q106.8 26.5 106.4 27.3Q106.0 28.1 105.2 28.6Q104.4 29 103.3 29ZM102.2 23.0L102.2 27.7L103.2 27.7Q103.9 27.7 104.4 27.5Q104.8 27.2 105.1 26.7Q105.3 26.2 105.3 25.4L105.3 25.4Q105.3 24.5 105.1 24.0Q104.8 23.5 104.4 23.3Q103.9 23.0 103.2 23.0L103.2 23.0L102.2 23.0Z M117.8 29L116.3 29L116.3 21.7L119.1 21.7Q120.0 21.7 120.5 22.0Q121.1 22.4 121.4 22.9Q121.7 23.5 121.7 24.2L121.7 24.2Q121.7 24.9 121.4 25.5Q121.1 26.0 120.5 26.3Q119.9 26.6 119.1 26.6L119.1 26.6L117.8 26.6L117.8 29ZM117.8 23.0L117.8 25.4L118.9 25.4Q119.3 25.4 119.6 25.3Q119.9 25.1 120.1 24.8Q120.2 24.5 120.2 24.2Q120.2 23.8 120.1 23.5Q119.9 23.3 119.6 23.1Q119.3 23.0 118.9 23.0L118.9 23.0L117.8 23.0ZM127.3 29L125.8 29L125.8 21.7L128.6 21.7Q129.4 21.7 130.0 22.0Q130.6 22.3 130.9 22.8Q131.2 23.4 131.2 24.1Q131.2 24.8 130.9 25.3Q130.6 25.9 130.0 26.1L130.0 26.1Q130.0 26.1 129.9 26.2L129.9 26.2L131.5 29L129.8 29L128.4 26.4L127.3 26.4L127.3 29ZM127.3 23.0L127.3 25.2L128.3 25.2Q128.8 25.2 129.1 25.1Q129.4 24.9 129.5 24.7Q129.7 24.5 129.7 24.1L129.7 24.1Q129.7 23.7 129.5 23.5Q129.4 23.2 129.1 23.1Q128.8 23.0 128.3 23.0L128.3 23.0L127.3 23.0ZM138.5 29.1L138.5 29.1Q137.6 29.1 136.8 28.7Q136.0 28.2 135.6 27.4Q135.1 26.5 135.1 25.4L135.1 25.4Q135.1 24.2 135.6 23.3Q136.0 22.5 136.8 22.1Q137.6 21.6 138.5 21.6L138.5 21.6Q139.5 21.6 140.3 22.1Q141.0 22.5 141.5 23.3Q141.9 24.2 141.9 25.4L141.9 25.4Q141.9 26.5 141.5 27.4Q141.0 28.2 140.3 28.7Q139.5 29.1 138.5 29.1ZM138.5 27.8L138.5 27.8Q139.1 27.8 139.5 27.5Q139.9 27.2 140.2 26.7Q140.4 26.1 140.4 25.4L140.4 25.4Q140.4 24.6 140.2 24.0Q139.9 23.5 139.5 23.2Q139.1 23.0 138.5 23.0L138.5 23.0Q138.0 23.0 137.5 23.2Q137.1 23.5 136.9 24.0Q136.7 24.6 136.7 25.4L136.7 25.4Q136.7 26.1 136.9 26.7Q137.1 27.2 137.5 27.5Q138.0 27.8 138.5 27.8ZM148.2 29.1L148.2 29.1Q147.0 29.1 146.4 28.5Q145.7 27.9 145.7 26.8L145.7 26.8L145.7 26.4L147.2 26.4L147.2 26.8Q147.2 27.4 147.5 27.6Q147.7 27.9 148.2 27.9L148.2 27.9Q148.6 27.9 148.8 27.6Q149.1 27.4 149.1 26.8L149.1 26.8L149.1 21.7L150.6 21.7L150.6 26.8Q150.6 27.9 149.9 28.5Q149.3 29.1 148.2 29.1ZM159.8 29L154.9 29L154.9 21.7L159.8 21.7L159.8 23.0L156.4 23.0L156.4 24.7L159.5 24.7L159.5 25.9L156.4 25.9L156.4 27.8L159.8 27.8L159.8 29ZM167.1 29.1L167.1 29.1Q166.2 29.1 165.4 28.7Q164.6 28.2 164.2 27.4Q163.8 26.5 163.8 25.4L163.8 25.4Q163.8 24.2 164.2 23.3Q164.7 22.5 165.4 22.1Q166.2 21.6 167.1 21.6L167.1 21.6Q167.8 21.6 168.3 21.8Q168.8 22.0 169.2 22.3Q169.7 22.6 169.9 23.1Q170.2 23.6 170.3 24.2L170.3 24.2L168.8 24.2Q168.7 23.9 168.6 23.7Q168.4 23.4 168.2 23.3Q168.0 23.1 167.8 23.0Q167.5 23.0 167.2 23.0L167.2 23.0Q166.6 23.0 166.2 23.2Q165.8 23.5 165.5 24.1Q165.3 24.6 165.3 25.4L165.3 25.4Q165.3 26.2 165.5 26.7Q165.8 27.2 166.2 27.5Q166.6 27.8 167.2 27.8L167.2 27.8Q167.5 27.8 167.7 27.7Q168.0 27.6 168.2 27.4Q168.4 27.3 168.6 27.0Q168.7 26.8 168.8 26.5L168.8 26.5L170.3 26.5Q170.2 27.0 170.0 27.5Q169.7 27.9 169.3 28.3Q168.9 28.7 168.4 28.9Q167.8 29.1 167.1 29.1ZM176.3 23.0L174.1 23.0L174.1 21.7L180.0 21.7L180.0 23.0L177.8 23.0L177.8 29L176.3 29L176.3 23.0ZM186.7 29.1L186.7 29.1Q185.8 29.1 185.2 28.8Q184.5 28.6 184.2 28.0Q183.8 27.5 183.8 26.7L183.8 26.7L185.2 26.7Q185.3 27.1 185.5 27.4Q185.7 27.6 186.0 27.7Q186.3 27.8 186.7 27.8L186.7 27.8Q187.1 27.8 187.4 27.7Q187.7 27.6 187.8 27.4Q188.0 27.2 188.0 26.9L188.0 26.9Q188.0 26.7 187.9 26.5Q187.7 26.3 187.4 26.2Q187.2 26.1 186.8 26.0L186.8 26.0L186.0 25.8Q185.0 25.6 184.5 25.1Q184.0 24.6 184.0 23.8L184.0 23.8Q184.0 23.2 184.3 22.7Q184.7 22.2 185.3 21.9Q185.9 21.6 186.7 21.6L186.7 21.6Q187.5 21.6 188.1 21.9Q188.7 22.2 189.1 22.7Q189.4 23.2 189.4 23.8L189.4 23.8L188.0 23.8Q187.9 23.4 187.6 23.1Q187.3 22.9 186.7 22.9L186.7 22.9Q186.3 22.9 186.1 23.0Q185.8 23.1 185.7 23.3Q185.5 23.5 185.5 23.7L185.5 23.7Q185.5 24.0 185.7 24.2Q185.8 24.3 186.1 24.5Q186.4 24.6 186.7 24.6L186.7 24.6L187.3 24.8Q187.8 24.9 188.2 25.1Q188.6 25.3 188.9 25.5Q189.2 25.8 189.3 26.1Q189.5 26.5 189.5 26.9L189.5 26.9Q189.5 27.6 189.2 28.1Q188.8 28.6 188.2 28.8Q187.6 29.1 186.7 29.1Z "/></g><mask id="satori_om-id-2"><rect x="33" y="41" width="794" height="67" fill="#fff" mask="url(#satori_om-id)"/></mask><defs><clipPath id="satori_bc-id-2-0" clip-path="url(#satori_cp-id)"><path x="33" y="41" width="794" height="67" d="M43,41 h774 a10,10 0 0 1 10,10 v47 a10,10 0 0 1 -10,10 h-774 a10,10 0 0 1 -10,-10 v-47 a10,10 0 0 1 10,-10"/></clipPath></defs><mask id="satori_om-id-2-0"><rect x="34" y="42" width="792" height="65" fill="#fff" mask="url(#satori_om-id)"/><path width="794" height="67" fill="none" stroke="#000" stroke-width="2" d="M35.929,43.929 A10,10 0 0 1 43,41 h774 a10,10 0 0 1 10,10 v47 a10,10 0 0 1 -10,10 h-774 a10,10 0 0 1 -10,-10 v-47 A10,10 0 0 1 35.929,43.929"/></mask><path x="33" y="41" width="794" height="67" fill="rgba(255,255,255,0.03)" d="M43,41 h774 a10,10 0 0 1 10,10 v47 a10,10 0 0 1 -10,10 h-774 a10,10 0 0 1 -10,-10 v-47 a10,10 0 0 1 10,-10" clip-path="url(#satori_cp-id)" mask="url(#satori_om-id)"/><path width="794" height="67" clip-path="url(#satori_bc-id-2-0)" fill="none" stroke="rgba(110,80,220,0.15)" stroke-width="2" d="M35.929,43.929 A10,10 0 0 1 43,41 h774 a10,10 0 0 1 10,10 v47 a10,10 0 0 1 -10,10 h-774 a10,10 0 0 1 -10,-10 v-47 A10,10 0 0 1 35.929,43.929"/><mask id="satori_om-id-2-0-0"><rect x="50" y="54" width="760" height="18" fill="#fff" mask="url(#satori_om-id)"/></mask><mask id="satori_om-id-2-0-0-0"><rect x="50" y="55" width="71" height="16" fill="#fff" mask="url(#satori_om-id)"/></mask><g mask="url(#satori_om-id)" clip-path="url(#satori_cp-id)"><path fill="#e0d8ff" d="M55.0 68.1L55.0 68.1Q53.7 68.1 52.7 67.6Q51.7 67.0 51.2 65.9Q50.6 64.8 50.6 63.3L50.6 63.3Q50.6 61.7 51.2 60.6Q51.8 59.6 52.7 59.0Q53.7 58.4 55.0 58.4L55.0 58.4Q55.8 58.4 56.5 58.6Q57.2 58.9 57.7 59.3Q58.3 59.7 58.6 60.4Q59.0 61.0 59.1 61.8L59.1 61.8L57.1 61.8Q57.0 61.4 56.9 61.1Q56.7 60.8 56.4 60.6Q56.1 60.4 55.8 60.2Q55.4 60.1 55.0 60.1L55.0 60.1Q54.3 60.1 53.7 60.5Q53.2 60.9 52.9 61.6Q52.6 62.3 52.6 63.3L52.6 63.3Q52.6 64.3 52.9 65.0Q53.2 65.7 53.7 66.1Q54.3 66.4 55.0 66.4L55.0 66.4Q55.4 66.4 55.8 66.3Q56.1 66.2 56.4 66.0Q56.7 65.8 56.9 65.5Q57.0 65.1 57.1 64.8L57.1 64.8L59.1 64.8Q59.0 65.4 58.7 66.0Q58.4 66.6 57.8 67.1Q57.3 67.6 56.6 67.9Q55.9 68.1 55.0 68.1ZM62.4 68.1L62.4 68.1Q61.7 68.1 61.2 67.9Q60.7 67.7 60.4 67.2Q60.0 66.7 60.0 66.0L60.0 66.0Q60.0 65.4 60.3 65.0Q60.5 64.6 60.9 64.4Q61.2 64.1 61.7 64.0Q62.2 63.9 62.7 63.8L62.7 63.8Q63.3 63.8 63.7 63.7Q64.1 63.7 64.3 63.5Q64.4 63.4 64.4 63.2L64.4 63.2L64.4 63.2Q64.4 62.9 64.3 62.7Q64.2 62.4 63.9 62.3Q63.7 62.2 63.3 62.2L63.3 62.2Q63.0 62.2 62.7 62.3Q62.4 62.4 62.3 62.6Q62.1 62.8 62.0 63.0L62.0 63.0L60.3 62.8Q60.4 62.1 60.9 61.7Q61.3 61.3 61.9 61.0Q62.5 60.8 63.3 60.8L63.3 60.8Q63.9 60.8 64.5 61.0Q65.0 61.1 65.4 61.4Q65.9 61.7 66.1 62.1Q66.4 62.6 66.4 63.2L66.4 63.2L66.4 68L64.5 68L64.5 67.0L64.5 67.0Q64.3 67.3 64.0 67.6Q63.7 67.8 63.3 68.0Q62.9 68.1 62.4 68.1ZM62.9 66.8L62.9 66.8Q63.4 66.8 63.7 66.6Q64.1 66.4 64.3 66.1Q64.5 65.8 64.5 65.5L64.5 65.5L64.5 64.7Q64.4 64.8 64.2 64.8Q64.0 64.9 63.8 64.9Q63.6 64.9 63.4 65.0Q63.2 65.0 63.1 65.0L63.1 65.0Q62.7 65.1 62.4 65.2Q62.2 65.3 62.0 65.5Q61.9 65.7 61.9 66.0L61.9 66.0Q61.9 66.2 62.0 66.4Q62.2 66.6 62.4 66.7Q62.6 66.8 62.9 66.8ZM69.9 70.7L68.0 70.7L68.0 60.9L69.8 60.9L69.8 62.1L69.9 62.1Q70.1 61.8 70.3 61.5Q70.6 61.2 71.0 61.0Q71.4 60.8 72.0 60.8L72.0 60.8Q72.8 60.8 73.4 61.2Q74.1 61.6 74.4 62.4Q74.8 63.3 74.8 64.5L74.8 64.5Q74.8 65.6 74.5 66.5Q74.1 67.3 73.4 67.7Q72.8 68.1 72.0 68.1L72.0 68.1Q71.4 68.1 71.0 67.9Q70.6 67.7 70.3 67.4Q70.1 67.1 69.9 66.9L69.9 66.9L69.9 66.9L69.9 70.7ZM71.4 66.6L71.4 66.6Q71.9 66.6 72.2 66.3Q72.5 66.0 72.7 65.6Q72.9 65.1 72.9 64.5L72.9 64.5Q72.9 63.8 72.7 63.4Q72.5 62.9 72.2 62.6Q71.9 62.3 71.4 62.3L71.4 62.3Q70.9 62.3 70.5 62.6Q70.2 62.9 70.0 63.3Q69.8 63.8 69.8 64.5L69.8 64.5Q69.8 65.1 70.0 65.6Q70.2 66.1 70.5 66.3Q70.9 66.6 71.4 66.6ZM79.0 68.1L79.0 68.1Q78.1 68.1 77.5 67.9Q76.8 67.7 76.4 67.2Q76.0 66.7 75.9 66.1L75.9 66.1L77.6 65.8Q77.8 66.2 78.1 66.5Q78.5 66.7 79.0 66.7L79.0 66.7Q79.6 66.7 79.9 66.5Q80.2 66.3 80.2 66.0L80.2 66.0Q80.2 65.7 80.0 65.6Q79.8 65.4 79.3 65.3L79.3 65.3L78.1 65.0Q77.1 64.8 76.5 64.3Q76.0 63.8 76.0 63.0L76.0 63.0Q76.0 62.3 76.4 61.8Q76.8 61.3 77.5 61.1Q78.1 60.8 79.0 60.8L79.0 60.8Q79.9 60.8 80.5 61.0Q81.1 61.3 81.5 61.7Q81.9 62.1 82.0 62.7L82.0 62.7L80.3 63.0Q80.2 62.6 79.9 62.4Q79.6 62.2 79.0 62.2L79.0 62.2Q78.6 62.2 78.3 62.4Q77.9 62.6 77.9 62.9L77.9 62.9Q77.9 63.2 78.1 63.4Q78.4 63.5 78.9 63.6L78.9 63.6L80.1 63.9Q81.2 64.1 81.7 64.6Q82.2 65.0 82.2 65.8L82.2 65.8Q82.2 66.5 81.8 67.0Q81.4 67.6 80.6 67.8Q79.9 68.1 79.0 68.1ZM85.6 60.9L87.0 60.9L87.0 62.4L85.6 62.4L85.6 65.9Q85.6 66.3 85.8 66.4Q85.9 66.6 86.3 66.6L86.3 66.6Q86.4 66.6 86.6 66.6Q86.8 66.5 86.9 66.5L86.9 66.5L87.2 67.9Q86.9 68.0 86.5 68.1Q86.2 68.1 85.9 68.1L85.9 68.1Q84.9 68.1 84.3 67.6Q83.7 67.1 83.7 66.1L83.7 66.1L83.7 62.4L82.8 62.4L82.8 60.9L83.7 60.9L83.7 59.2L85.6 59.2L85.6 60.9ZM91.4 68.1L91.4 68.1Q90.3 68.1 89.5 67.7Q88.8 67.2 88.3 66.4Q87.9 65.6 87.9 64.5L87.9 64.5Q87.9 63.4 88.3 62.6Q88.8 61.7 89.5 61.3Q90.3 60.8 91.4 60.8L91.4 60.8Q92.5 60.8 93.2 61.3Q94.0 61.7 94.4 62.6Q94.9 63.4 94.9 64.5L94.9 64.5Q94.9 65.6 94.4 66.4Q94.0 67.2 93.2 67.7Q92.5 68.1 91.4 68.1ZM91.4 66.6L91.4 66.6Q91.9 66.6 92.2 66.4Q92.6 66.1 92.8 65.6Q92.9 65.1 92.9 64.5L92.9 64.5Q92.9 63.8 92.8 63.4Q92.6 62.9 92.2 62.6Q91.9 62.3 91.4 62.3L91.4 62.3Q90.9 62.3 90.5 62.6Q90.2 62.9 90.0 63.4Q89.9 63.8 89.9 64.5L89.9 64.5Q89.9 65.1 90.0 65.6Q90.2 66.1 90.5 66.4Q90.9 66.6 91.4 66.6ZM98.1 63.9L98.1 63.9L98.1 68L96.2 68L96.2 60.9L98.0 60.9L98.0 62.4Q98.3 61.7 98.8 61.3L98.8 61.3Q99.3 60.8 100.2 60.8L100.2 60.8Q101.0 60.8 101.5 61.1Q102.1 61.5 102.4 62.1Q102.7 62.7 102.7 63.5L102.7 63.5L102.7 68L100.7 68L100.7 63.8Q100.7 63.2 100.4 62.8Q100.1 62.4 99.5 62.4L99.5 62.4Q99.1 62.4 98.8 62.6Q98.4 62.8 98.3 63.1Q98.1 63.4 98.1 63.9ZM107.5 68.1L107.5 68.1Q106.4 68.1 105.6 67.7Q104.8 67.3 104.4 66.4Q104.0 65.6 104.0 64.5L104.0 64.5Q104.0 63.4 104.4 62.6Q104.8 61.7 105.6 61.3Q106.4 60.8 107.4 60.8L107.4 60.8Q108.1 60.8 108.7 61.0Q109.3 61.3 109.8 61.7Q110.2 62.2 110.5 62.8Q110.7 63.5 110.7 64.4L110.7 64.4L110.7 64.9L105.9 64.9Q105.9 65.5 106.1 65.9L106.1 65.9Q106.3 66.3 106.6 66.5Q107.0 66.7 107.5 66.7L107.5 66.7Q107.9 66.7 108.1 66.6Q108.4 66.5 108.6 66.3Q108.8 66.1 108.9 65.9L108.9 65.9L110.6 66.2Q110.4 66.8 110.0 67.2Q109.6 67.7 109.0 67.9Q108.3 68.1 107.5 68.1ZM105.9 63.8L105.9 63.8L108.9 63.8Q108.8 63.4 108.7 63.1L108.7 63.1Q108.6 62.7 108.2 62.5Q107.9 62.2 107.4 62.2L107.4 62.2Q106.9 62.2 106.6 62.5Q106.2 62.7 106.0 63.1L106.0 63.1Q105.9 63.4 105.9 63.8ZM113.8 68L111.5 68L114.9 63.2L111.8 58.5L114.1 58.5L115.1 60.1Q115.4 60.6 115.6 60.9Q115.8 61.3 115.9 61.6L115.9 61.6Q116.0 61.7 116.0 61.8L116.0 61.8Q116.1 61.7 116.1 61.6L116.1 61.6Q116.3 61.3 116.5 60.9Q116.7 60.6 117.0 60.1L117.0 60.1L118.0 58.5L120.2 58.5L117.1 63.1L120.5 68L118.2 68L116.9 66.0Q116.6 65.6 116.5 65.3Q116.3 65.1 116.2 64.8L116.2 64.8Q116.1 64.7 116.0 64.5L116.0 64.5Q115.9 64.7 115.9 64.8L115.9 64.8Q115.7 65.1 115.6 65.3Q115.4 65.6 115.1 66.0L115.1 66.0L113.8 68Z "/></g><defs><clipPath id="satori_bc-id-2-0-0-1" clip-path="url(#satori_cp-id)"><path x="766" y="54" width="44" height="18" d="M775,54 h26 a9,9 0 0 1 9,9 v0 a9,9 0 0 1 -9,9 h-26 a9,9 0 0 1 -9,-9 v0 a9,9 0 0 1 9,-9"/></clipPath></defs><mask id="satori_om-id-2-0-0-1"><rect x="767" y="55" width="42" height="16" fill="#fff" mask="url(#satori_om-id)"/><path width="44" height="18" fill="none" stroke="#000" stroke-width="2" d="M768.636,56.636 A9,9 0 0 1 775,54 h26 a9,9 0 0 1 9,9 v0 a9,9 0 0 1 -9,9 h-26 a9,9 0 0 1 -9,-9 v0 A9,9 0 0 1 768.636,56.636"/></mask><path x="766" y="54" width="44" height="18" fill="#b0721922" d="M775,54 h26 a9,9 0 0 1 9,9 v0 a9,9 0 0 1 -9,9 h-26 a9,9 0 0 1 -9,-9 v0 a9,9 0 0 1 9,-9" clip-path="url(#satori_cp-id)" mask="url(#satori_om-id)"/><path width="44" height="18" clip-path="url(#satori_bc-id-2-0-0-1)" fill="none" stroke="#b0721955" stroke-width="2" d="M768.636,56.636 A9,9 0 0 1 775,54 h26 a9,9 0 0 1 9,9 v0 a9,9 0 0 1 -9,9 h-26 a9,9 0 0 1 -9,-9 v0 A9,9 0 0 1 768.636,56.636"/><g mask="url(#satori_om-id)" clip-path="url(#satori_cp-id)"><path fill="#b07219" d="M778.8 67.1L778.8 67.1Q777.6 67.1 777.0 66.5Q776.3 65.9 776.3 64.8L776.3 64.8L776.3 64.4L777.8 64.4L777.8 64.8Q777.8 65.4 778.1 65.6Q778.3 65.9 778.8 65.9L778.8 65.9Q779.2 65.9 779.5 65.6Q779.7 65.4 779.7 64.8L779.7 64.8L779.7 59.7L781.2 59.7L781.2 64.8Q781.2 65.9 780.5 66.5Q779.9 67.1 778.8 67.1ZM784.0 67.1L784.0 67.1Q783.5 67.1 783.1 66.9Q782.7 66.7 782.4 66.4Q782.2 66.0 782.2 65.5L782.2 65.5Q782.2 65.0 782.3 64.7Q782.5 64.4 782.8 64.2Q783.1 64.0 783.5 63.9Q783.8 63.8 784.2 63.8L784.2 63.8Q784.7 63.7 785.0 63.7Q785.3 63.7 785.4 63.6Q785.6 63.5 785.6 63.3L785.6 63.3L785.6 63.3Q785.6 63.0 785.5 62.9Q785.4 62.7 785.2 62.6Q785.0 62.6 784.7 62.6L784.7 62.6Q784.4 62.6 784.2 62.6Q784.0 62.7 783.9 62.9Q783.7 63.0 783.7 63.2L783.7 63.2L782.3 63.0Q782.5 62.5 782.8 62.2Q783.1 61.8 783.6 61.6Q784.1 61.5 784.7 61.5L784.7 61.5Q785.2 61.5 785.6 61.6Q786.0 61.7 786.3 61.9Q786.6 62.1 786.8 62.5Q787.0 62.8 787.0 63.3L787.0 63.3L787.0 67L785.6 67L785.6 66.2L785.6 66.2Q785.5 66.5 785.2 66.7Q785.0 66.9 784.7 67.0Q784.4 67.1 784.0 67.1ZM784.4 66.1L784.4 66.1Q784.8 66.1 785.0 65.9Q785.3 65.8 785.4 65.6Q785.6 65.3 785.6 65.0L785.6 65.0L785.6 64.5Q785.5 64.5 785.4 64.5Q785.2 64.6 785.1 64.6Q784.9 64.6 784.8 64.7Q784.6 64.7 784.5 64.7L784.5 64.7Q784.2 64.7 784.0 64.8Q783.8 64.9 783.7 65.1Q783.6 65.2 783.6 65.4L783.6 65.4Q783.6 65.6 783.7 65.8Q783.8 65.9 784.0 66.0Q784.2 66.1 784.4 66.1ZM791.5 67L789.8 67L787.8 61.5L789.4 61.5L790.3 64.4Q790.4 64.9 790.6 65.4L790.6 65.4Q790.6 65.7 790.7 65.9L790.7 65.9Q790.7 65.7 790.8 65.4L790.8 65.4Q790.9 64.9 791.0 64.4L791.0 64.4L792.0 61.5L793.5 61.5L791.5 67ZM795.8 67.1L795.8 67.1Q795.3 67.1 794.9 66.9Q794.5 66.7 794.2 66.4Q794.0 66.0 794.0 65.5L794.0 65.5Q794.0 65.0 794.1 64.7Q794.3 64.4 794.6 64.2Q794.9 64.0 795.3 63.9Q795.6 63.8 796.0 63.8L796.0 63.8Q796.5 63.7 796.8 63.7Q797.1 63.7 797.2 63.6Q797.4 63.5 797.4 63.3L797.4 63.3L797.4 63.3Q797.4 63.0 797.3 62.9Q797.2 62.7 797.0 62.6Q796.8 62.6 796.5 62.6L796.5 62.6Q796.2 62.6 796.0 62.6Q795.8 62.7 795.7 62.9Q795.5 63.0 795.5 63.2L795.5 63.2L794.1 63.0Q794.3 62.5 794.6 62.2Q794.9 61.8 795.4 61.6Q795.9 61.5 796.5 61.5L796.5 61.5Q797.0 61.5 797.4 61.6Q797.8 61.7 798.1 61.9Q798.4 62.1 798.6 62.5Q798.8 62.8 798.8 63.3L798.8 63.3L798.8 67L797.4 67L797.4 66.2L797.4 66.2Q797.3 66.5 797.0 66.7Q796.8 66.9 796.5 67.0Q796.2 67.1 795.8 67.1ZM796.2 66.1L796.2 66.1Q796.6 66.1 796.8 65.9Q797.1 65.8 797.2 65.6Q797.4 65.3 797.4 65.0L797.4 65.0L797.4 64.5Q797.3 64.5 797.2 64.5Q797.0 64.6 796.9 64.6Q796.7 64.6 796.6 64.7Q796.4 64.7 796.3 64.7L796.3 64.7Q796.0 64.7 795.8 64.8Q795.6 64.9 795.5 65.1Q795.4 65.2 795.4 65.4L795.4 65.4Q795.4 65.6 795.5 65.8Q795.6 65.9 795.8 66.0Q796.0 66.1 796.2 66.1Z "/></g><mask id="satori_om-id-2-0-1"><rect x="50" y="78" width="760" height="17" fill="#fff" mask="url(#satori_om-id)"/></mask><g mask="url(#satori_om-id)" clip-path="url(#satori_cp-id)"><path fill="rgba(180,170,220,0.6)" d="M52.0 90L51.0 90L51.0 82.0L52.2 82.0L55.4 87.1Q55.6 87.3 55.7 87.6Q55.9 87.9 56.1 88.3L56.1 88.3Q56.3 88.5 56.4 88.8L56.4 88.8Q56.3 88.5 56.3 88.3L56.3 88.3Q56.3 87.9 56.3 87.5Q56.3 87.2 56.3 86.9L56.3 86.9L56.3 82.0L57.3 82.0L57.3 90L56.1 90L53.2 85.4Q53.0 85.1 52.8 84.8Q52.6 84.5 52.3 84.0L52.3 84.0Q52.2 83.7 51.9 83.2L51.9 83.2Q51.9 83.6 51.9 84.0L51.9 84.0Q52.0 84.5 52.0 84.8Q52.0 85.2 52.0 85.4L52.0 85.4L52.0 90ZM61.6 90.1L61.6 90.1Q60.8 90.1 60.1 89.7Q59.5 89.4 59.2 88.7Q58.8 88.0 58.8 87.0L58.8 87.0Q58.8 86.1 59.2 85.4Q59.5 84.7 60.1 84.3Q60.8 83.9 61.6 83.9L61.6 83.9Q62.4 83.9 63.0 84.3Q63.6 84.7 64.0 85.4Q64.3 86.1 64.3 87.0L64.3 87.0Q64.3 88.0 64.0 88.7Q63.6 89.4 63.0 89.7Q62.4 90.1 61.6 90.1ZM61.6 89.3L61.6 89.3Q62.2 89.3 62.6 89.0Q63.0 88.6 63.2 88.1Q63.3 87.6 63.3 87.0L63.3 87.0Q63.3 86.4 63.2 85.9Q63.0 85.4 62.6 85.1Q62.2 84.8 61.6 84.8L61.6 84.8Q61.0 84.8 60.6 85.1Q60.2 85.4 60.0 85.9Q59.8 86.4 59.8 87.0L59.8 87.0Q59.8 87.6 60.0 88.1Q60.2 88.6 60.6 89.0Q61.0 89.3 61.6 89.3Z M71.1 90.1L71.1 90.1Q70.3 90.1 69.8 89.7Q69.2 89.4 68.9 88.7Q68.5 88.0 68.5 87.0L68.5 87.0Q68.5 86.1 68.9 85.4Q69.2 84.7 69.8 84.3Q70.3 83.9 71.1 83.9L71.1 83.9Q71.7 83.9 72.0 84.1Q72.4 84.3 72.5 84.6Q72.7 84.8 72.8 85.0L72.8 85.0L72.9 85.0L72.9 82.0L73.9 82.0L73.9 90L72.9 90L72.9 89.1L72.8 89.1Q72.7 89.2 72.5 89.5Q72.3 89.7 72.0 89.9Q71.7 90.1 71.1 90.1ZM71.2 89.3L71.2 89.3Q71.8 89.3 72.1 89.0Q72.5 88.7 72.7 88.2Q72.9 87.7 72.9 87.0L72.9 87.0Q72.9 86.3 72.7 85.8Q72.5 85.3 72.2 85.1Q71.8 84.8 71.2 84.8L71.2 84.8Q70.7 84.8 70.3 85.1Q69.9 85.4 69.7 85.9Q69.5 86.4 69.5 87.0L69.5 87.0Q69.5 87.6 69.7 88.1Q69.9 88.7 70.3 89.0Q70.7 89.3 71.2 89.3ZM78.1 90.1L78.1 90.1Q77.2 90.1 76.6 89.7Q76.0 89.4 75.6 88.7Q75.3 88.0 75.3 87.0Q75.3 86.1 75.6 85.4Q75.9 84.7 76.5 84.3Q77.2 83.9 78.0 83.9L78.0 83.9Q78.5 83.9 78.9 84.1Q79.4 84.2 79.8 84.6Q80.1 84.9 80.4 85.5Q80.6 86.1 80.6 86.9L80.6 86.9L80.6 87.3L76.2 87.3Q76.3 87.9 76.5 88.3L76.5 88.3Q76.7 88.8 77.1 89.0Q77.5 89.3 78.1 89.3L78.1 89.3Q78.4 89.3 78.7 89.2Q79.0 89.1 79.2 88.9Q79.4 88.7 79.6 88.3L79.6 88.3L80.5 88.6Q80.4 89.1 80.0 89.4Q79.7 89.7 79.2 89.9Q78.7 90.1 78.1 90.1ZM76.3 86.5L76.3 86.5L79.6 86.5Q79.6 86.1 79.4 85.8L79.4 85.8Q79.2 85.3 78.9 85.0Q78.5 84.8 78.0 84.8Q77.4 84.8 77.0 85.0Q76.7 85.3 76.5 85.7L76.5 85.7Q76.3 86.1 76.3 86.5ZM84.0 90.1L84.0 90.1Q83.4 90.1 82.9 89.9Q82.4 89.8 82.1 89.4Q81.8 89.1 81.7 88.5L81.7 88.5L82.6 88.3Q82.8 88.8 83.1 89.0Q83.5 89.3 84.0 89.3L84.0 89.3Q84.6 89.3 85.0 89.0Q85.4 88.7 85.4 88.4L85.4 88.4Q85.4 88.1 85.2 87.9Q84.9 87.6 84.5 87.5L84.5 87.5L83.5 87.3Q82.7 87.1 82.3 86.7Q81.9 86.3 81.9 85.7L81.9 85.7Q81.9 85.2 82.2 84.8Q82.5 84.4 83.0 84.1Q83.5 83.9 84.1 83.9L84.1 83.9Q84.7 83.9 85.2 84.1Q85.6 84.3 85.9 84.6Q86.1 84.9 86.3 85.4L86.3 85.4L85.4 85.6Q85.3 85.3 85.0 85.0Q84.7 84.7 84.1 84.7L84.1 84.7Q83.6 84.7 83.2 85.0Q82.9 85.2 82.9 85.6L82.9 85.6Q82.9 85.9 83.1 86.1Q83.3 86.3 83.9 86.5L83.9 86.5L84.8 86.7Q85.6 86.9 86.0 87.3Q86.4 87.7 86.4 88.3L86.4 88.3Q86.4 88.8 86.1 89.2Q85.8 89.7 85.3 89.9Q84.7 90.1 84.0 90.1ZM90.2 90.1L90.2 90.1Q89.4 90.1 88.8 89.7Q88.2 89.4 87.8 88.7Q87.5 88.0 87.5 87.0L87.5 87.0Q87.5 86.1 87.8 85.4Q88.2 84.7 88.8 84.3Q89.4 83.9 90.2 83.9L90.2 83.9Q90.7 83.9 91.0 84.0Q91.4 84.1 91.8 84.4Q92.1 84.6 92.3 84.9Q92.5 85.2 92.7 85.6L92.7 85.6L91.7 85.8Q91.7 85.6 91.5 85.4Q91.4 85.2 91.2 85.1Q91.0 84.9 90.8 84.9Q90.5 84.8 90.2 84.8L90.2 84.8Q89.6 84.8 89.2 85.1Q88.8 85.4 88.7 85.9Q88.5 86.4 88.5 87.0L88.5 87.0Q88.5 87.6 88.7 88.1Q88.8 88.6 89.2 89.0Q89.6 89.3 90.2 89.3L90.2 89.3Q90.5 89.3 90.8 89.2Q91.0 89.1 91.2 89.0Q91.4 88.8 91.6 88.6Q91.7 88.4 91.8 88.2L91.8 88.2L92.7 88.4Q92.6 88.8 92.3 89.1Q92.1 89.5 91.8 89.7Q91.4 89.9 91.1 90.0Q90.7 90.1 90.2 90.1ZM95.0 90L94.1 90L94.1 84.0L95.0 84.0L95.0 84.9L95.1 84.9Q95.2 84.5 95.7 84.2Q96.1 83.9 96.6 83.9L96.6 83.9Q96.7 83.9 96.9 83.9Q97.0 83.9 97.1 83.9L97.1 83.9L97.1 84.9Q97.1 84.9 96.9 84.9Q96.7 84.8 96.5 84.8L96.5 84.8Q96.1 84.8 95.8 85.0Q95.4 85.2 95.2 85.5Q95.0 85.8 95.0 86.2L95.0 86.2L95.0 90ZM99.2 90L98.2 90L98.2 84.0L99.2 84.0L99.2 90ZM98.7 83.0L98.7 83.0Q98.4 83.0 98.2 82.8Q98.0 82.6 98.0 82.4L98.0 82.4Q98.0 82.1 98.2 81.9Q98.4 81.7 98.7 81.7L98.7 81.7Q99.0 81.7 99.2 81.9Q99.4 82.1 99.4 82.4L99.4 82.4Q99.4 82.6 99.2 82.8Q99.0 83.0 98.7 83.0ZM101.8 92.2L100.9 92.2L100.9 84.0L101.8 84.0L101.8 85.0L101.9 85.0Q102.0 84.8 102.2 84.6Q102.4 84.3 102.7 84.1Q103.1 83.9 103.7 83.9L103.7 83.9Q104.4 83.9 105.0 84.3Q105.5 84.7 105.9 85.4Q106.2 86.1 106.2 87.0L106.2 87.0Q106.2 88.0 105.9 88.7Q105.6 89.4 105.0 89.7Q104.4 90.1 103.7 90.1L103.7 90.1Q103.1 90.1 102.7 89.9Q102.4 89.7 102.2 89.5Q102.0 89.2 101.9 89.1L101.9 89.1L101.8 89.1L101.8 92.2ZM103.5 89.3L103.5 89.3Q104.1 89.3 104.5 89.0Q104.8 88.7 105.0 88.1Q105.2 87.6 105.2 87.0L105.2 87.0Q105.2 86.4 105.0 85.9Q104.8 85.4 104.5 85.1Q104.1 84.8 103.5 84.8L103.5 84.8Q103.0 84.8 102.6 85.1Q102.2 85.3 102.0 85.8Q101.8 86.3 101.8 87.0L101.8 87.0Q101.8 87.7 102.0 88.2Q102.2 88.7 102.6 89.0Q103.0 89.3 103.5 89.3ZM108.7 84.0L110.0 84.0L110.0 84.8L108.7 84.8L108.7 88.4Q108.7 88.8 108.9 89.0Q109.1 89.2 109.4 89.2L109.4 89.2Q109.5 89.2 109.7 89.2Q109.8 89.2 109.9 89.2L109.9 89.2L110.1 90.0Q110.0 90.0 109.8 90.0Q109.6 90.1 109.4 90.1L109.4 90.1Q108.6 90.1 108.2 89.7Q107.8 89.3 107.8 88.5L107.8 88.5L107.8 84.8L106.9 84.8L106.9 84.0L107.8 84.0L107.8 82.6L108.7 82.6L108.7 84.0ZM112.2 90L111.2 90L111.2 84.0L112.2 84.0L112.2 90ZM111.7 83.0L111.7 83.0Q111.4 83.0 111.2 82.8Q111.0 82.6 111.0 82.4L111.0 82.4Q111.0 82.1 111.2 81.9Q111.4 81.7 111.7 81.7L111.7 81.7Q112.0 81.7 112.2 81.9Q112.4 82.1 112.4 82.4L112.4 82.4Q112.4 82.6 112.2 82.8Q112.0 83.0 111.7 83.0ZM116.3 90.1L116.3 90.1Q115.5 90.1 114.9 89.7Q114.3 89.4 113.9 88.7Q113.6 88.0 113.6 87.0L113.6 87.0Q113.6 86.1 113.9 85.4Q114.3 84.7 114.9 84.3Q115.5 83.9 116.3 83.9L116.3 83.9Q117.1 83.9 117.8 84.3Q118.4 84.7 118.7 85.4Q119.1 86.1 119.1 87.0L119.1 87.0Q119.1 88.0 118.7 88.7Q118.4 89.4 117.8 89.7Q117.1 90.1 116.3 90.1ZM116.3 89.3L116.3 89.3Q116.9 89.3 117.3 89.0Q117.7 88.6 117.9 88.1Q118.1 87.6 118.1 87.0L118.1 87.0Q118.1 86.4 117.9 85.9Q117.7 85.4 117.3 85.1Q116.9 84.8 116.3 84.8L116.3 84.8Q115.7 84.8 115.3 85.1Q114.9 85.4 114.7 85.9Q114.6 86.4 114.6 87.0L114.6 87.0Q114.6 87.6 114.7 88.1Q114.9 88.6 115.3 89.0Q115.7 89.3 116.3 89.3ZM121.4 86.4L121.4 86.4L121.4 90L120.5 90L120.5 84.0L121.4 84.0L121.4 85.1Q121.7 84.5 122.0 84.3L122.0 84.3Q122.6 83.9 123.2 83.9L123.2 83.9Q123.8 83.9 124.3 84.2Q124.8 84.4 125.0 84.9Q125.3 85.4 125.3 86.2L125.3 86.2L125.3 90L124.3 90L124.3 86.3Q124.3 85.6 123.9 85.2Q123.6 84.8 122.9 84.8L122.9 84.8Q122.5 84.8 122.2 85.0Q121.8 85.2 121.6 85.5Q121.4 85.9 121.4 86.4Z M131.0 92.2L130.1 92.2L130.1 84.0L131.0 84.0L131.0 85.0L131.1 85.0Q131.2 84.8 131.4 84.6Q131.6 84.3 131.9 84.1Q132.3 83.9 132.8 83.9L132.8 83.9Q133.6 83.9 134.2 84.3Q134.7 84.7 135.1 85.4Q135.4 86.1 135.4 87.0L135.4 87.0Q135.4 88.0 135.1 88.7Q134.7 89.4 134.2 89.7Q133.6 90.1 132.8 90.1L132.8 90.1Q132.3 90.1 131.9 89.9Q131.6 89.7 131.4 89.5Q131.2 89.2 131.1 89.1L131.1 89.1L131.0 89.1L131.0 92.2ZM132.7 89.3L132.7 89.3Q133.3 89.3 133.6 89.0Q134.0 88.7 134.2 88.1Q134.4 87.6 134.4 87.0L134.4 87.0Q134.4 86.4 134.2 85.9Q134.0 85.4 133.6 85.1Q133.3 84.8 132.7 84.8L132.7 84.8Q132.1 84.8 131.8 85.1Q131.4 85.3 131.2 85.8Q131.0 86.3 131.0 87.0L131.0 87.0Q131.0 87.7 131.2 88.2Q131.4 88.7 131.8 89.0Q132.2 89.3 132.7 89.3ZM137.8 90L136.8 90L136.8 84.0L137.7 84.0L137.7 84.9L137.8 84.9Q138.0 84.5 138.4 84.2Q138.8 83.9 139.3 83.9L139.3 83.9Q139.5 83.9 139.6 83.9Q139.8 83.9 139.8 83.9L139.8 83.9L139.8 84.9Q139.8 84.9 139.6 84.9Q139.5 84.8 139.3 84.8L139.3 84.8Q138.8 84.8 138.5 85.0Q138.1 85.2 138.0 85.5Q137.8 85.8 137.8 86.2L137.8 86.2L137.8 90ZM143.4 90.1L143.4 90.1Q142.6 90.1 141.9 89.7Q141.3 89.4 141.0 88.7Q140.6 88.0 140.6 87.0L140.6 87.0Q140.6 86.1 141.0 85.4Q141.3 84.7 141.9 84.3Q142.6 83.9 143.4 83.9L143.4 83.9Q144.2 83.9 144.8 84.3Q145.4 84.7 145.8 85.4Q146.1 86.1 146.1 87.0L146.1 87.0Q146.1 88.0 145.8 88.7Q145.4 89.4 144.8 89.7Q144.2 90.1 143.4 90.1ZM143.4 89.3L143.4 89.3Q144.0 89.3 144.4 89.0Q144.8 88.6 145.0 88.1Q145.1 87.6 145.1 87.0L145.1 87.0Q145.1 86.4 145.0 85.9Q144.8 85.4 144.4 85.1Q144.0 84.8 143.4 84.8L143.4 84.8Q142.8 84.8 142.4 85.1Q142.0 85.4 141.8 85.9Q141.6 86.4 141.6 87.0L141.6 87.0Q141.6 87.6 141.8 88.1Q142.0 88.6 142.4 89.0Q142.8 89.3 143.4 89.3ZM150.3 90L149.3 90L147.0 84.0L148.0 84.0L149.3 87.6Q149.5 88.1 149.7 88.7L149.7 88.7Q149.7 88.9 149.8 89.1L149.8 89.1Q149.8 88.9 149.9 88.7L149.9 88.7Q150.0 88.1 150.2 87.6L150.2 87.6L151.5 84.0L152.6 84.0L150.3 90ZM154.7 90L153.7 90L153.7 84.0L154.7 84.0L154.7 90ZM154.2 83.0L154.2 83.0Q153.9 83.0 153.7 82.8Q153.5 82.6 153.5 82.4L153.5 82.4Q153.5 82.1 153.7 81.9Q153.9 81.7 154.2 81.7L154.2 81.7Q154.5 81.7 154.7 81.9Q154.9 82.1 154.9 82.4L154.9 82.4Q154.9 82.6 154.7 82.8Q154.5 83.0 154.2 83.0ZM158.6 90.1L158.6 90.1Q157.9 90.1 157.3 89.7Q156.7 89.4 156.4 88.7Q156.1 88.0 156.1 87.0L156.1 87.0Q156.1 86.1 156.4 85.4Q156.7 84.7 157.3 84.3Q157.9 83.9 158.6 83.9L158.6 83.9Q159.2 83.9 159.6 84.1Q159.9 84.3 160.1 84.6Q160.3 84.8 160.4 85.0L160.4 85.0L160.4 85.0L160.4 82.0L161.4 82.0L161.4 90L160.5 90L160.5 89.1L160.4 89.1Q160.3 89.2 160.1 89.5Q159.9 89.7 159.5 89.9Q159.2 90.1 158.6 90.1ZM158.8 89.3L158.8 89.3Q159.3 89.3 159.7 89.0Q160.1 88.7 160.3 88.2Q160.5 87.7 160.5 87.0L160.5 87.0Q160.5 86.3 160.3 85.8Q160.1 85.3 159.7 85.1Q159.3 84.8 158.8 84.8L158.8 84.8Q158.2 84.8 157.8 85.1Q157.4 85.4 157.3 85.9Q157.1 86.4 157.1 87.0L157.1 87.0Q157.1 87.6 157.3 88.1Q157.4 88.7 157.8 89.0Q158.2 89.3 158.8 89.3ZM165.6 90.1L165.6 90.1Q164.8 90.1 164.1 89.7Q163.5 89.4 163.2 88.7Q162.8 88.0 162.8 87.0Q162.8 86.1 163.2 85.4Q163.5 84.7 164.1 84.3Q164.7 83.9 165.5 83.9L165.5 83.9Q166.0 83.9 166.5 84.1Q166.9 84.2 167.3 84.6Q167.7 84.9 167.9 85.5Q168.1 86.1 168.1 86.9L168.1 86.9L168.1 87.3L163.8 87.3Q163.8 87.9 164.0 88.3L164.0 88.3Q164.3 88.8 164.7 89.0Q165.1 89.3 165.6 89.3L165.6 89.3Q166.0 89.3 166.3 89.2Q166.6 89.1 166.8 88.9Q167.0 88.7 167.1 88.3L167.1 88.3L168.0 88.6Q167.9 89.1 167.6 89.4Q167.2 89.7 166.7 89.9Q166.3 90.1 165.6 90.1ZM163.8 86.5L163.8 86.5L167.2 86.5Q167.1 86.1 167.0 85.8L167.0 85.8Q166.8 85.3 166.4 85.0Q166.1 84.8 165.5 84.8Q165.0 84.8 164.6 85.0Q164.2 85.3 164.0 85.7L164.0 85.7Q163.8 86.1 163.8 86.5ZM171.8 90.1L171.8 90.1Q171.0 90.1 170.5 89.7Q169.9 89.4 169.6 88.7Q169.2 88.0 169.2 87.0L169.2 87.0Q169.2 86.1 169.6 85.4Q169.9 84.7 170.5 84.3Q171.0 83.9 171.8 83.9L171.8 83.9Q172.4 83.9 172.7 84.1Q173.1 84.3 173.2 84.6Q173.4 84.8 173.5 85.0L173.5 85.0L173.6 85.0L173.6 82.0L174.6 82.0L174.6 90L173.6 90L173.6 89.1L173.5 89.1Q173.4 89.2 173.2 89.5Q173.0 89.7 172.7 89.9Q172.3 90.1 171.8 90.1ZM171.9 89.3L171.9 89.3Q172.5 89.3 172.8 89.0Q173.2 88.7 173.4 88.2Q173.6 87.7 173.6 87.0L173.6 87.0Q173.6 86.3 173.4 85.8Q173.2 85.3 172.8 85.1Q172.5 84.8 171.9 84.8L171.9 84.8Q171.3 84.8 171.0 85.1Q170.6 85.4 170.4 85.9Q170.2 86.4 170.2 87.0L170.2 87.0Q170.2 87.6 170.4 88.1Q170.6 88.7 171.0 89.0Q171.4 89.3 171.9 89.3ZM177.0 90.1L177.0 90.1Q176.7 90.1 176.5 89.9Q176.3 89.6 176.3 89.3L176.3 89.3Q176.3 89.0 176.5 88.8Q176.7 88.6 177.0 88.6L177.0 88.6Q177.3 88.6 177.5 88.8Q177.7 89.0 177.7 89.3L177.7 89.3Q177.7 89.6 177.5 89.9Q177.3 90.1 177.0 90.1Z "/></g></svg>