<!-- Generated by readme-aura https://github.com/collectioneur/readme-aura -->
<svg width="860" height="200" viewBox="0 0 860 200" xmlns="http://www.w3.org/2000/svg"><defs><clipPath id="satori_bc-id"><path x="0" y="0" width="860" height="200" d="M16,0 h828 a16,16 0 0 1 16,16 v168 a16,16 0 0 1 -16,16 h-828 a16,16 0 0 1 -16,-16 v-168 a16,16 0 0 1 16,-16"/></clipPath></defs><clipPath id="satori_cp-id"><path x="0" y="0" width="860" height="200" d="M16,0 h828 a16,16 0 0 1 16,16 v168 a16,16 0 0 1 -16,16 h-828 a16,16 0 0 1 -16,-16 v-168 a16,16 0 0 1 16,-16"/></clipPath><mask id="satori_om-id"><rect x="1" y="1" width="858" height="198" fill="#fff"/><path width="860" height="200" fill="none" stroke="#000" stroke-width="2" d="M4.686,4.686 A16,16 0 0 1 16,0 h828 a16,16 0 0 1 16,16 v168 a16,16 0 0 1 -16,16 h-828 a16,16 0 0 1 -16,-16 v-168 A16,16 0 0 1 4.686,4.686"/></mask><path x="0" y="0" width="860" height="200" fill="#08080c" d="M16,0 h828 a16,16 0 0 1 16,16 v168 a16,16 0 0 1 -16,16 h-828 a16,16 0 0 1 -16,-16 v-168 a16,16 0 0 1 16,-16"/><path width="860" height="200" clip-path="url(#satori_bc-id)" fill="none" stroke="rgba(110,80,220,0.18)" stroke-width="2" d="M4.686,4.686 A16,16 0 0 1 16,0 h828 a16,16 0 0 1 16,16 v168 a16,16 0 0 1 -16,16 h-828 a16,16 0 0 1 -16,-16 v-168 A16,16 0 0 1 4.686,4.686"/><clipPath id="satori_cp-id-0" clip-path="url(#satori_cp-id)"><rect x="1" y="1" width="860" height="200"/></clipPath><mask id="satori_om-id-0"><rect x="1" y="1" width="860" height="200" fill="#fff" mask="url(#satori_om-id)"/></mask><svg x="1" y="1" width="860" height="200" preserveAspectRatio="none" clip-path="url(#satori_cp-id-0)" mask="url(#satori_om-id-0)"><defs><radialGradient id="pg1" cx="50%" cy="50%" r="50%"><stop offset="0%" stop-color="rgba(110,20,210,0.5)"></stop><stop offset="70%" stop-color="rgba(110,20,210,0)"></stop></radialGradient><radialGradient id="pg2" cx="50%" cy="50%" r="50%"><stop offset="0%" stop-color="rgba(0,140,255,0.35)"></stop><stop offset="70%" stop-color="rgba(0,140,255,0)"></stop></radialGradient></defs><ellipse cx="100" cy="200" rx="240" ry="160" fill="url(#pg1)"></ellipse><ellipse cx="750" cy="200" rx="200" ry="140" fill="url(#pg2)"></ellipse></svg><mask id="satori_om-id-0-0"><rect x="1" y="1" width="0" height="200" fill="#fff" mask="url(#satori_om-id)"/></mask><mask id="satori_om-id-0-0-0"><rect x="1" y="1" width="0" height="200" fill="#fff" mask="url(#satori_om-id)"/></mask><mask id="satori_om-id-0-0-0-0"><rect x="1" y="1" width="0" height="200" fill="#fff" mask="url(#satori_om-id)"/></mask><mask id="satori_om-id-0-0-0-1"><rect x="1" y="1" width="0" height="200" fill="#fff" mask="url(#satori_om-id)"/></mask><mask id="satori_om-id-0-0-1"><rect x="1" y="1" width="0" height="200" fill="#fff" mask="url(#satori_om-id)"/></mask><mask id="satori_om-id-0-0-1-0"><rect x="1" y="1" width="0" height="200" fill="#fff" mask="url(#satori_om-id)"/></mask><mask id="satori_om-id-0-0-1-1"><rect x="1" y="1" width="0" height="200" fill="#fff" mask="url(#satori_om-id)"/></mask><mask id="satori_om-id-0-1"><rect x="1" y="1" width="0" height="200" fill="#fff" mask="url(#satori_om-id)"/></mask><mask id="satori_om-id-0-2"><rect x="1" y="1" width="0" height="200" fill="#fff" mask="url(#satori_om-id)"/></mask><mask id="satori_om-id-1"><rect x="33" y="19" width="794" height="12" fill="#fff" mask="url(#satori_om-id)"/></mask><g mask="url(#satori_om-id)" clip-path="url(#satori_cp-id)"><path fill="rgba(155,140,210,0.5)" d="M35.1 29L33.7 29L33.7 21.7L38.4 21.7L38.4 23.0L35.1 23.0L35.1 25.0L38.1 25.0L38.1 26.2L35.1 26.2L35.1 29ZM47.4 29L42.5 29L42.5 21.7L47.4 21.7L47.4 23.0L44.0 23.0L44.0 24.7L47.1 24.7L47.1 25.9L44.0 25.9L44.0 27.8L47.4 27.8L47.4 29ZM52.8 29L51.2 29L53.7 21.7L55.6 21.7L58.2 29L56.5 29L56.0 27.3L53.4 27.3L52.8 29ZM53.7 26.1L55.6 26.1L55.3 25.5Q55.1 24.8 54.9 24L54.9 24Q54.8 23.5 54.6 22.9L54.6 22.9Q54.5 23.5 54.4 24.0L54.4 24.0Q54.2 24.8 54.0 25.5L54.0 25.5L53.7 26.1ZM64.0 23.0L61.8 23.0L61.8 21.7L67.7 21.7L67.7 23.0L65.5 23.0L65.5 29L64.0 29L64.0 23.0ZM74.7 29.1L74.7 29.1Q73.8 29.1 73.2 28.8Q72.5 28.4 72.1 27.8Q71.7 27.2 71.7 26.4L71.7 26.4L71.7 21.7L73.2 21.7L73.2 26.3Q73.2 26.7 73.4 27.1Q73.6 27.4 73.9 27.6Q74.3 27.8 74.7 27.8L74.7 27.8Q75.2 27.8 75.5 27.6Q75.9 27.4 76.1 27.1Q76.3 26.7 76.3 26.3L76.3 26.3L76.3 21.7L77.7 21.7L77.7 26.4Q77.7 27.2 77.4 27.8Q77.0 28.4 76.3 28.8Q75.6 29.1 74.7 29.1ZM83.6 29L82.1 29L82.1 21.7L84.9 21.7Q85.7 21.7 86.3 22.0Q86.9 22.3 87.2 22.8Q87.5 23.4 87.5 24.1Q87.5 24.8 87.2 25.3Q86.9 25.9 86.3 26.1L86.3 26.1Q86.3 26.1 86.2 26.2L86.2 26.2L87.8 29L86.1 29L84.7 26.4L83.6 26.4L83.6 29ZM83.6 23.0L83.6 25.2L84.6 25.2Q85.1 25.2 85.4 25.1Q85.7 24.9 85.8 24.7Q86.0 24.5 86.0 24.1L86.0 24.1Q86.0 23.7 85.8 23.5Q85.7 23.2 85.4 23.1Q85.1 23.0 84.6 23.0L84.6 23.0L83.6 23.0ZM96.5 29L91.6 29L91.6 21.7L96.5 21.7L96.5 23.0L93.1 23.0L93.1 24.7L96.2 24.7L96.2 25.9L93.1 25.9L93.1 27.8L96.5 27.8L96.5 29ZM103.3 29L103.3 29L100.7 29L100.7 21.7L103.3 21.7Q104.4 21.7 105.2 22.2Q106.0 22.6 106.4 23.4Q106.8 24.2 106.8 25.4L106.8 25.4Q106.8 26.5 106.4 27.3Q106.0 28.1 105.2 28.6Q104.4 29 103.3 29ZM102.2 23.0L102.2 27.7L103.2 27.7Q103.9 27.7 104.4 27.5Q104.8 27.2 105.1 26.7Q105.3 26.2 105.3 25.4L105.3 25.4Q105.3 24.5 105.1 24.0Q104.8 23.5 104.4 23.3Q103.9 23.0 103.2 23.0L103.2 23.0L102.2 23.0Z M117.8 29L116.3 29L116.3 21.7L119.1 21.7Q120.0 21.7 120.5 22.0Q121.1 22.4 121.4 22.9Q121.7 23.5 121.7 24.2L121.7 24.2Q121.7 24.9 121.4 25.5Q121.1 26.0 120.5 26.3Q119.9 26.6 119.1 26.6L119.1 26.6L117.8 26.6L117.8 29ZM117.8 23.0L117.8 25.4L118.9 25.4Q119.3 25.4 119.6 25.3Q119.9 25.1 120.1 24.8Q120.2 24.5 120.2 24.2Q120.2 23.8 120.1 23.5Q119.9 23.3 119.6 23.1Q119.3 23.0 118.9 23.0L118.9 23.0L117.8 23.0ZM127.3 29L125.8 29L125.8 21.7L128.6 21.7Q129.4 21.7 130.0 22.0Q130.6 22.3 130.9 22.8Q131.2 23.4 131.2 24.1Q131.2 24.8 130.9 25.3Q130.6 25.9 130.0 26.1L130.0 26.1Q130.0 26.1 129.9 26.2L129.9 26.2L131.5 29L129.8 29L128.4 26.4L127.3 26.4L127.3 29ZM127.3 23.0L127.3 25.2L128.3 25.2Q128.8 25.2 129.1 25.1Q129.4 24.9 129.5 24.7Q129.7 24.5 129.7 24.1L129.7 24.1Q129.7 23.7 129.5 23.5Q129.4 23.2 129.1 23.1Q128.8 23.0 128.3 23.0L128.3 23.0L127.3 23.0ZM138.5 29.1L138.5 29.1Q137.6 29.1 136.8 28.7Q136.0 28.2 135.6 27.4Q135.1 26.5 135.1 25.4L135.1 25.4Q135.1 24.2 135.6 23.3Q136.0 22.5 136.8 22.1Q137.6 21.6 138.5 21.6L138.5 21.6Q139.5 21.6 140.3 22.1Q141.0 22.5 141.5 23.3Q141.9 24.2 141.9 25.4L141.9 25.4Q141.9 26.5 141.5 27.4Q141.0 28.2 140.3 28.7Q139.5 29.1 138.5 29.1ZM138.5 27.8L138.5 27.8Q139.1 27.8 139.5 27.5Q139.9 27.2 140.2 26.7Q140.4 26.1 140.4 25.4L140.4 25.4Q140.4 24.6 140.2 24.0Q139.9 23.5 139.5 23.2Q139.1 23.0 138.5 23.0L138.5 23.0Q138.0 23.0 137.5 23.2Q137.1 23.5 136.9 24.0Q136.7 24.6 136.7 25.4L136.7 25.4Q136.7 26.1 136.9 26.7Q137.1 27.2 137.5 27.5Q138.0 27.8 138.5 27.8ZM148.2 29.1L148.2 29.1Q147.0 29.1 146.4 28.5Q145.7 27.9 145.7 26.8L145.7 26.8L145.7 26.4L147.2 26.4L147.2 26.8Q147.2 27.4 147.5 27.6Q147.7 27.9 148.2 27.9L148.2 27.9Q148.6 27.9 148.8 27.6Q149.1 27.4 149.1 26.8L149.1 26.8L149.1 21.7L150.6 21.7L150.6 26.8Q150.6 27.9 149.9 28.5Q149.3 29.1 148.2 29.1ZM159.8 29L154.9 29L154.9 21.7L159.8 21.7L159.8 23.0L156.4 23.0L156.4 24.7L159.5 24.7L159.5 25.9L156.4 25.9L156.4 27.8L159.8 27.8L159.8 29ZM167.1 29.1L167.1 29.1Q166.2 29.1 165.4 28.7Q164.6 28.2 164.2 27.4Q163.8 26.5 163.8 25.4L163.8 25.4Q163.8 24.2 164.2 23.3Q164.7 22.5 165.4 22.1Q166.2 21.6 167.1 21.6L167.1 21.6Q167.8 21.6 168.3 21.8Q168.8 22.0 169.2 22.3Q169.7 22.6 169.9 23.1Q170.2 23.6 170.3 24.2L170.3 24.2L168.8 24.2Q168.7 23.9 168.6 23.7Q168.4 23.4 168.2 23.3Q168.0 23.1 167.8 23.0Q167.5 23.0 167.2 23.0L167.2 23.0Q166.6 23.0 166.2 23.2Q165.8 23.5 165.5 24.1Q165.3 24.6 165.3 25.4L165.3 25.4Q165.3 26.2 165.5 26.7Q165.8 27.2 166.2 27.5Q166.6 27.8 167.2 27.8L167.2 27.8Q167.5 27.8 167.7 27.7Q168.0 27.6 168.2 27.4Q168.4 27.3 168.6 27.0Q168.7 26.8 168.8 26.5L168.8 26.5L170.3 26.5Q170.2 27.0 170.0 27.5Q169.7 27.9 169.3 28.3Q168.9 28.7 168.4 28.9Q167.8 29.1 167.1 29.1ZM176.3 23.0L174.1 23.0L174.1 21.7L180.0 21.7L180.0 23.0L177.8 23.0L177.8 29L176.3 29L176.3 23.0ZM186.7 29.1L186.7 29.1Q185.8 29.1 185.2 28.8Q184.5 28.6 184.2 28.0Q183.8 27.5 183.8 26.7L183.8 26.7L185.2 26.7Q185.3 27.1 185.5 27.4Q185.7 27.6 186.0 27.7Q186.3 27.8 186.7 27.8L186.7 27.8Q187.1 27.8 187.4 27.7Q187.7 27.6 187.8 27.4Q188.0 27.2 188.0 26.9L188.0 26.9Q188.0 26.7 187.9 26.5Q187.7 26.3 187.4 26.2Q187.2 26.1 186.8 26.0L186.8 26.0L186.0 25.8Q185.0 25.6 184.5 25.1Q184.0 24.6 184.0 23.8L184.0 23.8Q184.0 23.2 184.3 22.7Q184.7 22.2 185.3 21.9Q185.9 21.6 186.7 21.6L186.7 21.6Q187.5 21.6 188.1 21.9Q188.7 22.2 189.1 22.7Q189.4 23.2 189.4 23.8L189.4 23.8L188.0 23.8Q187.9 23.4 187.6 23.1Q187.3 22.9 186.7 22.9L186.7 22.9Q186.3 22.9 186.1 23.0Q185.8 23.1 185.7 23.3Q185.5 23.5 185.5 23.7L185.5 23.7Q185.5 24.0 185.7 24.2Q185.8 24.3 186.1 24.5Q186.4 24.6 186.7 24.6L186.7 24.6L187.3 24.8Q187.8 24.9 188.2 25.1Q188.6 25.3 188.9 25.5Q189.2 25.8 189.3 26.1Q189.5 26.5 189.5 26.9L189.5 26.9Q189.5 27.6 189.2 28.1Q188.8 28.6 188.2 28.8Q187.6 29.1 186.7 29.1Z "/></g><mask id="satori_om-id-2"><rect x="33" y="41" width="794" height="84" fill="#fff" mask="url(#satori_om-id)"/></mask><defs><clipPath id="satori_bc-id-2-0" clip-path="url(#satori_cp-id)"><path x="33" y="41" width="254" height="84" d="M43,41 h234 a10,10 0 0 1 10,10 v64 a10,10 0 0 1 -10,10 h-234 a10,10 0 0 1 -10,-10 v-64 a10,10 0 0 1 10,-10"/></clipPath></defs><mask id="satori_om-id-2-0"><rect x="34" y="42" width="252" height="82" fill="#fff" mask="url(#satori_om-id)"/><path width="254" height="84" fill="none" stroke="#000" stroke-width="2" d="M35.929,43.929 A10,10 0 0 1 43,41 h234 a10,10 0 0 1 10,10 v64 a10,10 0 0 1 -10,10 h-234 a10,10 0 0 1 -10,-10 v-64 A10,10 0 0 1 35.929,43.929"/></mask><path x="33" y="41" width="254" height="84" fill="rgba(255,255,255,0.03)" d="M43,41 h234 a10,10 0 0 1 10,10 v64 a10,10 0 0 1 -10,10 h-234 a10,10 0 0 1 -10,-10 v-64 a10,10 0 0 1 10,-10" clip-path="url(#satori_cp-id)" mask="url(#satori_om-id)"/><path width="254" height="84" clip-path="url(#satori_bc-id-2-0)" fill="none" stroke="rgba(110,80,220,0.15)" stroke-width="2" d="M35.929,43.929 A10,10 0 0 1 43,41 h234 a10,10 0 0 1 10,10 v64 a10,10 0 0 1 -10,10 h-234 a10,10 0 0 1 -10,-10 v-64 A10,10 0 0 1 35.929,43.929"/><mask id="satori_om-id-2-0-0"><rect x="50" y="54" width="220" height="18" fill="#fff" mask="url(#satori_om-id)"/></mask><mask id="satori_om-id-2-0-0-0"><rect x="50" y="55" width="64" height="16" fill="#fff" mask="url(#satori_om-id)"/></mask><g mask="url(#satori_om-id)" clip-path="url(#satori_cp-id)"><path fill="#e0d8ff" d="M57.2 68L50.9 68L50.9 58.5L57.2 58.5L57.2 60.1L52.8 60.1L52.8 62.4L56.9 62.4L56.9 64.0L52.8 64.0L52.8 66.4L57.2 66.4L57.2 68ZM61.5 68.1L61.5 68.1Q60.7 68.1 60.0 67.9Q59.4 67.7 58.9 67.2Q58.5 66.7 58.4 66.1L58.4 66.1L60.2 65.8Q60.3 66.2 60.7 66.5Q61.0 66.7 61.6 66.7L61.6 66.7Q62.1 66.7 62.4 66.5Q62.8 66.3 62.8 66.0L62.8 66.0Q62.8 65.7 62.5 65.6Q62.3 65.4 61.8 65.3L61.8 65.3L60.6 65.0Q59.6 64.8 59.1 64.3Q58.6 63.8 58.6 63.0L58.6 63.0Q58.6 62.3 59.0 61.8Q59.3 61.3 60.0 61.1Q60.7 60.8 61.6 60.8L61.6 60.8Q62.4 60.8 63.0 61.0Q63.6 61.3 64.0 61.7Q64.4 62.1 64.5 62.7L64.5 62.7L62.8 63.0Q62.7 62.6 62.4 62.4Q62.1 62.2 61.6 62.2L61.6 62.2Q61.1 62.2 60.8 62.4Q60.5 62.6 60.5 62.9L60.5 62.9Q60.5 63.2 60.7 63.4Q60.9 63.5 61.4 63.6L61.4 63.6L62.7 63.9Q63.7 64.1 64.2 64.6Q64.7 65.0 64.7 65.8L64.7 65.8Q64.7 66.5 64.3 67.0Q63.9 67.6 63.2 67.8Q62.5 68.1 61.5 68.1ZM67.9 70.7L66.0 70.7L66.0 60.9L67.9 60.9L67.9 62.1L68.0 62.1Q68.1 61.8 68.3 61.5Q68.6 61.2 69.0 61.0Q69.4 60.8 70.0 60.8L70.0 60.8Q70.8 60.8 71.4 61.2Q72.1 61.6 72.5 62.4Q72.9 63.3 72.9 64.5L72.9 64.5Q72.9 65.6 72.5 66.5Q72.1 67.3 71.4 67.7Q70.8 68.1 70.0 68.1L70.0 68.1Q69.4 68.1 69.0 67.9Q68.6 67.7 68.3 67.4Q68.1 67.1 68.0 66.9L68.0 66.9L67.9 66.9L67.9 70.7ZM69.4 66.6L69.4 66.6Q69.9 66.6 70.2 66.3Q70.6 66.0 70.7 65.6Q70.9 65.1 70.9 64.5L70.9 64.5Q70.9 63.8 70.7 63.4Q70.6 62.9 70.2 62.6Q69.9 62.3 69.4 62.3L69.4 62.3Q68.9 62.3 68.5 62.6Q68.2 62.9 68.0 63.3Q67.8 63.8 67.8 64.5L67.8 64.5Q67.8 65.1 68.0 65.6Q68.2 66.1 68.6 66.3Q68.9 66.6 69.4 66.6ZM77.4 68.1L77.4 68.1Q76.3 68.1 75.5 67.7Q74.7 67.3 74.3 66.4Q73.9 65.6 73.9 64.5L73.9 64.5Q73.9 63.4 74.3 62.6Q74.7 61.7 75.5 61.3Q76.3 60.8 77.3 60.8L77.3 60.8Q78.0 60.8 78.6 61.0Q79.2 61.3 79.7 61.7Q80.1 62.2 80.4 62.8Q80.6 63.5 80.6 64.4L80.6 64.4L80.6 64.9L75.8 64.9Q75.8 65.5 76.0 65.9L76.0 65.9Q76.2 66.3 76.6 66.5Q76.9 66.7 77.4 66.7L77.4 66.7Q77.8 66.7 78.0 66.6Q78.3 66.5 78.5 66.3Q78.7 66.1 78.8 65.9L78.8 65.9L80.5 66.2Q80.3 66.8 79.9 67.2Q79.5 67.7 78.9 67.9Q78.2 68.1 77.4 68.1ZM75.8 63.8L75.8 63.8L78.8 63.8Q78.8 63.4 78.6 63.1L78.6 63.1Q78.5 62.7 78.1 62.5Q77.8 62.2 77.3 62.2L77.3 62.2Q76.8 62.2 76.5 62.5Q76.1 62.7 75.9 63.1L75.9 63.1Q75.8 63.4 75.8 63.8ZM83.9 68.1L83.9 68.1Q83.2 68.1 82.7 67.9Q82.2 67.7 81.9 67.2Q81.5 66.7 81.5 66.0L81.5 66.0Q81.5 65.4 81.8 65.0Q82.0 64.6 82.4 64.4Q82.7 64.1 83.2 64.0Q83.7 63.9 84.2 63.8L84.2 63.8Q84.8 63.8 85.2 63.7Q85.6 63.7 85.8 63.5Q85.9 63.4 85.9 63.2L85.9 63.2L85.9 63.2Q85.9 62.9 85.8 62.7Q85.7 62.4 85.4 62.3Q85.2 62.2 84.8 62.2L84.8 62.2Q84.5 62.2 84.2 62.3Q83.9 62.4 83.8 62.6Q83.6 62.8 83.5 63.0L83.5 63.0L81.8 62.8Q81.9 62.1 82.4 61.7Q82.8 61.3 83.4 61.0Q84.0 60.8 84.8 60.8L84.8 60.8Q85.4 60.8 86.0 61.0Q86.5 61.1 86.9 61.4Q87.3 61.7 87.6 62.1Q87.9 62.6 87.9 63.2L87.9 63.2L87.9 68L86.0 68L86.0 67.0L86.0 67.0Q85.8 67.3 85.5 67.6Q85.2 67.8 84.8 68.0Q84.4 68.1 83.9 68.1ZM84.4 66.8L84.4 66.8Q84.9 66.8 85.2 66.6Q85.6 66.4 85.8 66.1Q86.0 65.8 86.0 65.5L86.0 65.5L86.0 64.7Q85.9 64.8 85.7 64.8Q85.5 64.9 85.3 64.9Q85.1 64.9 84.9 65.0Q84.7 65.0 84.6 65.0L84.6 65.0Q84.2 65.1 83.9 65.2Q83.7 65.3 83.5 65.5Q83.4 65.7 83.4 66.0L83.4 66.0Q83.4 66.2 83.5 66.4Q83.7 66.6 83.9 66.7Q84.1 66.8 84.4 66.8ZM91.4 68L89.5 68L89.5 58.5L91.4 58.5L91.4 63.6L91.5 63.6L93.8 60.9L96.0 60.9L93.4 64.0L96.1 68L93.9 68L91.9 65.1L91.4 65.7L91.4 68ZM101.0 68.1L101.0 68.1Q99.8 68.1 98.9 67.7Q98.0 67.3 97.5 66.5Q97.1 65.7 97.1 64.7L97.1 64.7L97.1 58.5L99.0 58.5L99.0 64.5Q99.0 65.1 99.2 65.5Q99.5 65.9 99.9 66.2Q100.4 66.4 101.0 66.4L101.0 66.4Q101.6 66.4 102.0 66.2Q102.4 65.9 102.7 65.5Q102.9 65.1 102.9 64.5L102.9 64.5L102.9 58.5L104.9 58.5L104.9 64.7Q104.9 65.7 104.4 66.5Q103.9 67.3 103.0 67.7Q102.1 68.1 101.0 68.1ZM108.4 70.7L106.5 70.7L106.5 60.9L108.4 60.9L108.4 62.1L108.5 62.1Q108.6 61.8 108.9 61.5Q109.1 61.2 109.5 61.0Q109.9 60.8 110.5 60.8L110.5 60.8Q111.3 60.8 112.0 61.2Q112.6 61.6 113.0 62.4Q113.4 63.3 113.4 64.5L113.4 64.5Q113.4 65.6 113.0 66.5Q112.6 67.3 112.0 67.7Q111.3 68.1 110.5 68.1L110.5 68.1Q109.9 68.1 109.5 67.9Q109.1 67.7 108.9 67.4Q108.6 67.1 108.5 66.9L108.5 66.9L108.4 66.9L108.4 70.7ZM109.9 66.6L109.9 66.6Q110.4 66.6 110.8 66.3Q111.1 66.0 111.3 65.6Q111.4 65.1 111.4 64.5L111.4 64.5Q111.4 63.8 111.3 63.4Q111.1 62.9 110.8 62.6Q110.4 62.3 109.9 62.3L109.9 62.3Q109.4 62.3 109.1 62.6Q108.7 62.9 108.6 63.3Q108.4 63.8 108.4 64.5L108.4 64.5Q108.4 65.1 108.6 65.6Q108.8 66.1 109.1 66.3Q109.4 66.6 109.9 66.6Z "/></g><defs><clipPath id="satori_bc-id-2-0-0-1" clip-path="url(#satori_cp-id)"><path x="229" y="54" width="41" height="18" d="M238,54 h23 a9,9 0 0 1 9,9 v0 a9,9 0 0 1 -9,9 h-23 a9,9 0 0 1 -9,-9 v0 a9,9 0 0 1 9,-9"/></clipPath></defs><mask id="satori_om-id-2-0-0-1"><rect x="230" y="55" width="39" height="16" fill="#fff" mask="url(#satori_om-id)"/><path width="41" height="18" fill="none" stroke="#000" stroke-width="2" d="M231.636,56.636 A9,9 0 0 1 238,54 h23 a9,9 0 0 1 9,9 v0 a9,9 0 0 1 -9,9 h-23 a9,9 0 0 1 -9,-9 v0 A9,9 0 0 1 231.636,56.636"/></mask><path x="229" y="54" width="41" height="18" fill="#4F5D9522" d="M238,54 h23 a9,9 0 0 1 9,9 v0 a9,9 0 0 1 -9,9 h-23 a9,9 0 0 1 -9,-9 v0 a9,9 0 0 1 9,-9" clip-path="url(#satori_cp-id)" mask="url(#satori_om-id)"/><path width="41" height="18" clip-path="url(#satori_bc-id-2-0-0-1)" fill="none" stroke="#4F5D9555" stroke-width="2" d="M231.636,56.636 A9,9 0 0 1 238,54 h23 a9,9 0 0 1 9,9 v0 a9,9 0 0 1 -9,9 h-23 a9,9 0 0 1 -9,-9 v0 A9,9 0 0 1 231.636,56.636"/><g mask="url(#satori_om-id)" clip-path="url(#satori_cp-id)"><path fill="#4F5D95" d="M241.1 67L239.7 67L239.7 59.7L242.5 59.7Q243.3 59.7 243.9 60.0Q244.5 60.4 244.8 60.9Q245.1 61.5 245.1 62.2L245.1 62.2Q245.1 62.9 244.8 63.5Q244.5 64.0 243.9 64.3Q243.3 64.6 242.5 64.6L242.5 64.6L241.1 64.6L241.1 67ZM241.1 61.0L241.1 63.4L242.2 63.4Q242.7 63.4 243.0 63.3Q243.3 63.1 243.4 62.8Q243.6 62.5 243.6 62.2Q243.6 61.8 243.4 61.5Q243.3 61.3 243.0 61.1Q242.7 61.0 242.2 61.0L242.2 61.0L241.1 61.0ZM247.6 67L246.1 67L246.1 59.7L247.6 59.7L247.6 62.7L250.8 62.7L250.8 59.7L252.3 59.7L252.3 67L250.8 67L250.8 63.9L247.6 63.9L247.6 67ZM255.1 67L253.6 67L253.6 59.7L256.4 59.7Q257.3 59.7 257.9 60.0Q258.4 60.4 258.7 60.9Q259.0 61.5 259.0 62.2L259.0 62.2Q259.0 62.9 258.7 63.5Q258.4 64.0 257.8 64.3Q257.3 64.6 256.4 64.6L256.4 64.6L255.1 64.6L255.1 67ZM255.1 61.0L255.1 63.4L256.2 63.4Q256.6 63.4 256.9 63.3Q257.2 63.1 257.4 62.8Q257.5 62.5 257.5 62.2Q257.5 61.8 257.4 61.5Q257.2 61.3 256.9 61.1Q256.6 61.0 256.2 61.0L256.2 61.0L255.1 61.0Z "/></g><mask id="satori_om-id-2-0-1"><rect x="50" y="78" width="220" height="34" fill="#fff" mask="url(#satori_om-id)"/></mask><g mask="url(#satori_om-id)" clip-path="url(#satori_cp-id)"><path fill="rgba(180,170,220,0.6)" d="M52.0 90L51.0 90L51.0 82.0L55.8 82.0L55.8 82.9L52.0 82.9L52.0 85.6L55.4 85.6L55.4 86.5L52.0 86.5L52.0 90ZM58.3 90L57.3 90L57.3 84.0L58.3 84.0L58.3 90ZM57.8 83.0L57.8 83.0Q57.6 83.0 57.4 82.8Q57.2 82.6 57.2 82.4L57.2 82.4Q57.2 82.1 57.4 81.9Q57.6 81.7 57.8 81.7L57.8 81.7Q58.1 81.7 58.3 81.9Q58.5 82.1 58.5 82.4L58.5 82.4Q58.5 82.6 58.3 82.8Q58.1 83.0 57.8 83.0ZM61.0 86.4L61.0 86.4L61.0 90L60.0 90L60.0 84.0L60.9 84.0L60.9 85.1Q61.2 84.5 61.6 84.3L61.6 84.3Q62.1 83.9 62.8 83.9L62.8 83.9Q63.4 83.9 63.8 84.2Q64.3 84.4 64.6 84.9Q64.8 85.4 64.8 86.2L64.8 86.2L64.8 90L63.8 90L63.8 86.3Q63.8 85.6 63.5 85.2Q63.1 84.8 62.5 84.8L62.5 84.8Q62.1 84.8 61.7 85.0Q61.4 85.2 61.2 85.5Q61.0 85.9 61.0 86.4ZM68.2 90.1L68.2 90.1Q67.6 90.1 67.2 89.9Q66.7 89.7 66.4 89.3Q66.1 88.9 66.1 88.3L66.1 88.3Q66.1 87.8 66.3 87.5Q66.5 87.1 66.9 86.9Q67.2 86.8 67.6 86.7Q68.1 86.6 68.5 86.5L68.5 86.5Q69.0 86.5 69.4 86.4Q69.7 86.4 69.9 86.3Q70.0 86.2 70.0 86.0L70.0 86.0L70.0 85.9Q70.0 85.6 69.9 85.3Q69.7 85.0 69.5 84.9Q69.2 84.8 68.8 84.8L68.8 84.8Q68.3 84.8 68.0 84.9Q67.7 85.0 67.5 85.2Q67.3 85.4 67.2 85.6L67.2 85.6L66.3 85.3Q66.5 84.8 66.9 84.5Q67.3 84.2 67.8 84.0Q68.3 83.9 68.7 83.9L68.7 83.9Q69.0 83.9 69.4 84.0Q69.8 84.1 70.2 84.3Q70.5 84.5 70.8 84.9Q71.0 85.3 71.0 86.0L71.0 86.0L71.0 90L70.0 90L70.0 89.2L70.0 89.2Q69.9 89.4 69.6 89.6Q69.4 89.8 69.1 90.0Q68.7 90.1 68.2 90.1ZM68.4 89.3L68.4 89.3Q68.9 89.3 69.3 89.1Q69.6 88.9 69.8 88.5Q70.0 88.2 70.0 87.8L70.0 87.8L70.0 87.0Q70.0 87.1 69.8 87.1Q69.6 87.2 69.3 87.2Q69.1 87.3 68.8 87.3Q68.6 87.3 68.4 87.3L68.4 87.3Q68.1 87.4 67.8 87.5Q67.5 87.6 67.3 87.8Q67.1 88.0 67.1 88.3L67.1 88.3Q67.1 88.7 67.3 88.9Q67.4 89.1 67.7 89.2Q68.0 89.3 68.4 89.3ZM72.7 82.0L73.6 82.0L73.6 90L72.7 90L72.7 82.0Z M82.2 90L81.2 90L81.2 86.7L78.3 82.0L79.5 82.0L81.0 84.6Q81.3 85.0 81.5 85.4L81.5 85.4Q81.6 85.6 81.7 85.9L81.7 85.9Q81.9 85.6 82.0 85.4L82.0 85.4Q82.2 85.0 82.4 84.6L82.4 84.6L84.0 82.0L85.2 82.0L82.2 86.7L82.2 90ZM88.8 90.1L88.8 90.1Q88.0 90.1 87.3 89.7Q86.7 89.4 86.4 88.7Q86.0 88.0 86.0 87.0Q86.0 86.1 86.4 85.4Q86.7 84.7 87.3 84.3Q87.9 83.9 88.7 83.9L88.7 83.9Q89.2 83.9 89.7 84.1Q90.1 84.2 90.5 84.6Q90.9 84.9 91.1 85.5Q91.3 86.1 91.3 86.9L91.3 86.9L91.3 87.3L87.0 87.3Q87.0 87.9 87.2 88.3L87.2 88.3Q87.5 88.8 87.9 89.0Q88.3 89.3 88.8 89.3L88.8 89.3Q89.2 89.3 89.5 89.2Q89.8 89.1 90.0 88.9Q90.2 88.7 90.3 88.3L90.3 88.3L91.2 88.6Q91.1 89.1 90.8 89.4Q90.4 89.7 89.9 89.9Q89.5 90.1 88.8 90.1ZM87.0 86.5L87.0 86.5L90.4 86.5Q90.3 86.1 90.2 85.8L90.2 85.8Q90.0 85.3 89.6 85.0Q89.3 84.8 88.7 84.8Q88.2 84.8 87.8 85.0Q87.4 85.3 87.2 85.7L87.2 85.7Q87.0 86.1 87.0 86.5ZM94.4 90.1L94.4 90.1Q93.8 90.1 93.4 89.9Q92.9 89.7 92.6 89.3Q92.4 88.9 92.4 88.3L92.4 88.3Q92.4 87.8 92.6 87.5Q92.8 87.1 93.1 86.9Q93.5 86.8 93.9 86.7Q94.3 86.6 94.7 86.5L94.7 86.5Q95.2 86.5 95.6 86.4Q95.9 86.4 96.1 86.3Q96.2 86.2 96.2 86.0L96.2 86.0L96.2 85.9Q96.2 85.6 96.1 85.3Q96.0 85.0 95.7 84.9Q95.4 84.8 95.0 84.8L95.0 84.8Q94.6 84.8 94.2 84.9Q93.9 85.0 93.8 85.2Q93.6 85.4 93.5 85.6L93.5 85.6L92.5 85.3Q92.8 84.8 93.2 84.5Q93.5 84.2 94.0 84.0Q94.5 83.9 95.0 83.9L95.0 83.9Q95.3 83.9 95.6 84.0Q96.0 84.1 96.4 84.3Q96.7 84.5 97.0 84.9Q97.2 85.3 97.2 86.0L97.2 86.0L97.2 90L96.3 90L96.3 89.2L96.2 89.2Q96.1 89.4 95.9 89.6Q95.6 89.8 95.3 90.0Q94.9 90.1 94.4 90.1ZM94.6 89.3L94.6 89.3Q95.1 89.3 95.5 89.1Q95.9 88.9 96.0 88.5Q96.2 88.2 96.2 87.8L96.2 87.8L96.2 87.0Q96.2 87.1 96.0 87.1Q95.8 87.2 95.5 87.2Q95.3 87.3 95.0 87.3Q94.8 87.3 94.7 87.3L94.7 87.3Q94.3 87.4 94.0 87.5Q93.7 87.6 93.5 87.8Q93.3 88.0 93.3 88.3L93.3 88.3Q93.3 88.7 93.5 88.9Q93.7 89.1 93.9 89.2Q94.2 89.3 94.6 89.3ZM99.9 90L98.9 90L98.9 84.0L99.8 84.0L99.8 84.9L99.9 84.9Q100.1 84.5 100.5 84.2Q100.9 83.9 101.5 83.9L101.5 83.9Q101.6 83.9 101.7 83.9Q101.9 83.9 101.9 83.9L101.9 83.9L101.9 84.9Q101.9 84.9 101.7 84.9Q101.6 84.8 101.4 84.8L101.4 84.8Q100.9 84.8 100.6 85.0Q100.3 85.2 100.1 85.5Q99.9 85.8 99.9 86.2L99.9 86.2L99.9 90Z M106.9 90L106.0 90L106.0 82.0L107.4 82.0L109.4 87.0Q109.5 87.2 109.5 87.5Q109.6 87.8 109.7 88.1Q109.8 88.4 109.9 88.7L109.9 88.7Q110.0 88.8 110.0 88.9L110.0 88.9Q110.0 88.8 110.0 88.7L110.0 88.7Q110.1 88.4 110.2 88.1Q110.3 87.8 110.4 87.5Q110.5 87.2 110.6 87.0L110.6 87.0L112.5 82.0L114.0 82.0L114.0 90L113.0 90L113.0 85.4Q113.0 85.2 113.0 84.9Q113.0 84.5 113.0 84.2Q113.0 83.9 113.0 83.5L113.0 83.5Q113.0 83.3 113.0 83.1L113.0 83.1Q112.9 83.3 112.9 83.5L112.9 83.5Q112.7 83.9 112.6 84.3Q112.5 84.6 112.4 84.9Q112.3 85.2 112.2 85.4L112.2 85.4L110.4 90L109.5 90L107.7 85.4Q107.6 85.2 107.5 85.0Q107.4 84.7 107.3 84.3Q107.2 84.0 107.1 83.6L107.1 83.6Q107.0 83.3 106.9 83.1L106.9 83.1Q106.9 83.3 106.9 83.4L106.9 83.4Q106.9 83.8 106.9 84.1Q106.9 84.5 106.9 84.8Q106.9 85.2 106.9 85.4L106.9 85.4L106.9 90ZM117.5 90.1L117.5 90.1Q116.9 90.1 116.4 89.9Q116.0 89.7 115.7 89.3Q115.4 88.9 115.4 88.3L115.4 88.3Q115.4 87.8 115.6 87.5Q115.8 87.1 116.2 86.9Q116.5 86.8 116.9 86.7Q117.3 86.6 117.8 86.5L117.8 86.5Q118.3 86.5 118.6 86.4Q119.0 86.4 119.1 86.3Q119.3 86.2 119.3 86.0L119.3 86.0L119.3 85.9Q119.3 85.6 119.2 85.3Q119.0 85.0 118.7 84.9Q118.5 84.8 118.0 84.8L118.0 84.8Q117.6 84.8 117.3 84.9Q117.0 85.0 116.8 85.2Q116.6 85.4 116.5 85.6L116.5 85.6L115.6 85.3Q115.8 84.8 116.2 84.5Q116.6 84.2 117.1 84.0Q117.6 83.9 118.0 83.9L118.0 83.9Q118.3 83.9 118.7 84.0Q119.1 84.1 119.4 84.3Q119.8 84.5 120.0 84.9Q120.3 85.3 120.3 86.0L120.3 86.0L120.3 90L119.3 90L119.3 89.2L119.2 89.2Q119.1 89.4 118.9 89.6Q118.7 89.8 118.3 90.0Q118.0 90.1 117.5 90.1ZM117.6 89.3L117.6 89.3Q118.2 89.3 118.5 89.1Q118.9 88.9 119.1 88.5Q119.3 88.2 119.3 87.8L119.3 87.8L119.3 87.0Q119.2 87.1 119.0 87.1Q118.8 87.2 118.6 87.2Q118.3 87.3 118.1 87.3Q117.9 87.3 117.7 87.3L117.7 87.3Q117.4 87.4 117.1 87.5Q116.8 87.6 116.6 87.8Q116.4 88.0 116.4 88.3L116.4 88.3Q116.4 88.7 116.6 88.9Q116.7 89.1 117.0 89.2Q117.3 89.3 117.6 89.3ZM122.0 90.4L122.0 84.0L122.9 84.0L122.9 90.4Q122.9 91.0 122.7 91.4Q122.5 91.8 122.1 92.0Q121.8 92.2 121.2 92.2L121.2 92.2L121.0 92.2L121.0 91.4L121.2 91.4Q121.6 91.4 121.8 91.1Q122.0 90.9 122.0 90.4L122.0 90.4ZM122.4 83.0L122.4 83.0Q122.2 83.0 122.0 82.8Q121.8 82.6 121.8 82.4L121.8 82.4Q121.8 82.1 122.0 81.9Q122.2 81.7 122.4 81.7L122.4 81.7Q122.7 81.7 122.9 81.9Q123.1 82.1 123.1 82.4L123.1 82.4Q123.1 82.6 122.9 82.8Q122.7 83.0 122.4 83.0ZM127.1 90.1L127.1 90.1Q126.3 90.1 125.6 89.7Q125.0 89.4 124.7 88.7Q124.3 88.0 124.3 87.0L124.3 87.0Q124.3 86.1 124.7 85.4Q125.0 84.7 125.6 84.3Q126.3 83.9 127.1 83.9L127.1 83.9Q127.9 83.9 128.5 84.3Q129.1 84.7 129.5 85.4Q129.8 86.1 129.8 87.0L129.8 87.0Q129.8 88.0 129.5 88.7Q129.1 89.4 128.5 89.7Q127.9 90.1 127.1 90.1ZM127.1 89.3L127.1 89.3Q127.7 89.3 128.1 89.0Q128.5 88.6 128.6 88.1Q128.8 87.6 128.8 87.0L128.8 87.0Q128.8 86.4 128.6 85.9Q128.5 85.4 128.1 85.1Q127.7 84.8 127.1 84.8L127.1 84.8Q126.5 84.8 126.1 85.1Q125.7 85.4 125.5 85.9Q125.3 86.4 125.3 87.0L125.3 87.0Q125.3 87.6 125.5 88.1Q125.7 88.6 126.1 89.0Q126.5 89.3 127.1 89.3ZM132.2 90L131.2 90L131.2 84.0L132.2 84.0L132.2 84.9L132.2 84.9Q132.4 84.5 132.8 84.2Q133.2 83.9 133.8 83.9L133.8 83.9Q133.9 83.9 134.0 83.9Q134.2 83.9 134.3 83.9L134.3 83.9L134.3 84.9Q134.2 84.9 134.1 84.9Q133.9 84.8 133.7 84.8L133.7 84.8Q133.3 84.8 132.9 85.0Q132.6 85.2 132.4 85.5Q132.2 85.8 132.2 86.2L132.2 86.2L132.2 90Z M139.0 90L138.0 90L138.0 82.0L140.7 82.0Q141.6 82.0 142.2 82.3Q142.8 82.7 143.1 83.3Q143.4 83.8 143.4 84.5Q143.4 85.3 143.1 85.8Q142.8 86.4 142.2 86.8Q141.6 87.1 140.7 87.1L140.7 87.1L139.0 87.1L139.0 90ZM139.0 82.9L139.0 86.2L140.7 86.2Q141.3 86.2 141.7 86.0Q142.1 85.8 142.2 85.4Q142.4 85.0 142.4 84.5Q142.4 84.1 142.2 83.7Q142.1 83.3 141.7 83.1Q141.3 82.9 140.7 82.9L140.7 82.9L139.0 82.9ZM145.8 90L144.9 90L144.9 84.0L145.8 84.0L145.8 84.9L145.9 84.9Q146.0 84.5 146.5 84.2Q146.9 83.9 147.4 83.9L147.4 83.9Q147.5 83.9 147.7 83.9Q147.8 83.9 147.9 83.9L147.9 83.9L147.9 84.9Q147.9 84.9 147.7 84.9Q147.5 84.8 147.3 84.8L147.3 84.8Q146.9 84.8 146.6 85.0Q146.2 85.2 146.0 85.5Q145.8 85.8 145.8 86.2L145.8 86.2L145.8 90ZM151.5 90.1L151.5 90.1Q150.6 90.1 150.0 89.7Q149.4 89.4 149.1 88.7Q148.7 88.0 148.7 87.0L148.7 87.0Q148.7 86.1 149.1 85.4Q149.4 84.7 150.0 84.3Q150.6 83.9 151.5 83.9L151.5 83.9Q152.3 83.9 152.9 84.3Q153.5 84.7 153.9 85.4Q154.2 86.1 154.2 87.0L154.2 87.0Q154.2 88.0 153.9 88.7Q153.5 89.4 152.9 89.7Q152.3 90.1 151.5 90.1ZM151.5 89.3L151.5 89.3Q152.1 89.3 152.5 89.0Q152.9 88.6 153.0 88.1Q153.2 87.6 153.2 87.0L153.2 87.0Q153.2 86.4 153.0 85.9Q152.9 85.4 152.5 85.1Q152.1 84.8 151.5 84.8L151.5 84.8Q150.9 84.8 150.5 85.1Q150.1 85.4 149.9 85.9Q149.7 86.4 149.7 87.0L149.7 87.0Q149.7 87.6 149.9 88.1Q150.1 88.6 150.5 89.0Q150.9 89.3 151.5 89.3ZM155.6 90.4L155.6 84.0L156.6 84.0L156.6 90.4Q156.6 91.0 156.4 91.4Q156.2 91.8 155.8 92.0Q155.4 92.2 154.8 92.2L154.8 92.2L154.6 92.2L154.6 91.4L154.8 91.4Q155.2 91.4 155.4 91.1Q155.6 90.9 155.6 90.4L155.6 90.4ZM156.1 83.0L156.1 83.0Q155.8 83.0 155.6 82.8Q155.4 82.6 155.4 82.4L155.4 82.4Q155.4 82.1 155.6 81.9Q155.8 81.7 156.1 81.7L156.1 81.7Q156.4 81.7 156.6 81.9Q156.8 82.1 156.8 82.4L156.8 82.4Q156.8 82.6 156.6 82.8Q156.4 83.0 156.1 83.0ZM160.8 90.1L160.8 90.1Q159.9 90.1 159.3 89.7Q158.7 89.4 158.3 88.7Q158.0 88.0 158.0 87.0Q158.0 86.1 158.3 85.4Q158.7 84.7 159.3 84.3Q159.9 83.9 160.7 83.9L160.7 83.9Q161.2 83.9 161.6 84.1Q162.1 84.2 162.5 84.6Q162.9 84.9 163.1 85.5Q163.3 86.1 163.3 86.9L163.3 86.9L163.3 87.3L159.0 87.3Q159.0 87.9 159.2 88.3L159.2 88.3Q159.4 88.8 159.8 89.0Q160.3 89.3 160.8 89.3L160.8 89.3Q161.2 89.3 161.4 89.2Q161.7 89.1 161.9 88.9Q162.2 88.7 162.3 88.3L162.3 88.3L163.2 88.6Q163.1 89.1 162.7 89.4Q162.4 89.7 161.9 89.9Q161.4 90.1 160.8 90.1ZM159.0 86.5L159.0 86.5L162.3 86.5Q162.3 86.1 162.1 85.8L162.1 85.8Q162.0 85.3 161.6 85.0Q161.2 84.8 160.7 84.8Q160.1 84.8 159.8 85.0Q159.4 85.3 159.2 85.7L159.2 85.7Q159.0 86.1 159.0 86.5ZM167.1 90.1L167.1 90.1Q166.3 90.1 165.7 89.7Q165.1 89.4 164.7 88.7Q164.4 88.0 164.4 87.0L164.4 87.0Q164.4 86.1 164.7 85.4Q165.1 84.7 165.7 84.3Q166.3 83.9 167.1 83.9L167.1 83.9Q167.6 83.9 168.0 84.0Q168.3 84.1 168.7 84.4Q169.0 84.6 169.2 84.9Q169.4 85.2 169.6 85.6L169.6 85.6L168.6 85.8Q168.6 85.6 168.4 85.4Q168.3 85.2 168.1 85.1Q167.9 84.9 167.7 84.9Q167.4 84.8 167.1 84.8L167.1 84.8Q166.5 84.8 166.1 85.1Q165.8 85.4 165.6 85.9Q165.4 86.4 165.4 87.0L165.4 87.0Q165.4 87.6 165.6 88.1Q165.8 88.6 166.1 89.0Q166.5 89.3 167.1 89.3L167.1 89.3Q167.4 89.3 167.7 89.2Q167.9 89.1 168.1 89.0Q168.3 88.8 168.5 88.6Q168.6 88.4 168.7 88.2L168.7 88.2L169.6 88.4Q169.5 88.8 169.2 89.1Q169.0 89.5 168.7 89.7Q168.4 89.9 168.0 90.0Q167.6 90.1 167.1 90.1ZM172.1 84.0L173.3 84.0L173.3 84.8L172.1 84.8L172.1 88.4Q172.1 88.8 172.3 89.0Q172.4 89.2 172.8 89.2L172.8 89.2Q172.9 89.2 173.0 89.2Q173.2 89.2 173.3 89.2L173.3 89.2L173.5 90.0Q173.4 90.0 173.2 90.0Q173.0 90.1 172.8 90.1L172.8 90.1Q172.0 90.1 171.6 89.7Q171.1 89.3 171.1 88.5L171.1 88.5L171.1 84.8L170.2 84.8L170.2 84.0L171.1 84.0L171.1 82.6L172.1 82.6L172.1 84.0Z M179.3 84.0L180.6 84.0L180.6 84.8L179.3 84.8L179.3 90L178.3 90L178.3 84.8L177.1 84.8L177.1 84.0L178.3 84.0L178.3 83.2Q178.3 82.7 178.5 82.3Q178.8 82.0 179.2 81.8Q179.6 81.6 180.0 81.6L180.0 81.6Q180.3 81.6 180.6 81.7Q180.8 81.7 180.9 81.8L180.9 81.8L180.6 82.6Q180.6 82.6 180.4 82.6Q180.3 82.5 180.1 82.5L180.1 82.5Q179.7 82.5 179.5 82.7Q179.3 83.0 179.3 83.4L179.3 83.4L179.3 84.0ZM184.4 90.1L184.4 90.1Q183.5 90.1 182.9 89.7Q182.3 89.4 182.0 88.7Q181.6 88.0 181.6 87.0L181.6 87.0Q181.6 86.1 182.0 85.4Q182.3 84.7 182.9 84.3Q183.5 83.9 184.4 83.9L184.4 83.9Q185.2 83.9 185.8 84.3Q186.4 84.7 186.8 85.4Q187.1 86.1 187.1 87.0L187.1 87.0Q187.1 88.0 186.8 88.7Q186.4 89.4 185.8 89.7Q185.2 90.1 184.4 90.1ZM184.4 89.3L184.4 89.3Q185.0 89.3 185.4 89.0Q185.8 88.6 185.9 88.1Q186.1 87.6 186.1 87.0L186.1 87.0Q186.1 86.4 185.9 85.9Q185.8 85.4 185.4 85.1Q185.0 84.8 184.4 84.8L184.4 84.8Q183.8 84.8 183.4 85.1Q183.0 85.4 182.8 85.9Q182.6 86.4 182.6 87.0L182.6 87.0Q182.6 87.6 182.8 88.1Q183.0 88.6 183.4 89.0Q183.8 89.3 184.4 89.3ZM189.5 90L188.5 90L188.5 84.0L189.5 84.0L189.5 84.9L189.5 84.9Q189.7 84.5 190.1 84.2Q190.5 83.9 191.1 83.9L191.1 83.9Q191.2 83.9 191.3 83.9Q191.5 83.9 191.6 83.9L191.6 83.9L191.6 84.9Q191.5 84.9 191.3 84.9Q191.2 84.8 191.0 84.8L191.0 84.8Q190.6 84.8 190.2 85.0Q189.9 85.2 189.7 85.5Q189.5 85.8 189.5 86.2L189.5 86.2L189.5 90Z M198.5 90L198.5 90L196.0 90L196.0 82.0L198.6 82.0Q199.7 82.0 200.6 82.5Q201.4 83.0 201.8 83.8Q202.3 84.7 202.3 86.0L202.3 86.0Q202.3 87.2 201.8 88.1Q201.4 89.0 200.5 89.5Q199.7 90 198.5 90ZM197.0 82.9L197.0 89.1L198.4 89.1Q199.4 89.1 200.0 88.7Q200.7 88.4 201.0 87.7Q201.3 87.0 201.3 86.0L201.3 86.0Q201.3 85.0 201.0 84.3Q200.7 83.6 200.0 83.3Q199.4 82.9 198.5 82.9L198.5 82.9L197.0 82.9ZM204.8 90L203.8 90L203.8 84.0L204.8 84.0L204.8 90ZM204.3 83.0L204.3 83.0Q204.0 83.0 203.8 82.8Q203.6 82.6 203.6 82.4L203.6 82.4Q203.6 82.1 203.8 81.9Q204.0 81.7 204.3 81.7L204.3 81.7Q204.6 81.7 204.8 81.9Q205.0 82.1 205.0 82.4L205.0 82.4Q205.0 82.6 204.8 82.8Q204.6 83.0 204.3 83.0ZM207.4 92.2L206.5 92.2L206.5 84.0L207.4 84.0L207.4 85.0L207.5 85.0Q207.6 84.8 207.8 84.6Q208.0 84.3 208.3 84.1Q208.6 83.9 209.2 83.9L209.2 83.9Q210.0 83.9 210.6 84.3Q211.1 84.7 211.5 85.4Q211.8 86.1 211.8 87.0L211.8 87.0Q211.8 88.0 211.5 88.7Q211.1 89.4 210.6 89.7Q210.0 90.1 209.2 90.1L209.2 90.1Q208.7 90.1 208.3 89.9Q208.0 89.7 207.8 89.5Q207.6 89.2 207.5 89.1L207.5 89.1L207.4 89.1L207.4 92.2ZM209.1 89.3L209.1 89.3Q209.7 89.3 210.0 89.0Q210.4 88.7 210.6 88.1Q210.8 87.6 210.8 87.0L210.8 87.0Q210.8 86.4 210.6 85.9Q210.4 85.4 210.0 85.1Q209.7 84.8 209.1 84.8L209.1 84.8Q208.5 84.8 208.2 85.1Q207.8 85.3 207.6 85.8Q207.4 86.3 207.4 87.0L207.4 87.0Q207.4 87.7 207.6 88.2Q207.8 88.7 208.2 89.0Q208.6 89.3 209.1 89.3ZM213.2 82.0L214.2 82.0L214.2 90L213.2 90L213.2 82.0ZM218.3 90.1L218.3 90.1Q217.5 90.1 216.9 89.7Q216.2 89.4 215.9 88.7Q215.6 88.0 215.6 87.0L215.6 87.0Q215.6 86.1 215.9 85.4Q216.2 84.7 216.9 84.3Q217.5 83.9 218.3 83.9L218.3 83.9Q219.1 83.9 219.7 84.3Q220.4 84.7 220.7 85.4Q221.0 86.1 221.0 87.0L221.0 87.0Q221.0 88.0 220.7 88.7Q220.4 89.4 219.7 89.7Q219.1 90.1 218.3 90.1ZM218.3 89.3L218.3 89.3Q218.9 89.3 219.3 89.0Q219.7 88.6 219.9 88.1Q220.1 87.6 220.1 87.0L220.1 87.0Q220.1 86.4 219.9 85.9Q219.7 85.4 219.3 85.1Q218.9 84.8 218.3 84.8L218.3 84.8Q217.7 84.8 217.3 85.1Q216.9 85.4 216.7 85.9Q216.5 86.4 216.5 87.0L216.5 87.0Q216.5 87.6 216.7 88.1Q216.9 88.6 217.3 89.0Q217.7 89.3 218.3 89.3ZM223.4 90L222.4 90L222.4 84.0L223.4 84.0L223.4 85.1Q223.5 84.8 223.7 84.5L223.7 84.5Q224.0 84.2 224.3 84.0Q224.7 83.9 225.1 83.9L225.1 83.9Q225.7 83.9 226.1 84.3L226.1 84.3Q226.5 84.6 226.6 85.1L226.6 85.1Q226.7 84.8 226.9 84.6L226.9 84.6Q227.2 84.2 227.6 84.1Q228.0 83.9 228.5 83.9L228.5 83.9Q229.0 83.9 229.4 84.1Q229.9 84.3 230.1 84.8Q230.4 85.3 230.4 86.0L230.4 86.0L230.4 90L229.4 90L229.4 86.0Q229.4 85.3 229.1 85.0Q228.7 84.8 228.2 84.8L228.2 84.8Q227.8 84.8 227.5 84.9Q227.2 85.1 227.1 85.4Q226.9 85.7 226.9 86.1L226.9 86.1L226.9 90L225.9 90L225.9 85.9Q225.9 85.4 225.6 85.1Q225.3 84.8 224.8 84.8L224.8 84.8Q224.4 84.8 224.1 84.9Q223.8 85.1 223.6 85.4Q223.4 85.7 223.4 86.2L223.4 86.2L223.4 90ZM233.8 90.1L233.8 90.1Q233.2 90.1 232.7 89.9Q232.3 89.7 232.0 89.3Q231.7 88.9 231.7 88.3L231.7 88.3Q231.7 87.8 231.9 87.5Q232.1 87.1 232.5 86.9Q232.8 86.8 233.2 86.7Q233.6 86.6 234.1 86.5L234.1 86.5Q234.6 86.5 234.9 86.4Q235.3 86.4 235.4 86.3Q235.6 86.2 235.6 86.0L235.6 86.0L235.6 85.9Q235.6 85.6 235.5 85.3Q235.3 85.0 235.0 84.9Q234.8 84.8 234.3 84.8L234.3 84.8Q233.9 84.8 233.6 84.9Q233.3 85.0 233.1 85.2Q232.9 85.4 232.8 85.6L232.8 85.6L231.9 85.3Q232.1 84.8 232.5 84.5Q232.9 84.2 233.4 84.0Q233.8 83.9 234.3 83.9L234.3 83.9Q234.6 83.9 235.0 84.0Q235.4 84.1 235.7 84.3Q236.1 84.5 236.3 84.9Q236.6 85.3 236.6 86.0L236.6 86.0L236.6 90L235.6 90L235.6 89.2L235.5 89.2Q235.4 89.4 235.2 89.6Q235.0 89.8 234.6 90.0Q234.3 90.1 233.8 90.1ZM233.9 89.3L233.9 89.3Q234.5 89.3 234.8 89.1Q235.2 88.9 235.4 88.5Q235.6 88.2 235.6 87.8L235.6 87.8L235.6 87.0Q235.5 87.1 235.3 87.1Q235.1 87.2 234.9 87.2Q234.6 87.3 234.4 87.3Q234.1 87.3 234.0 87.3L234.0 87.3Q233.7 87.4 233.4 87.5Q233.1 87.6 232.9 87.8Q232.7 88.0 232.7 88.3L232.7 88.3Q232.7 88.7 232.9 88.9Q233.0 89.1 233.3 89.2Q233.6 89.3 233.9 89.3Z M53.5 107.1L53.5 107.1Q52.7 107.1 52.0 106.9Q51.4 106.6 51.0 106.1Q50.7 105.6 50.6 104.9L50.6 104.9L51.7 104.9Q51.7 105.4 52.0 105.6Q52.2 105.9 52.7 106.1Q53.1 106.2 53.5 106.2L53.5 106.2Q54.1 106.2 54.5 106.0Q54.9 105.9 55.2 105.5Q55.4 105.2 55.4 104.8L55.4 104.8Q55.4 104.4 55.2 104.2Q55.0 103.9 54.6 103.8Q54.3 103.6 53.9 103.5L53.9 103.5L52.9 103.2Q51.9 103.0 51.4 102.4Q50.8 101.9 50.8 101.1L50.8 101.1Q50.8 100.5 51.2 100.0Q51.6 99.4 52.2 99.2Q52.8 98.9 53.6 98.9L53.6 98.9Q54.4 98.9 55.0 99.2Q55.6 99.4 56.0 99.9Q56.3 100.4 56.3 101.0L56.3 101.0L55.3 101.0Q55.3 100.4 54.8 100.1Q54.3 99.8 53.6 99.8L53.6 99.8Q53.1 99.8 52.7 100.0Q52.3 100.1 52.1 100.4Q51.8 100.7 51.8 101.1L51.8 101.1Q51.8 101.5 52.1 101.8Q52.4 102.0 52.7 102.2Q53.1 102.3 53.4 102.4L53.4 102.4L54.2 102.6Q54.5 102.7 54.9 102.8Q55.3 103.0 55.6 103.2Q56.0 103.5 56.2 103.9Q56.4 104.3 56.4 104.8L56.4 104.8Q56.4 105.5 56.1 106.0Q55.8 106.5 55.1 106.8Q54.5 107.1 53.5 107.1ZM59.0 101.0L60.3 101.0L60.3 101.8L59.0 101.8L59.0 105.4Q59.0 105.8 59.2 106.0Q59.4 106.2 59.7 106.2L59.7 106.2Q59.8 106.2 60.0 106.2Q60.1 106.2 60.2 106.2L60.2 106.2L60.4 107.0Q60.3 107.0 60.1 107.0Q59.9 107.1 59.7 107.1L59.7 107.1Q58.9 107.1 58.5 106.7Q58.1 106.3 58.1 105.5L58.1 105.5L58.1 101.8L57.2 101.8L57.2 101.0L58.1 101.0L58.1 99.6L59.0 99.6L59.0 101.0ZM63.5 107.1L63.5 107.1Q62.9 107.1 62.5 106.8Q62.0 106.6 61.8 106.1Q61.5 105.6 61.5 104.8L61.5 104.8L61.5 101.0L62.5 101.0L62.5 104.7Q62.5 105.4 62.8 105.8Q63.2 106.2 63.8 106.2L63.8 106.2Q64.3 106.2 64.6 106.0Q64.9 105.8 65.1 105.5Q65.3 105.1 65.3 104.6L65.3 104.6L65.3 101.0L66.3 101.0L66.3 107L65.4 107L65.4 105.9Q65.1 106.5 64.7 106.7L64.7 106.7Q64.2 107.1 63.5 107.1ZM70.3 107.1L70.3 107.1Q69.5 107.1 68.9 106.7Q68.4 106.4 68.0 105.7Q67.7 105.0 67.7 104.0L67.7 104.0Q67.7 103.1 68.0 102.4Q68.4 101.7 68.9 101.3Q69.5 100.9 70.3 100.9L70.3 100.9Q70.9 100.9 71.2 101.1Q71.5 101.3 71.7 101.6Q71.9 101.8 72.0 102.0L72.0 102.0L72.1 102.0L72.1 99.0L73.0 99.0L73.0 107L72.1 107L72.1 106.1L72.0 106.1Q71.9 106.2 71.7 106.5Q71.5 106.7 71.2 106.9Q70.8 107.1 70.3 107.1ZM70.4 106.3L70.4 106.3Q71.0 106.3 71.3 106.0Q71.7 105.7 71.9 105.2Q72.1 104.7 72.1 104.0L72.1 104.0Q72.1 103.3 71.9 102.8Q71.7 102.3 71.3 102.1Q71.0 101.8 70.4 101.8L70.4 101.8Q69.8 101.8 69.5 102.1Q69.1 102.4 68.9 102.9Q68.7 103.4 68.7 104.0L68.7 104.0Q68.7 104.6 68.9 105.1Q69.1 105.7 69.5 106.0Q69.8 106.3 70.4 106.3ZM77.3 107.1L77.3 107.1Q76.4 107.1 75.8 106.7Q75.1 106.4 74.8 105.7Q74.5 105.0 74.5 104.0Q74.5 103.1 74.8 102.4Q75.1 101.7 75.7 101.3Q76.3 100.9 77.2 100.9L77.2 100.9Q77.6 100.9 78.1 101.1Q78.6 101.2 78.9 101.6Q79.3 101.9 79.5 102.5Q79.8 103.1 79.8 103.9L79.8 103.9L79.8 104.3L75.4 104.3Q75.5 104.9 75.7 105.3L75.7 105.3Q75.9 105.8 76.3 106.0Q76.7 106.3 77.3 106.3L77.3 106.3Q77.6 106.3 77.9 106.2Q78.2 106.1 78.4 105.9Q78.6 105.7 78.7 105.3L78.7 105.3L79.7 105.6Q79.5 106.1 79.2 106.4Q78.9 106.7 78.4 106.9Q77.9 107.1 77.3 107.1ZM75.4 103.5L75.4 103.5L78.8 103.5Q78.8 103.1 78.6 102.8L78.6 102.8Q78.4 102.3 78.1 102.0Q77.7 101.8 77.2 101.8Q76.6 101.8 76.2 102.0Q75.8 102.3 75.6 102.7L75.6 102.7Q75.5 103.1 75.4 103.5ZM82.1 103.4L82.1 103.4L82.1 107L81.2 107L81.2 101.0L82.1 101.0L82.1 102.1Q82.3 101.5 82.7 101.3L82.7 101.3Q83.2 100.9 83.9 100.9L83.9 100.9Q84.5 100.9 85.0 101.2Q85.4 101.4 85.7 101.9Q86.0 102.4 86.0 103.2L86.0 103.2L86.0 107L85.0 107L85.0 103.3Q85.0 102.6 84.6 102.2Q84.3 101.8 83.6 101.8L83.6 101.8Q83.2 101.8 82.9 102.0Q82.5 102.2 82.3 102.5Q82.1 102.9 82.1 103.4ZM88.8 101.0L90.0 101.0L90.0 101.8L88.8 101.8L88.8 105.4Q88.8 105.8 88.9 106.0Q89.1 106.2 89.5 106.2L89.5 106.2Q89.6 106.2 89.7 106.2Q89.9 106.2 90.0 106.2L90.0 106.2L90.2 107.0Q90.0 107.0 89.8 107.0Q89.7 107.1 89.5 107.1L89.5 107.1Q88.7 107.1 88.3 106.7Q87.8 106.3 87.8 105.5L87.8 105.5L87.8 101.8L86.9 101.8L86.9 101.0L87.8 101.0L87.8 99.6L88.8 99.6L88.8 101.0ZM93.3 107.1L93.3 107.1Q92.7 107.1 92.2 106.9Q91.7 106.8 91.4 106.4Q91.1 106.1 91.0 105.5L91.0 105.5L91.9 105.3Q92.0 105.8 92.4 106.0Q92.7 106.3 93.3 106.3L93.3 106.3Q93.9 106.3 94.3 106.0Q94.7 105.7 94.7 105.4L94.7 105.4Q94.7 105.1 94.4 104.9Q94.2 104.6 93.8 104.5L93.8 104.5L92.8 104.3Q92.0 104.1 91.6 103.7Q91.2 103.3 91.2 102.7L91.2 102.7Q91.2 102.2 91.5 101.8Q91.7 101.4 92.3 101.1Q92.8 100.9 93.4 100.9L93.4 100.9Q94.0 100.9 94.4 101.1Q94.9 101.3 95.1 101.6Q95.4 101.9 95.6 102.4L95.6 102.4L94.7 102.6Q94.6 102.3 94.3 102.0Q94.0 101.7 93.4 101.7L93.4 101.7Q92.9 101.7 92.5 102.0Q92.1 102.2 92.1 102.6L92.1 102.6Q92.1 102.9 92.4 103.1Q92.6 103.3 93.2 103.5L93.2 103.5L94.1 103.7Q94.9 103.9 95.3 104.3Q95.7 104.7 95.7 105.3L95.7 105.3Q95.7 105.8 95.4 106.2Q95.1 106.7 94.5 106.9Q94 107.1 93.3 107.1ZM97.8 107.1L97.8 107.1Q97.5 107.1 97.3 106.9Q97.1 106.6 97.1 106.3L97.1 106.3Q97.1 106.0 97.3 105.8Q97.5 105.6 97.8 105.6L97.8 105.6Q98.1 105.6 98.3 105.8Q98.5 106.0 98.5 106.3L98.5 106.3Q98.5 106.6 98.3 106.9Q98.1 107.1 97.8 107.1Z "/></g><defs><clipPath id="satori_bc-id-2-1" clip-path="url(#satori_cp-id)"><path x="303" y="41" width="254" height="84" d="M313,41 h234 a10,10 0 0 1 10,10 v64 a10,10 0 0 1 -10,10 h-234 a10,10 0 0 1 -10,-10 v-64 a10,10 0 0 1 10,-10"/></clipPath></defs><mask id="satori_om-id-2-1"><rect x="304" y="42" width="252" height="82" fill="#fff" mask="url(#satori_om-id)"/><path width="254" height="84" fill="none" stroke="#000" stroke-width="2" d="M305.929,43.929 A10,10 0 0 1 313,41 h234 a10,10 0 0 1 10,10 v64 a10,10 0 0 1 -10,10 h-234 a10,10 0 0 1 -10,-10 v-64 A10,10 0 0 1 305.929,43.929"/></mask><path x="303" y="41" width="254" height="84" fill="rgba(255,255,255,0.03)" d="M313,41 h234 a10,10 0 0 1 10,10 v64 a10,10 0 0 1 -10,10 h-234 a10,10 0 0 1 -10,-10 v-64 a10,10 0 0 1 10,-10" clip-path="url(#satori_cp-id)" mask="url(#satori_om-id)"/><path width="254" height="84" clip-path="url(#satori_bc-id-2-1)" fill="none" stroke="rgba(110,80,220,0.15)" stroke-width="2" d="M305.929,43.929 A10,10 0 0 1 313,41 h234 a10,10 0 0 1 10,10 v64 a10,10 0 0 1 -10,10 h-234 a10,10 0 0 1 -10,-10 v-64 A10,10 0 0 1 305.929,43.929"/><mask id="satori_om-id-2-1-0"><rect x="320" y="54" width="220" height="18" fill="#fff" mask="url(#satori_om-id)"/></mask><mask id="satori_om-id-2-1-0-0"><rect x="320" y="55" width="124" height="16" fill="#fff" mask="url(#satori_om-id)"/></mask><g mask="url(#satori_om-id)" clip-path="url(#satori_cp-id)"><path fill="#e0d8ff" d="M325.7 68L323.8 68L323.8 64.4L320.3 58.5L322.6 58.5L324.2 61.5Q324.4 61.9 324.6 62.4L324.6 62.4Q324.7 62.6 324.8 62.8L324.8 62.8Q324.9 62.6 325.0 62.4L325.0 62.4Q325.1 61.9 325.4 61.5L325.4 61.5L326.9 58.5L329.2 58.5L325.7 64.4L325.7 68ZM332.3 68.1L332.3 68.1Q331.6 68.1 331.1 67.9Q330.5 67.7 330.2 67.2Q329.9 66.7 329.9 66.0L329.9 66.0Q329.9 65.4 330.2 65.0Q330.4 64.6 330.7 64.4Q331.1 64.1 331.6 64.0Q332.1 63.9 332.6 63.8L332.6 63.8Q333.2 63.8 333.6 63.7Q334.0 63.7 334.2 63.5Q334.3 63.4 334.3 63.2L334.3 63.2L334.3 63.2Q334.3 62.9 334.2 62.7Q334.1 62.4 333.8 62.3Q333.6 62.2 333.2 62.2L333.2 62.2Q332.9 62.2 332.6 62.3Q332.3 62.4 332.1 62.6Q332.0 62.8 331.9 63.0L331.9 63.0L330.1 62.8Q330.3 62.1 330.7 61.7Q331.2 61.3 331.8 61.0Q332.4 60.8 333.2 60.8L333.2 60.8Q333.8 60.8 334.3 61.0Q334.9 61.1 335.3 61.4Q335.7 61.7 336.0 62.1Q336.2 62.6 336.2 63.2L336.2 63.2L336.2 68L334.4 68L334.4 67.0L334.4 67.0Q334.2 67.3 333.9 67.6Q333.6 67.8 333.2 68.0Q332.8 68.1 332.3 68.1ZM332.8 66.8L332.8 66.8Q333.3 66.8 333.6 66.6Q334.0 66.4 334.2 66.1Q334.3 65.8 334.3 65.5L334.3 65.5L334.3 64.7Q334.3 64.8 334.1 64.8Q333.9 64.9 333.7 64.9Q333.5 64.9 333.3 65.0Q333.1 65.0 332.9 65.0L332.9 65.0Q332.6 65.1 332.3 65.2Q332.1 65.3 331.9 65.5Q331.8 65.7 331.8 66.0L331.8 66.0Q331.8 66.2 331.9 66.4Q332.0 66.6 332.3 66.7Q332.5 66.8 332.8 66.8ZM340.7 68.1L340.7 68.1Q339.8 68.1 339.2 67.9Q338.5 67.7 338.1 67.2Q337.7 66.7 337.5 66.1L337.5 66.1L339.3 65.8Q339.5 66.2 339.8 66.5Q340.2 66.7 340.7 66.7L340.7 66.7Q341.3 66.7 341.6 66.5Q341.9 66.3 341.9 66.0L341.9 66.0Q341.9 65.7 341.7 65.6Q341.5 65.4 341.0 65.3L341.0 65.3L339.8 65.0Q338.7 64.8 338.2 64.3Q337.7 63.8 337.7 63.0L337.7 63.0Q337.7 62.3 338.1 61.8Q338.5 61.3 339.1 61.1Q339.8 60.8 340.7 60.8L340.7 60.8Q341.6 60.8 342.2 61.0Q342.8 61.3 343.2 61.7Q343.5 62.1 343.7 62.7L343.7 62.7L342.0 63.0Q341.9 62.6 341.6 62.4Q341.3 62.2 340.7 62.2L340.7 62.2Q340.3 62.2 340.0 62.4Q339.6 62.6 339.6 62.9L339.6 62.9Q339.6 63.2 339.8 63.4Q340.0 63.5 340.5 63.6L340.5 63.6L341.8 63.9Q342.9 64.1 343.4 64.6Q343.9 65.0 343.9 65.8L343.9 65.8Q343.9 66.5 343.4 67.0Q343.0 67.6 342.3 67.8Q341.6 68.1 340.7 68.1ZM347.0 63.9L347.0 63.9L347.0 68L345.1 68L345.1 58.5L347.0 58.5L347.0 62.3Q347.3 61.7 347.7 61.3L347.7 61.3Q348.3 60.8 349.2 60.8L349.2 60.8Q349.9 60.8 350.5 61.1Q351.0 61.5 351.3 62.1Q351.6 62.7 351.6 63.5L351.6 63.5L351.6 68L349.7 68L349.7 63.8Q349.7 63.2 349.4 62.8Q349.0 62.4 348.4 62.4L348.4 62.4Q348.0 62.4 347.7 62.6Q347.4 62.8 347.2 63.1Q347.0 63.4 347.0 63.9ZM357.4 68.1L357.4 68.1Q356.2 68.1 355.2 67.6Q354.2 67.0 353.6 65.9Q353.0 64.8 353.0 63.3L353.0 63.3Q353.0 61.7 353.6 60.6Q354.2 59.6 355.2 59.0Q356.2 58.4 357.4 58.4L357.4 58.4Q358.2 58.4 358.9 58.6Q359.6 58.9 360.1 59.3Q360.7 59.7 361.0 60.4Q361.4 61.0 361.5 61.8L361.5 61.8L359.5 61.8Q359.5 61.4 359.3 61.1Q359.1 60.8 358.8 60.6Q358.6 60.4 358.2 60.2Q357.9 60.1 357.5 60.1L357.5 60.1Q356.7 60.1 356.2 60.5Q355.6 60.9 355.3 61.6Q355.0 62.3 355.0 63.3L355.0 63.3Q355.0 64.3 355.3 65.0Q355.6 65.7 356.2 66.1Q356.7 66.4 357.4 66.4L357.4 66.4Q357.9 66.4 358.2 66.3Q358.5 66.2 358.8 66.0Q359.1 65.8 359.3 65.5Q359.5 65.1 359.5 64.8L359.5 64.8L361.5 64.8Q361.4 65.4 361.1 66.0Q360.8 66.6 360.3 67.1Q359.7 67.6 359.0 67.9Q358.3 68.1 357.4 68.1ZM364.8 63.9L364.8 63.9L364.8 68L362.9 68L362.9 58.5L364.7 58.5L364.7 62.3Q365.0 61.7 365.4 61.3L365.4 61.3Q366.0 60.8 366.9 60.8L366.9 60.8Q367.6 60.8 368.2 61.1Q368.7 61.5 369.0 62.1Q369.3 62.7 369.3 63.5L369.3 63.5L369.3 68L367.4 68L367.4 63.8Q367.4 63.2 367.1 62.8Q366.7 62.4 366.1 62.4L366.1 62.4Q365.7 62.4 365.4 62.6Q365.1 62.8 364.9 63.1Q364.8 63.4 364.8 63.9ZM372.9 68.1L372.9 68.1Q372.3 68.1 371.7 67.9Q371.2 67.7 370.9 67.2Q370.6 66.7 370.6 66.0L370.6 66.0Q370.6 65.4 370.8 65.0Q371.0 64.6 371.4 64.4Q371.8 64.1 372.2 64.0Q372.7 63.9 373.2 63.8L373.2 63.8Q373.9 63.8 374.2 63.7Q374.6 63.7 374.8 63.5Q375.0 63.4 375.0 63.2L375.0 63.2L375.0 63.2Q375.0 62.9 374.8 62.7Q374.7 62.4 374.5 62.3Q374.2 62.2 373.9 62.2L373.9 62.2Q373.5 62.2 373.2 62.3Q372.9 62.4 372.8 62.6Q372.6 62.8 372.5 63.0L372.5 63.0L370.8 62.8Q371.0 62.1 371.4 61.7Q371.8 61.3 372.4 61.0Q373.1 60.8 373.9 60.8L373.9 60.8Q374.4 60.8 375.0 61.0Q375.5 61.1 375.9 61.4Q376.4 61.7 376.6 62.1Q376.9 62.6 376.9 63.2L376.9 63.2L376.9 68L375.1 68L375.1 67.0L375.0 67.0Q374.8 67.3 374.5 67.6Q374.3 67.8 373.9 68.0Q373.5 68.1 372.9 68.1ZM373.5 66.8L373.5 66.8Q373.9 66.8 374.3 66.6Q374.6 66.4 374.8 66.1Q375.0 65.8 375.0 65.5L375.0 65.5L375.0 64.7Q374.9 64.8 374.7 64.8Q374.6 64.9 374.3 64.9Q374.1 64.9 373.9 65.0Q373.7 65.0 373.6 65.0L373.6 65.0Q373.2 65.1 373.0 65.2Q372.7 65.3 372.5 65.5Q372.4 65.7 372.4 66.0L372.4 66.0Q372.4 66.2 372.5 66.4Q372.7 66.6 372.9 66.7Q373.2 66.8 373.5 66.8ZM380.9 68.1L380.9 68.1Q380.2 68.1 379.6 67.8Q379.1 67.4 378.8 66.8Q378.5 66.2 378.5 65.4L378.5 65.4L378.5 60.9L380.4 60.9L380.4 65.1Q380.4 65.7 380.7 66.1Q381.1 66.5 381.7 66.5L381.7 66.5Q382.1 66.5 382.4 66.3Q382.7 66.1 382.9 65.8Q383.1 65.5 383.1 65.0L383.1 65.0L383.1 60.9L385.0 60.9L385.0 68L383.2 68L383.1 66.5Q382.9 67.2 382.4 67.6L382.4 67.6Q381.8 68.1 380.9 68.1ZM389.2 68.1L389.2 68.1Q388.4 68.1 387.7 67.7Q387.1 67.3 386.7 66.5Q386.3 65.6 386.3 64.5L386.3 64.5Q386.3 63.3 386.7 62.4Q387.1 61.6 387.7 61.2Q388.4 60.8 389.2 60.8L389.2 60.8Q389.8 60.8 390.2 61.0Q390.6 61.2 390.8 61.5Q391.1 61.8 391.2 62.1L391.2 62.1L391.3 62.1L391.3 58.5L393.2 58.5L393.2 68L391.3 68L391.3 66.9L391.2 66.9Q391.1 67.1 390.8 67.4Q390.6 67.7 390.2 67.9Q389.8 68.1 389.2 68.1ZM389.8 66.6L389.8 66.6Q390.2 66.6 390.6 66.3Q390.9 66.1 391.1 65.6Q391.3 65.1 391.3 64.5L391.3 64.5Q391.3 63.8 391.1 63.3Q390.9 62.9 390.6 62.6Q390.3 62.3 389.8 62.3L389.8 62.3Q389.3 62.3 388.9 62.6Q388.6 62.9 388.4 63.4Q388.2 63.8 388.2 64.5L388.2 64.5Q388.2 65.1 388.4 65.6Q388.6 66.0 388.9 66.3Q389.3 66.6 389.8 66.6ZM396.7 63.9L396.7 63.9L396.7 68L394.8 68L394.8 58.5L396.6 58.5L396.6 62.3Q396.9 61.7 397.3 61.3L397.3 61.3Q397.9 60.8 398.8 60.8L398.8 60.8Q399.5 60.8 400.1 61.1Q400.6 61.5 401.0 62.1Q401.3 62.7 401.3 63.5L401.3 63.5L401.3 68L399.3 68L399.3 63.8Q399.3 63.2 399.0 62.8Q398.7 62.4 398.1 62.4L398.1 62.4Q397.7 62.4 397.3 62.6Q397.0 62.8 396.9 63.1Q396.7 63.4 396.7 63.9ZM404.9 68.1L404.9 68.1Q404.2 68.1 403.6 67.9Q403.1 67.7 402.8 67.2Q402.5 66.7 402.5 66.0L402.5 66.0Q402.5 65.4 402.7 65.0Q402.9 64.6 403.3 64.4Q403.7 64.1 404.2 64.0Q404.6 63.9 405.2 63.8L405.2 63.8Q405.8 63.8 406.2 63.7Q406.5 63.7 406.7 63.5Q406.9 63.4 406.9 63.2L406.9 63.2L406.9 63.2Q406.9 62.9 406.8 62.7Q406.6 62.4 406.4 62.3Q406.1 62.2 405.8 62.2L405.8 62.2Q405.4 62.2 405.1 62.3Q404.9 62.4 404.7 62.6Q404.5 62.8 404.4 63.0L404.4 63.0L402.7 62.8Q402.9 62.1 403.3 61.7Q403.7 61.3 404.4 61.0Q405.0 60.8 405.8 60.8L405.8 60.8Q406.4 60.8 406.9 61.0Q407.4 61.1 407.9 61.4Q408.3 61.7 408.5 62.1Q408.8 62.6 408.8 63.2L408.8 63.2L408.8 68L407.0 68L407.0 67.0L406.9 67.0Q406.8 67.3 406.5 67.6Q406.2 67.8 405.8 68.0Q405.4 68.1 404.9 68.1ZM405.4 66.8L405.4 66.8Q405.8 66.8 406.2 66.6Q406.5 66.4 406.7 66.1Q406.9 65.8 406.9 65.5L406.9 65.5L406.9 64.7Q406.8 64.8 406.7 64.8Q406.5 64.9 406.3 64.9Q406.1 64.9 405.9 65.0Q405.7 65.0 405.5 65.0L405.5 65.0Q405.1 65.1 404.9 65.2Q404.6 65.3 404.5 65.5Q404.3 65.7 404.3 66.0L404.3 66.0Q404.3 66.2 404.5 66.4Q404.6 66.6 404.8 66.7Q405.1 66.8 405.4 66.8ZM412.3 68L410.4 68L410.4 60.9L412.3 60.9L412.3 62.1L412.3 62.1Q412.5 61.5 413.0 61.1Q413.5 60.8 414.1 60.8L414.1 60.8Q414.2 60.8 414.4 60.8Q414.5 60.8 414.7 60.9L414.7 60.9L414.7 62.6Q414.5 62.5 414.3 62.5Q414.1 62.5 413.8 62.5L413.8 62.5Q413.4 62.5 413.1 62.7Q412.7 62.9 412.5 63.2Q412.3 63.5 412.3 64.0L412.3 64.0L412.3 68ZM417.6 68L415.7 68L415.7 60.9L417.6 60.9L417.6 68ZM416.7 60.0L416.7 60.0Q416.2 60.0 415.9 59.7Q415.6 59.4 415.6 59.0L415.6 59.0Q415.6 58.6 415.9 58.3Q416.2 58.0 416.7 58.0L416.7 58.0Q417.1 58.0 417.4 58.3Q417.7 58.6 417.7 59.0L417.7 59.0Q417.7 59.4 417.4 59.7Q417.1 60.0 416.7 60.0ZM422.5 68.1L422.5 68.1Q421.5 68.1 420.8 67.8Q420.1 67.4 419.7 66.8Q419.2 66.1 419.1 65.4L419.1 65.4L421.0 65.4Q421.1 65.9 421.5 66.2Q421.9 66.5 422.5 66.5L422.5 66.5Q423.1 66.5 423.5 66.1Q423.9 65.7 424.2 65.0Q424.4 64.4 424.4 63.4L424.4 63.4L424.3 63.4Q424.1 63.8 423.7 64.1Q423.4 64.4 422.9 64.6Q422.5 64.8 421.9 64.8L421.9 64.8Q421.1 64.8 420.4 64.4Q419.8 64.0 419.4 63.3Q419.0 62.6 419.0 61.7L419.0 61.7Q419.0 60.7 419.5 60.0Q419.9 59.2 420.7 58.8Q421.5 58.4 422.5 58.4L422.5 58.4Q423.3 58.4 423.9 58.6Q424.6 58.9 425.1 59.4Q425.7 60.0 426.0 60.9Q426.3 61.7 426.3 63.0L426.3 63.0Q426.3 64.2 426.0 65.2Q425.7 66.1 425.2 66.8Q424.7 67.4 424.0 67.8Q423.3 68.1 422.5 68.1ZM422.5 63.3L422.5 63.3Q422.9 63.3 423.2 63.2Q423.5 63.1 423.7 62.8Q423.9 62.6 424.1 62.3Q424.2 62.0 424.2 61.6L424.2 61.6Q424.2 61.2 424.0 60.8Q423.8 60.4 423.4 60.2Q423.0 60.0 422.5 60.0L422.5 60.0Q422.1 60.0 421.7 60.2Q421.3 60.4 421.1 60.8Q420.9 61.2 420.9 61.6L420.9 61.6Q420.9 62.1 421.1 62.5Q421.3 62.9 421.7 63.1Q422.1 63.3 422.5 63.3ZM430.9 68.1L430.9 68.1Q430.0 68.1 429.3 67.8Q428.5 67.4 428.1 66.8Q427.7 66.1 427.6 65.4L427.6 65.4L429.5 65.4Q429.6 65.9 430.0 66.2Q430.3 66.5 430.9 66.5L430.9 66.5Q431.5 66.5 432.0 66.1Q432.4 65.7 432.6 65.0Q432.8 64.4 432.8 63.4L432.8 63.4L432.8 63.4Q432.5 63.8 432.2 64.1Q431.8 64.4 431.4 64.6Q430.9 64.8 430.4 64.8L430.4 64.8Q429.5 64.8 428.9 64.4Q428.2 64.0 427.8 63.3Q427.5 62.6 427.5 61.7L427.5 61.7Q427.5 60.7 427.9 60.0Q428.4 59.2 429.1 58.8Q429.9 58.4 431.0 58.4L431.0 58.4Q431.7 58.4 432.4 58.6Q433.0 58.9 433.6 59.4Q434.1 60.0 434.4 60.9Q434.7 61.7 434.7 63.0L434.7 63.0Q434.7 64.2 434.5 65.2Q434.2 66.1 433.7 66.8Q433.2 67.4 432.5 67.8Q431.8 68.1 430.9 68.1ZM431.0 63.3L431.0 63.3Q431.3 63.3 431.6 63.2Q431.9 63.1 432.2 62.8Q432.4 62.6 432.5 62.3Q432.6 62.0 432.6 61.6L432.6 61.6Q432.6 61.2 432.4 60.8Q432.2 60.4 431.8 60.2Q431.5 60.0 431.0 60.0L431.0 60.0Q430.5 60.0 430.2 60.2Q429.8 60.4 429.6 60.8Q429.4 61.2 429.4 61.6L429.4 61.6Q429.4 62.1 429.6 62.5Q429.8 62.9 430.1 63.1Q430.5 63.3 431.0 63.3ZM439.3 68.1L439.3 68.1Q438.4 68.1 437.7 67.8Q437.0 67.4 436.5 66.8Q436.1 66.1 436.0 65.4L436.0 65.4L437.9 65.4Q438.0 65.9 438.4 66.2Q438.8 66.5 439.3 66.5L439.3 66.5Q440.0 66.5 440.4 66.1Q440.8 65.7 441.0 65.0Q441.3 64.4 441.3 63.4L441.3 63.4L441.2 63.4Q441.0 63.8 440.6 64.1Q440.3 64.4 439.8 64.6Q439.3 64.8 438.8 64.8L438.8 64.8Q438.0 64.8 437.3 64.4Q436.7 64.0 436.3 63.3Q435.9 62.6 435.9 61.7L435.9 61.7Q435.9 60.7 436.4 60.0Q436.8 59.2 437.6 58.8Q438.4 58.4 439.4 58.4L439.4 58.4Q440.1 58.4 440.8 58.6Q441.5 58.9 442.0 59.4Q442.5 60.0 442.9 60.9Q443.2 61.7 443.2 63.0L443.2 63.0Q443.2 64.2 442.9 65.2Q442.6 66.1 442.1 66.8Q441.6 67.4 440.9 67.8Q440.2 68.1 439.3 68.1ZM439.4 63.3L439.4 63.3Q439.8 63.3 440.1 63.2Q440.4 63.1 440.6 62.8Q440.8 62.6 440.9 62.3Q441.1 62.0 441.1 61.6L441.1 61.6Q441.1 61.2 440.9 60.8Q440.6 60.4 440.3 60.2Q439.9 60.0 439.4 60.0L439.4 60.0Q439.0 60.0 438.6 60.2Q438.2 60.4 438.0 60.8Q437.8 61.2 437.8 61.6L437.8 61.6Q437.8 62.1 438.0 62.5Q438.2 62.9 438.6 63.1Q438.9 63.3 439.4 63.3Z "/></g><defs><clipPath id="satori_bc-id-2-1-0-1" clip-path="url(#satori_cp-id)"><path x="494" y="54" width="46" height="18" d="M503,54 h28 a9,9 0 0 1 9,9 v0 a9,9 0 0 1 -9,9 h-28 a9,9 0 0 1 -9,-9 v0 a9,9 0 0 1 9,-9"/></clipPath></defs><mask id="satori_om-id-2-1-0-1"><rect x="495" y="55" width="44" height="16" fill="#fff" mask="url(#satori_om-id)"/><path width="46" height="18" fill="none" stroke="#000" stroke-width="2" d="M496.636,56.636 A9,9 0 0 1 503,54 h28 a9,9 0 0 1 9,9 v0 a9,9 0 0 1 -9,9 h-28 a9,9 0 0 1 -9,-9 v0 A9,9 0 0 1 496.636,56.636"/></mask><path x="494" y="54" width="46" height="18" fill="#6e50dc22" d="M503,54 h28 a9,9 0 0 1 9,9 v0 a9,9 0 0 1 -9,9 h-28 a9,9 0 0 1 -9,-9 v0 a9,9 0 0 1 9,-9" clip-path="url(#satori_cp-id)" mask="url(#satori_om-id)"/><path width="46" height="18" clip-path="url(#satori_bc-id-2-1-0-1)" fill="none" stroke="#6e50dc55" stroke-width="2" d="M496.636,56.636 A9,9 0 0 1 503,54 h28 a9,9 0 0 1 9,9 v0 a9,9 0 0 1 -9,9 h-28 a9,9 0 0 1 -9,-9 v0 A9,9 0 0 1 496.636,56.636"/><g mask="url(#satori_om-id)" clip-path="url(#satori_cp-id)"><path fill="#6e50dc" d="M507.8 67.1L507.8 67.1Q506.9 67.1 506.1 66.7Q505.3 66.2 504.9 65.4Q504.5 64.5 504.5 63.4L504.5 63.4Q504.5 62.2 504.9 61.3Q505.3 60.5 506.1 60.1Q506.9 59.6 507.8 59.6L507.8 59.6Q508.5 59.6 509.0 59.8Q509.5 60.0 509.9 60.3Q510.4 60.6 510.6 61.1Q510.9 61.6 511.0 62.2L511.0 62.2L509.5 62.2Q509.4 61.9 509.3 61.7Q509.1 61.4 508.9 61.3Q508.7 61.1 508.4 61.0Q508.2 61.0 507.9 61.0L507.9 61.0Q507.3 61.0 506.9 61.2Q506.4 61.5 506.2 62.1Q506.0 62.6 506.0 63.4L506.0 63.4Q506.0 64.2 506.2 64.7Q506.5 65.2 506.9 65.5Q507.3 65.8 507.9 65.8L507.9 65.8Q508.2 65.8 508.4 65.7Q508.7 65.6 508.9 65.4Q509.1 65.3 509.3 65.0Q509.4 64.8 509.5 64.5L509.5 64.5L511.0 64.5Q510.9 65.0 510.7 65.5Q510.4 65.9 510.0 66.3Q509.6 66.7 509.1 66.9Q508.5 67.1 507.8 67.1ZM514.5 67.1L514.5 67.1Q513.6 67.1 513.0 66.8Q512.4 66.4 512.1 65.8Q511.8 65.1 511.8 64.3L511.8 64.3Q511.8 63.4 512.1 62.8Q512.4 62.2 513.0 61.8Q513.6 61.5 514.5 61.5L514.5 61.5Q515.3 61.5 515.9 61.8Q516.5 62.2 516.8 62.8Q517.1 63.4 517.1 64.3L517.1 64.3Q517.1 65.1 516.8 65.8Q516.5 66.4 515.9 66.8Q515.3 67.1 514.5 67.1ZM514.5 66.0L514.5 66.0Q514.9 66.0 515.1 65.7Q515.4 65.5 515.5 65.1Q515.6 64.8 515.6 64.3L515.6 64.3Q515.6 63.8 515.5 63.4Q515.4 63.1 515.1 62.8Q514.9 62.6 514.5 62.6L514.5 62.6Q514.1 62.6 513.8 62.8Q513.6 63.1 513.4 63.4Q513.3 63.8 513.3 64.3L513.3 64.3Q513.3 64.8 513.4 65.1Q513.6 65.5 513.8 65.7Q514.1 66.0 514.5 66.0ZM520.1 67.1L520.1 67.1Q519.5 67.1 519.0 66.8Q518.5 66.4 518.2 65.8Q517.9 65.2 517.9 64.3L517.9 64.3Q517.9 63.3 518.2 62.7Q518.5 62.1 519.0 61.8Q519.5 61.5 520.1 61.5L520.1 61.5Q520.6 61.5 520.9 61.6Q521.2 61.8 521.4 62.0Q521.6 62.2 521.7 62.5L521.7 62.5L521.7 62.5L521.7 59.7L523.2 59.7L523.2 67L521.8 67L521.8 66.1L521.7 66.1Q521.6 66.3 521.4 66.6Q521.2 66.8 520.9 66.9Q520.6 67.1 520.1 67.1ZM520.6 65.9L520.6 65.9Q521.0 65.9 521.2 65.7Q521.5 65.5 521.6 65.1Q521.8 64.8 521.8 64.3L521.8 64.3Q521.8 63.8 521.6 63.4Q521.5 63.0 521.2 62.8Q521.0 62.6 520.6 62.6L520.6 62.6Q520.2 62.6 520.0 62.9Q519.7 63.1 519.6 63.4Q519.4 63.8 519.4 64.3L519.4 64.3Q519.4 64.8 519.6 65.1Q519.7 65.5 520.0 65.7Q520.2 65.9 520.6 65.9ZM526.9 67.1L526.9 67.1Q526.1 67.1 525.5 66.8Q524.9 66.4 524.6 65.8Q524.2 65.2 524.2 64.3L524.2 64.3Q524.2 63.5 524.6 62.8Q524.9 62.2 525.5 61.8Q526.1 61.5 526.9 61.5L526.9 61.5Q527.4 61.5 527.9 61.6Q528.3 61.8 528.7 62.2Q529.0 62.5 529.2 63.0Q529.4 63.5 529.4 64.2L529.4 64.2L529.4 64.7L525.7 64.7Q525.7 65.1 525.8 65.4L525.8 65.4Q526.0 65.7 526.3 65.8Q526.6 66.0 526.9 66.0L526.9 66.0Q527.2 66.0 527.4 65.9Q527.6 65.9 527.8 65.7Q527.9 65.6 528.0 65.4L528.0 65.4L529.3 65.6Q529.2 66.1 528.9 66.4Q528.5 66.7 528.1 66.9Q527.6 67.1 526.9 67.1ZM525.7 63.7L525.7 63.7L528.0 63.7Q528.0 63.5 527.9 63.2L527.9 63.2Q527.8 62.9 527.5 62.7Q527.2 62.6 526.9 62.6L526.9 62.6Q526.5 62.6 526.2 62.8Q526.0 62.9 525.8 63.2L525.8 63.2Q525.7 63.5 525.7 63.7Z "/></g><mask id="satori_om-id-2-1-1"><rect x="320" y="78" width="220" height="17" fill="#fff" mask="url(#satori_om-id)"/></mask><g mask="url(#satori_om-id)" clip-path="url(#satori_cp-id)"><path fill="rgba(180,170,220,0.6)" d="M322.0 90L321.0 90L321.0 82.0L322.2 82.0L325.4 87.1Q325.6 87.3 325.7 87.6Q325.9 87.9 326.1 88.3L326.1 88.3Q326.3 88.5 326.4 88.8L326.4 88.8Q326.3 88.5 326.3 88.3L326.3 88.3Q326.3 87.9 326.3 87.5Q326.3 87.2 326.3 86.9L326.3 86.9L326.3 82.0L327.3 82.0L327.3 90L326.1 90L323.2 85.4Q323.0 85.1 322.8 84.8Q322.6 84.5 322.3 84.0L322.3 84.0Q322.2 83.7 321.9 83.2L321.9 83.2Q321.9 83.6 321.9 84.0L321.9 84.0Q322.0 84.5 322.0 84.8Q322.0 85.2 322.0 85.4L322.0 85.4L322.0 90ZM331.6 90.1L331.6 90.1Q330.8 90.1 330.1 89.7Q329.5 89.4 329.2 88.7Q328.8 88.0 328.8 87.0L328.8 87.0Q328.8 86.1 329.2 85.4Q329.5 84.7 330.1 84.3Q330.8 83.9 331.6 83.9L331.6 83.9Q332.4 83.9 333.0 84.3Q333.6 84.7 334.0 85.4Q334.3 86.1 334.3 87.0L334.3 87.0Q334.3 88.0 334.0 88.7Q333.6 89.4 333.0 89.7Q332.4 90.1 331.6 90.1ZM331.6 89.3L331.6 89.3Q332.2 89.3 332.6 89.0Q333.0 88.6 333.2 88.1Q333.3 87.6 333.3 87.0L333.3 87.0Q333.3 86.4 333.2 85.9Q333.0 85.4 332.6 85.1Q332.2 84.8 331.6 84.8L331.6 84.8Q331.0 84.8 330.6 85.1Q330.2 85.4 330.0 85.9Q329.8 86.4 329.8 87.0L329.8 87.0Q329.8 87.6 330.0 88.1Q330.2 88.6 330.6 89.0Q331.0 89.3 331.6 89.3Z M341.1 90.1L341.1 90.1Q340.3 90.1 339.8 89.7Q339.2 89.4 338.9 88.7Q338.5 88.0 338.5 87.0L338.5 87.0Q338.5 86.1 338.9 85.4Q339.2 84.7 339.8 84.3Q340.3 83.9 341.1 83.9L341.1 83.9Q341.7 83.9 342.0 84.1Q342.4 84.3 342.5 84.6Q342.7 84.8 342.8 85.0L342.8 85.0L342.9 85.0L342.9 82.0L343.9 82.0L343.9 90L342.9 90L342.9 89.1L342.8 89.1Q342.7 89.2 342.5 89.5Q342.3 89.7 342.0 89.9Q341.7 90.1 341.1 90.1ZM341.2 89.3L341.2 89.3Q341.8 89.3 342.1 89.0Q342.5 88.7 342.7 88.2Q342.9 87.7 342.9 87.0L342.9 87.0Q342.9 86.3 342.7 85.8Q342.5 85.3 342.2 85.1Q341.8 84.8 341.2 84.8L341.2 84.8Q340.7 84.8 340.3 85.1Q339.9 85.4 339.7 85.9Q339.5 86.4 339.5 87.0L339.5 87.0Q339.5 87.6 339.7 88.1Q339.9 88.7 340.3 89.0Q340.7 89.3 341.2 89.3ZM348.1 90.1L348.1 90.1Q347.2 90.1 346.6 89.7Q346.0 89.4 345.6 88.7Q345.3 88.0 345.3 87.0Q345.3 86.1 345.6 85.4Q345.9 84.7 346.5 84.3Q347.2 83.9 348.0 83.9L348.0 83.9Q348.5 83.9 348.9 84.1Q349.4 84.2 349.8 84.6Q350.1 84.9 350.4 85.5Q350.6 86.1 350.6 86.9L350.6 86.9L350.6 87.3L346.2 87.3Q346.3 87.9 346.5 88.3L346.5 88.3Q346.7 88.8 347.1 89.0Q347.5 89.3 348.1 89.3L348.1 89.3Q348.4 89.3 348.7 89.2Q349.0 89.1 349.2 88.9Q349.4 88.7 349.6 88.3L349.6 88.3L350.5 88.6Q350.4 89.1 350.0 89.4Q349.7 89.7 349.2 89.9Q348.7 90.1 348.1 90.1ZM346.3 86.5L346.3 86.5L349.6 86.5Q349.6 86.1 349.4 85.8L349.4 85.8Q349.2 85.3 348.9 85.0Q348.5 84.8 348.0 84.8Q347.4 84.8 347.0 85.0Q346.7 85.3 346.5 85.7L346.5 85.7Q346.3 86.1 346.3 86.5ZM354.0 90.1L354.0 90.1Q353.4 90.1 352.9 89.9Q352.4 89.8 352.1 89.4Q351.8 89.1 351.7 88.5L351.7 88.5L352.6 88.3Q352.8 88.8 353.1 89.0Q353.5 89.3 354.0 89.3L354.0 89.3Q354.6 89.3 355.0 89.0Q355.4 88.7 355.4 88.4L355.4 88.4Q355.4 88.1 355.2 87.9Q354.9 87.6 354.5 87.5L354.5 87.5L353.5 87.3Q352.7 87.1 352.3 86.7Q351.9 86.3 351.9 85.7L351.9 85.7Q351.9 85.2 352.2 84.8Q352.5 84.4 353.0 84.1Q353.5 83.9 354.1 83.9L354.1 83.9Q354.7 83.9 355.2 84.1Q355.6 84.3 355.9 84.6Q356.1 84.9 356.3 85.4L356.3 85.4L355.4 85.6Q355.3 85.3 355.0 85.0Q354.7 84.7 354.1 84.7L354.1 84.7Q353.6 84.7 353.2 85.0Q352.9 85.2 352.9 85.6L352.9 85.6Q352.9 85.9 353.1 86.1Q353.3 86.3 353.9 86.5L353.9 86.5L354.8 86.7Q355.6 86.9 356.0 87.3Q356.4 87.7 356.4 88.3L356.4 88.3Q356.4 88.8 356.1 89.2Q355.8 89.7 355.3 89.9Q354.7 90.1 354.0 90.1ZM360.2 90.1L360.2 90.1Q359.4 90.1 358.8 89.7Q358.2 89.4 357.8 88.7Q357.5 88.0 357.5 87.0L357.5 87.0Q357.5 86.1 357.8 85.4Q358.2 84.7 358.8 84.3Q359.4 83.9 360.2 83.9L360.2 83.9Q360.7 83.9 361.0 84.0Q361.4 84.1 361.8 84.4Q362.1 84.6 362.3 84.9Q362.5 85.2 362.7 85.6L362.7 85.6L361.7 85.8Q361.7 85.6 361.5 85.4Q361.4 85.2 361.2 85.1Q361.0 84.9 360.8 84.9Q360.5 84.8 360.2 84.8L360.2 84.8Q359.6 84.8 359.2 85.1Q358.8 85.4 358.7 85.9Q358.5 86.4 358.5 87.0L358.5 87.0Q358.5 87.6 358.7 88.1Q358.8 88.6 359.2 89.0Q359.6 89.3 360.2 89.3L360.2 89.3Q360.5 89.3 360.8 89.2Q361.0 89.1 361.2 89.0Q361.4 88.8 361.6 88.6Q361.7 88.4 361.8 88.2L361.8 88.2L362.7 88.4Q362.6 88.8 362.3 89.1Q362.1 89.5 361.8 89.7Q361.4 89.9 361.1 90.0Q360.7 90.1 360.2 90.1ZM365.0 90L364.1 90L364.1 84.0L365.0 84.0L365.0 84.9L365.1 84.9Q365.2 84.5 365.7 84.2Q366.1 83.9 366.6 83.9L366.6 83.9Q366.7 83.9 366.9 83.9Q367.0 83.9 367.1 83.9L367.1 83.9L367.1 84.9Q367.1 84.9 366.9 84.9Q366.7 84.8 366.5 84.8L366.5 84.8Q366.1 84.8 365.8 85.0Q365.4 85.2 365.2 85.5Q365.0 85.8 365.0 86.2L365.0 86.2L365.0 90ZM369.2 90L368.2 90L368.2 84.0L369.2 84.0L369.2 90ZM368.7 83.0L368.7 83.0Q368.4 83.0 368.2 82.8Q368.0 82.6 368.0 82.4L368.0 82.4Q368.0 82.1 368.2 81.9Q368.4 81.7 368.7 81.7L368.7 81.7Q369.0 81.7 369.2 81.9Q369.4 82.1 369.4 82.4L369.4 82.4Q369.4 82.6 369.2 82.8Q369.0 83.0 368.7 83.0ZM371.8 92.2L370.9 92.2L370.9 84.0L371.8 84.0L371.8 85.0L371.9 85.0Q372.0 84.8 372.2 84.6Q372.4 84.3 372.7 84.1Q373.1 83.9 373.7 83.9L373.7 83.9Q374.4 83.9 375.0 84.3Q375.5 84.7 375.9 85.4Q376.2 86.1 376.2 87.0L376.2 87.0Q376.2 88.0 375.9 88.7Q375.6 89.4 375.0 89.7Q374.4 90.1 373.7 90.1L373.7 90.1Q373.1 90.1 372.7 89.9Q372.4 89.7 372.2 89.5Q372.0 89.2 371.9 89.1L371.9 89.1L371.8 89.1L371.8 92.2ZM373.5 89.3L373.5 89.3Q374.1 89.3 374.5 89.0Q374.8 88.7 375.0 88.1Q375.2 87.6 375.2 87.0L375.2 87.0Q375.2 86.4 375.0 85.9Q374.8 85.4 374.5 85.1Q374.1 84.8 373.5 84.8L373.5 84.8Q373.0 84.8 372.6 85.1Q372.2 85.3 372.0 85.8Q371.8 86.3 371.8 87.0L371.8 87.0Q371.8 87.7 372.0 88.2Q372.2 88.7 372.6 89.0Q373.0 89.3 373.5 89.3ZM378.7 84.0L380.0 84.0L380.0 84.8L378.7 84.8L378.7 88.4Q378.7 88.8 378.9 89.0Q379.1 89.2 379.4 89.2L379.4 89.2Q379.5 89.2 379.7 89.2Q379.8 89.2 379.9 89.2L379.9 89.2L380.1 90.0Q380.0 90.0 379.8 90.0Q379.6 90.1 379.4 90.1L379.4 90.1Q378.6 90.1 378.2 89.7Q377.8 89.3 377.8 88.5L377.8 88.5L377.8 84.8L376.9 84.8L376.9 84.0L377.8 84.0L377.8 82.6L378.7 82.6L378.7 84.0ZM382.2 90L381.2 90L381.2 84.0L382.2 84.0L382.2 90ZM381.7 83.0L381.7 83.0Q381.4 83.0 381.2 82.8Q381.0 82.6 381.0 82.4L381.0 82.4Q381.0 82.1 381.2 81.9Q381.4 81.7 381.7 81.7L381.7 81.7Q382.0 81.7 382.2 81.9Q382.4 82.1 382.4 82.4L382.4 82.4Q382.4 82.6 382.2 82.8Q382.0 83.0 381.7 83.0ZM386.3 90.1L386.3 90.1Q385.5 90.1 384.9 89.7Q384.3 89.4 383.9 88.7Q383.6 88.0 383.6 87.0L383.6 87.0Q383.6 86.1 383.9 85.4Q384.3 84.7 384.9 84.3Q385.5 83.9 386.3 83.9L386.3 83.9Q387.1 83.9 387.8 84.3Q388.4 84.7 388.7 85.4Q389.1 86.1 389.1 87.0L389.1 87.0Q389.1 88.0 388.7 88.7Q388.4 89.4 387.8 89.7Q387.1 90.1 386.3 90.1ZM386.3 89.3L386.3 89.3Q386.9 89.3 387.3 89.0Q387.7 88.6 387.9 88.1Q388.1 87.6 388.1 87.0L388.1 87.0Q388.1 86.4 387.9 85.9Q387.7 85.4 387.3 85.1Q386.9 84.8 386.3 84.8L386.3 84.8Q385.7 84.8 385.3 85.1Q384.9 85.4 384.7 85.9Q384.6 86.4 384.6 87.0L384.6 87.0Q384.6 87.6 384.7 88.1Q384.9 88.6 385.3 89.0Q385.7 89.3 386.3 89.3ZM391.4 86.4L391.4 86.4L391.4 90L390.5 90L390.5 84.0L391.4 84.0L391.4 85.1Q391.7 84.5 392.0 84.3L392.0 84.3Q392.6 83.9 393.2 83.9L393.2 83.9Q393.8 83.9 394.3 84.2Q394.8 84.4 395.0 84.9Q395.3 85.4 395.3 86.2L395.3 86.2L395.3 90L394.3 90L394.3 86.3Q394.3 85.6 393.9 85.2Q393.6 84.8 392.9 84.8L392.9 84.8Q392.5 84.8 392.2 85.0Q391.8 85.2 391.6 85.5Q391.4 85.9 391.4 86.4Z M401.0 92.2L400.1 92.2L400.1 84.0L401.0 84.0L401.0 85.0L401.1 85.0Q401.2 84.8 401.4 84.6Q401.6 84.3 401.9 84.1Q402.3 83.9 402.8 83.9L402.8 83.9Q403.6 83.9 404.2 84.3Q404.7 84.7 405.1 85.4Q405.4 86.1 405.4 87.0L405.4 87.0Q405.4 88.0 405.1 88.7Q404.7 89.4 404.2 89.7Q403.6 90.1 402.8 90.1L402.8 90.1Q402.3 90.1 401.9 89.9Q401.6 89.7 401.4 89.5Q401.2 89.2 401.1 89.1L401.1 89.1L401.0 89.1L401.0 92.2ZM402.7 89.3L402.7 89.3Q403.3 89.3 403.6 89.0Q404.0 88.7 404.2 88.1Q404.4 87.6 404.4 87.0L404.4 87.0Q404.4 86.4 404.2 85.9Q404.0 85.4 403.6 85.1Q403.3 84.8 402.7 84.8L402.7 84.8Q402.1 84.8 401.8 85.1Q401.4 85.3 401.2 85.8Q401.0 86.3 401.0 87.0L401.0 87.0Q401.0 87.7 401.2 88.2Q401.4 88.7 401.8 89.0Q402.2 89.3 402.7 89.3ZM407.8 90L406.8 90L406.8 84.0L407.7 84.0L407.7 84.9L407.8 84.9Q408.0 84.5 408.4 84.2Q408.8 83.9 409.3 83.9L409.3 83.9Q409.5 83.9 409.6 83.9Q409.8 83.9 409.8 83.9L409.8 83.9L409.8 84.9Q409.8 84.9 409.6 84.9Q409.5 84.8 409.3 84.8L409.3 84.8Q408.8 84.8 408.5 85.0Q408.1 85.2 408.0 85.5Q407.8 85.8 407.8 86.2L407.8 86.2L407.8 90ZM413.4 90.1L413.4 90.1Q412.6 90.1 411.9 89.7Q411.3 89.4 411.0 88.7Q410.6 88.0 410.6 87.0L410.6 87.0Q410.6 86.1 411.0 85.4Q411.3 84.7 411.9 84.3Q412.6 83.9 413.4 83.9L413.4 83.9Q414.2 83.9 414.8 84.3Q415.4 84.7 415.8 85.4Q416.1 86.1 416.1 87.0L416.1 87.0Q416.1 88.0 415.8 88.7Q415.4 89.4 414.8 89.7Q414.2 90.1 413.4 90.1ZM413.4 89.3L413.4 89.3Q414.0 89.3 414.4 89.0Q414.8 88.6 415.0 88.1Q415.1 87.6 415.1 87.0L415.1 87.0Q415.1 86.4 415.0 85.9Q414.8 85.4 414.4 85.1Q414.0 84.8 413.4 84.8L413.4 84.8Q412.8 84.8 412.4 85.1Q412.0 85.4 411.8 85.9Q411.6 86.4 411.6 87.0L411.6 87.0Q411.6 87.6 411.8 88.1Q412.0 88.6 412.4 89.0Q412.8 89.3 413.4 89.3ZM420.3 90L419.3 90L417.0 84.0L418.0 84.0L419.3 87.6Q419.5 88.1 419.7 88.7L419.7 88.7Q419.7 88.9 419.8 89.1L419.8 89.1Q419.8 88.9 419.9 88.7L419.9 88.7Q420.0 88.1 420.2 87.6L420.2 87.6L421.5 84.0L422.6 84.0L420.3 90ZM424.7 90L423.7 90L423.7 84.0L424.7 84.0L424.7 90ZM424.2 83.0L424.2 83.0Q423.9 83.0 423.7 82.8Q423.5 82.6 423.5 82.4L423.5 82.4Q423.5 82.1 423.7 81.9Q423.9 81.7 424.2 81.7L424.2 81.7Q424.5 81.7 424.7 81.9Q424.9 82.1 424.9 82.4L424.9 82.4Q424.9 82.6 424.7 82.8Q424.5 83.0 424.2 83.0ZM428.6 90.1L428.6 90.1Q427.9 90.1 427.3 89.7Q426.7 89.4 426.4 88.7Q426.1 88.0 426.1 87.0L426.1 87.0Q426.1 86.1 426.4 85.4Q426.7 84.7 427.3 84.3Q427.9 83.9 428.6 83.9L428.6 83.9Q429.2 83.9 429.6 84.1Q429.9 84.3 430.1 84.6Q430.3 84.8 430.4 85.0L430.4 85.0L430.4 85.0L430.4 82.0L431.4 82.0L431.4 90L430.5 90L430.5 89.1L430.4 89.1Q430.3 89.2 430.1 89.5Q429.9 89.7 429.5 89.9Q429.2 90.1 428.6 90.1ZM428.8 89.3L428.8 89.3Q429.3 89.3 429.7 89.0Q430.1 88.7 430.3 88.2Q430.5 87.7 430.5 87.0L430.5 87.0Q430.5 86.3 430.3 85.8Q430.1 85.3 429.7 85.1Q429.3 84.8 428.8 84.8L428.8 84.8Q428.2 84.8 427.8 85.1Q427.4 85.4 427.3 85.9Q427.1 86.4 427.1 87.0L427.1 87.0Q427.1 87.6 427.3 88.1Q427.4 88.7 427.8 89.0Q428.2 89.3 428.8 89.3ZM435.6 90.1L435.6 90.1Q434.8 90.1 434.1 89.7Q433.5 89.4 433.2 88.7Q432.8 88.0 432.8 87.0Q432.8 86.1 433.2 85.4Q433.5 84.7 434.1 84.3Q434.7 83.9 435.5 83.9L435.5 83.9Q436.0 83.9 436.5 84.1Q436.9 84.2 437.3 84.6Q437.7 84.9 437.9 85.5Q438.1 86.1 438.1 86.9L438.1 86.9L438.1 87.3L433.8 87.3Q433.8 87.9 434.0 88.3L434.0 88.3Q434.3 88.8 434.7 89.0Q435.1 89.3 435.6 89.3L435.6 89.3Q436.0 89.3 436.3 89.2Q436.6 89.1 436.8 88.9Q437.0 88.7 437.1 88.3L437.1 88.3L438.0 88.6Q437.9 89.1 437.6 89.4Q437.2 89.7 436.7 89.9Q436.3 90.1 435.6 90.1ZM433.8 86.5L433.8 86.5L437.2 86.5Q437.1 86.1 437.0 85.8L437.0 85.8Q436.8 85.3 436.4 85.0Q436.1 84.8 435.5 84.8Q435.0 84.8 434.6 85.0Q434.2 85.3 434.0 85.7L434.0 85.7Q433.8 86.1 433.8 86.5ZM441.8 90.1L441.8 90.1Q441.0 90.1 440.5 89.7Q439.9 89.4 439.6 88.7Q439.2 88.0 439.2 87.0L439.2 87.0Q439.2 86.1 439.6 85.4Q439.9 84.7 440.5 84.3Q441.0 83.9 441.8 83.9L441.8 83.9Q442.4 83.9 442.7 84.1Q443.1 84.3 443.2 84.6Q443.4 84.8 443.5 85.0L443.5 85.0L443.6 85.0L443.6 82.0L444.6 82.0L444.6 90L443.6 90L443.6 89.1L443.5 89.1Q443.4 89.2 443.2 89.5Q443.0 89.7 442.7 89.9Q442.3 90.1 441.8 90.1ZM441.9 89.3L441.9 89.3Q442.5 89.3 442.8 89.0Q443.2 88.7 443.4 88.2Q443.6 87.7 443.6 87.0L443.6 87.0Q443.6 86.3 443.4 85.8Q443.2 85.3 442.8 85.1Q442.5 84.8 441.9 84.8L441.9 84.8Q441.3 84.8 441.0 85.1Q440.6 85.4 440.4 85.9Q440.2 86.4 440.2 87.0L440.2 87.0Q440.2 87.6 440.4 88.1Q440.6 88.7 441.0 89.0Q441.4 89.3 441.9 89.3ZM447.0 90.1L447.0 90.1Q446.7 90.1 446.5 89.9Q446.3 89.6 446.3 89.3L446.3 89.3Q446.3 89.0 446.5 88.8Q446.7 88.6 447.0 88.6L447.0 88.6Q447.3 88.6 447.5 88.8Q447.7 89.0 447.7 89.3L447.7 89.3Q447.7 89.6 447.5 89.9Q447.3 90.1 447.0 90.1Z "/></g><defs><clipPath id="satori_bc-id-2-2" clip-path="url(#satori_cp-id)"><path x="573" y="41" width="254" height="84" d="M583,41 h234 a10,10 0 0 1 10,10 v64 a10,10 0 0 1 -10,10 h-234 a10,10 0 0 1 -10,-10 v-64 a10,10 0 0 1 10,-10"/></clipPath></defs><mask id="satori_om-id-2-2"><rect x="574" y="42" width="252" height="82" fill="#fff" mask="url(#satori_om-id)"/><path width="254" height="84" fill="none" stroke="#000" stroke-width="2" d="M575.929,43.929 A10,10 0 0 1 583,41 h234 a10,10 0 0 1 10,10 v64 a10,10 0 0 1 -10,10 h-234 a10,10 0 0 1 -10,-10 v-64 A10,10 0 0 1 575.929,43.929"/></mask><path x="573" y="41" width="254" height="84" fill="rgba(255,255,255,0.03)" d="M583,41 h234 a10,10 0 0 1 10,10 v64 a10,10 0 0 1 -10,10 h-234 a10,10 0 0 1 -10,-10 v-64 a10,10 0 0 1 10,-10" clip-path="url(#satori_cp-id)" mask="url(#satori_om-id)"/><path width="254" height="84" clip-path="url(#satori_bc-id-2-2)" fill="none" stroke="rgba(110,80,220,0.15)" stroke-width="2" d="M575.929,43.929 A10,10 0 0 1 583,41 h234 a10,10 0 0 1 10,10 v64 a10,10 0 0 1 -10,10 h-234 a10,10 0 0 1 -10,-10 v-64 A10,10 0 0 1 575.929,43.929"/><mask id="satori_om-id-2-2-0"><rect x="590" y="54" width="220" height="18" fill="#fff" mask="url(#satori_om-id)"/></mask><mask id="satori_om-id-2-2-0-0"><rect x="590" y="55" width="163" height="16" fill="#fff" mask="url(#satori_om-id)"/></mask><g mask="url(#satori_om-id)" clip-path="url(#satori_cp-id)"><path fill="#e0d8ff" d="M594.0 68.1L594.0 68.1Q592.9 68.1 592.1 67.7Q591.4 67.2 590.9 66.4Q590.5 65.6 590.5 64.5L590.5 64.5Q590.5 63.4 590.9 62.6Q591.4 61.7 592.1 61.3Q592.9 60.8 594.0 60.8L594.0 60.8Q595.1 60.8 595.8 61.3Q596.6 61.7 597.0 62.6Q597.5 63.4 597.5 64.5L597.5 64.5Q597.5 65.6 597.0 66.4Q596.6 67.2 595.8 67.7Q595.1 68.1 594.0 68.1ZM594.0 66.6L594.0 66.6Q594.5 66.6 594.8 66.4Q595.2 66.1 595.4 65.6Q595.5 65.1 595.5 64.5L595.5 64.5Q595.5 63.8 595.4 63.4Q595.2 62.9 594.8 62.6Q594.5 62.3 594.0 62.3L594.0 62.3Q593.5 62.3 593.1 62.6Q592.8 62.9 592.6 63.4Q592.5 63.8 592.5 64.5L592.5 64.5Q592.5 65.1 592.6 65.6Q592.8 66.1 593.1 66.4Q593.5 66.6 594.0 66.6ZM600.7 63.9L600.7 63.9L600.7 68L598.8 68L598.8 60.9L600.6 60.9L600.6 62.4Q600.9 61.7 601.3 61.3L601.3 61.3Q601.9 60.8 602.8 60.8L602.8 60.8Q603.6 60.8 604.1 61.1Q604.7 61.5 605.0 62.1Q605.3 62.7 605.3 63.5L605.3 63.5L605.3 68L603.3 68L603.3 63.8Q603.3 63.2 603.0 62.8Q602.7 62.4 602.1 62.4L602.1 62.4Q601.7 62.4 601.4 62.6Q601.0 62.8 600.9 63.1Q600.7 63.4 600.7 63.9ZM606.9 58.5L608.8 58.5L608.8 68L606.9 68L606.9 58.5ZM612.3 68L610.4 68L610.4 60.9L612.3 60.9L612.3 68ZM611.4 60.0L611.4 60.0Q610.9 60.0 610.6 59.7Q610.3 59.4 610.3 59.0L610.3 59.0Q610.3 58.6 610.6 58.3Q610.9 58.0 611.4 58.0L611.4 58.0Q611.8 58.0 612.1 58.3Q612.4 58.6 612.4 59.0L612.4 59.0Q612.4 59.4 612.1 59.7Q611.8 60.0 611.4 60.0ZM615.8 63.9L615.8 63.9L615.8 68L613.9 68L613.9 60.9L615.7 60.9L615.7 62.4Q616.0 61.7 616.5 61.3L616.5 61.3Q617.1 60.8 618.0 60.8L618.0 60.8Q618.7 60.8 619.2 61.1Q619.8 61.5 620.1 62.1Q620.4 62.7 620.4 63.5L620.4 63.5L620.4 68L618.5 68L618.5 63.8Q618.5 63.2 618.1 62.8Q617.8 62.4 617.2 62.4L617.2 62.4Q616.8 62.4 616.5 62.6Q616.2 62.8 616.0 63.1Q615.8 63.4 615.8 63.9ZM625.2 68.1L625.2 68.1Q624.1 68.1 623.4 67.7Q622.6 67.3 622.1 66.4Q621.7 65.6 621.7 64.5L621.7 64.5Q621.7 63.4 622.1 62.6Q622.6 61.7 623.3 61.3Q624.1 60.8 625.1 60.8L625.1 60.8Q625.8 60.8 626.4 61.0Q627.0 61.3 627.5 61.7Q627.9 62.2 628.2 62.8Q628.5 63.5 628.5 64.4L628.5 64.4L628.5 64.9L623.6 64.9Q623.6 65.5 623.8 65.9L623.8 65.9Q624.0 66.3 624.4 66.5Q624.8 66.7 625.3 66.7L625.3 66.7Q625.6 66.7 625.9 66.6Q626.1 66.5 626.3 66.3Q626.5 66.1 626.6 65.9L626.6 65.9L628.4 66.2Q628.2 66.8 627.8 67.2Q627.3 67.7 626.7 67.9Q626.1 68.1 625.2 68.1ZM623.6 63.8L623.6 63.8L626.6 63.8Q626.6 63.4 626.5 63.1L626.5 63.1Q626.3 62.7 626.0 62.5Q625.6 62.2 625.1 62.2L625.1 62.2Q624.7 62.2 624.3 62.5Q624.0 62.7 623.8 63.1L623.8 63.1Q623.6 63.4 623.6 63.8ZM632.9 68.1L632.9 68.1Q631.9 68.1 631.1 67.7Q630.3 67.2 629.9 66.4Q629.5 65.6 629.5 64.5L629.5 64.5Q629.5 63.4 629.9 62.6Q630.3 61.7 631.1 61.3Q631.9 60.8 632.9 60.8L632.9 60.8Q633.6 60.8 634.1 61.0Q634.6 61.1 635.0 61.4Q635.5 61.8 635.7 62.2Q636.0 62.6 636.1 63.2L636.1 63.2L634.3 63.5Q634.3 63.2 634.1 63.0Q634.0 62.8 633.8 62.6Q633.7 62.5 633.5 62.4Q633.2 62.3 633.0 62.3L633.0 62.3Q632.4 62.3 632.1 62.6Q631.8 62.9 631.6 63.3Q631.4 63.8 631.4 64.5L631.4 64.5Q631.4 65.1 631.6 65.6Q631.8 66.1 632.1 66.4Q632.4 66.6 633.0 66.6L633.0 66.6Q633.2 66.6 633.5 66.6Q633.7 66.5 633.9 66.3Q634.0 66.1 634.2 65.9Q634.3 65.7 634.3 65.4L634.3 65.4L636.1 65.7Q636.0 66.3 635.7 66.7Q635.5 67.2 635.1 67.5Q634.6 67.8 634.1 68.0Q633.6 68.1 632.9 68.1ZM640.6 68.1L640.6 68.1Q639.5 68.1 638.7 67.7Q638.0 67.2 637.5 66.4Q637.1 65.6 637.1 64.5L637.1 64.5Q637.1 63.4 637.5 62.6Q638.0 61.7 638.7 61.3Q639.5 60.8 640.6 60.8L640.6 60.8Q641.7 60.8 642.4 61.3Q643.2 61.7 643.6 62.6Q644.1 63.4 644.1 64.5L644.1 64.5Q644.1 65.6 643.6 66.4Q643.2 67.2 642.4 67.7Q641.7 68.1 640.6 68.1ZM640.6 66.6L640.6 66.6Q641.1 66.6 641.4 66.4Q641.8 66.1 641.9 65.6Q642.1 65.1 642.1 64.5L642.1 64.5Q642.1 63.8 641.9 63.4Q641.8 62.9 641.4 62.6Q641.1 62.3 640.6 62.3L640.6 62.3Q640.1 62.3 639.7 62.6Q639.4 62.9 639.2 63.4Q639.1 63.8 639.1 64.5L639.1 64.5Q639.1 65.1 639.2 65.6Q639.4 66.1 639.7 66.4Q640.1 66.6 640.6 66.6ZM647.8 68.1L647.8 68.1Q647.1 68.1 646.5 67.8Q646.0 67.4 645.7 66.8Q645.4 66.2 645.4 65.4L645.4 65.4L645.4 60.9L647.3 60.9L647.3 65.1Q647.3 65.7 647.6 66.1Q648.0 66.5 648.6 66.5L648.6 66.5Q649.0 66.5 649.3 66.3Q649.6 66.1 649.8 65.8Q649.9 65.5 649.9 65.0L649.9 65.0L649.9 60.9L651.9 60.9L651.9 68L650.1 68L650.0 66.5Q649.8 67.2 649.3 67.6L649.3 67.6Q648.7 68.1 647.8 68.1ZM655.4 68L653.5 68L653.5 60.9L655.3 60.9L655.3 62.1L655.4 62.1Q655.6 61.5 656.1 61.1Q656.5 60.8 657.1 60.8L657.1 60.8Q657.3 60.8 657.4 60.8Q657.6 60.8 657.7 60.9L657.7 60.9L657.7 62.6Q657.6 62.5 657.4 62.5Q657.1 62.5 656.9 62.5L656.9 62.5Q656.5 62.5 656.1 62.7Q655.8 62.9 655.6 63.2Q655.4 63.5 655.4 64.0L655.4 64.0L655.4 68ZM661.6 68.1L661.6 68.1Q660.7 68.1 660.1 67.9Q659.4 67.7 659.0 67.2Q658.6 66.7 658.5 66.1L658.5 66.1L660.2 65.8Q660.4 66.2 660.7 66.5Q661.1 66.7 661.6 66.7L661.6 66.7Q662.2 66.7 662.5 66.5Q662.8 66.3 662.8 66.0L662.8 66.0Q662.8 65.7 662.6 65.6Q662.4 65.4 661.9 65.3L661.9 65.3L660.7 65.0Q659.7 64.8 659.1 64.3Q658.6 63.8 658.6 63.0L658.6 63.0Q658.6 62.3 659.0 61.8Q659.4 61.3 660.1 61.1Q660.7 60.8 661.6 60.8L661.6 60.8Q662.5 60.8 663.1 61.0Q663.7 61.3 664.1 61.7Q664.5 62.1 664.6 62.7L664.6 62.7L662.9 63.0Q662.8 62.6 662.5 62.4Q662.2 62.2 661.6 62.2L661.6 62.2Q661.2 62.2 660.9 62.4Q660.5 62.6 660.5 62.9L660.5 62.9Q660.5 63.2 660.7 63.4Q661.0 63.5 661.5 63.6L661.5 63.6L662.7 63.9Q663.8 64.1 664.3 64.6Q664.8 65.0 664.8 65.8L664.8 65.8Q664.8 66.5 664.4 67.0Q664.0 67.6 663.2 67.8Q662.5 68.1 661.6 68.1ZM669.3 68.1L669.3 68.1Q668.2 68.1 667.4 67.7Q666.6 67.3 666.2 66.4Q665.8 65.6 665.8 64.5L665.8 64.5Q665.8 63.4 666.2 62.6Q666.6 61.7 667.4 61.3Q668.1 60.8 669.2 60.8L669.2 60.8Q669.9 60.8 670.5 61.0Q671.1 61.3 671.5 61.7Q672.0 62.2 672.2 62.8Q672.5 63.5 672.5 64.4L672.5 64.4L672.5 64.9L667.6 64.9Q667.7 65.5 667.8 65.9L667.8 65.9Q668.1 66.3 668.4 66.5Q668.8 66.7 669.3 66.7L669.3 66.7Q669.6 66.7 669.9 66.6Q670.2 66.5 670.4 66.3Q670.6 66.1 670.7 65.9L670.7 65.9L672.4 66.2Q672.2 66.8 671.8 67.2Q671.4 67.7 670.7 67.9Q670.1 68.1 669.3 68.1ZM667.7 63.8L667.7 63.8L670.7 63.8Q670.6 63.4 670.5 63.1L670.5 63.1Q670.3 62.7 670.0 62.5Q669.7 62.2 669.2 62.2L669.2 62.2Q668.7 62.2 668.3 62.5Q668.0 62.7 667.8 63.1L667.8 63.1Q667.7 63.4 667.7 63.8ZM676.6 68.1L676.6 68.1Q675.8 68.1 675.1 67.9Q674.4 67.7 674.0 67.2Q673.6 66.7 673.5 66.1L673.5 66.1L675.2 65.8Q675.4 66.2 675.7 66.5Q676.1 66.7 676.7 66.7L676.7 66.7Q677.2 66.7 677.5 66.5Q677.8 66.3 677.8 66.0L677.8 66.0Q677.8 65.7 677.6 65.6Q677.4 65.4 676.9 65.3L676.9 65.3L675.7 65.0Q674.7 64.8 674.2 64.3Q673.7 63.8 673.7 63.0L673.7 63.0Q673.7 62.3 674.0 61.8Q674.4 61.3 675.1 61.1Q675.7 60.8 676.6 60.8L676.6 60.8Q677.5 60.8 678.1 61.0Q678.7 61.3 679.1 61.7Q679.5 62.1 679.6 62.7L679.6 62.7L677.9 63.0Q677.8 62.6 677.5 62.4Q677.2 62.2 676.7 62.2L676.7 62.2Q676.2 62.2 675.9 62.4Q675.6 62.6 675.6 62.9L675.6 62.9Q675.6 63.2 675.8 63.4Q676.0 63.5 676.5 63.6L676.5 63.6L677.8 63.9Q678.8 64.1 679.3 64.6Q679.8 65.0 679.8 65.8L679.8 65.8Q679.8 66.5 679.4 67.0Q679.0 67.6 678.3 67.8Q677.5 68.1 676.6 68.1ZM682.4 68.1L682.4 68.1Q682.0 68.1 681.7 67.8Q681.3 67.5 681.3 67.0L681.3 67.0Q681.3 66.6 681.7 66.3Q682.0 65.9 682.4 65.9L682.4 65.9Q682.9 65.9 683.2 66.3Q683.5 66.6 683.5 67.0L683.5 67.0Q683.5 67.5 683.2 67.8Q682.9 68.1 682.4 68.1ZM687.3 63.9L687.3 63.9L687.3 68L685.4 68L685.4 60.9L687.2 60.9L687.2 62.4Q687.5 61.7 688.0 61.3L688.0 61.3Q688.5 60.8 689.4 60.8L689.4 60.8Q690.2 60.8 690.7 61.1Q691.3 61.5 691.6 62.1Q691.9 62.7 691.9 63.5L691.9 63.5L691.9 68L690.0 68L690.0 63.8Q690.0 63.2 689.6 62.8Q689.3 62.4 688.7 62.4L688.7 62.4Q688.3 62.4 688.0 62.6Q687.7 62.8 687.5 63.1Q687.3 63.4 687.3 63.9ZM695.4 70.7L693.5 70.7L693.5 60.9L695.4 60.9L695.4 62.1L695.5 62.1Q695.6 61.8 695.9 61.5Q696.1 61.2 696.5 61.0Q696.9 60.8 697.5 60.8L697.5 60.8Q698.3 60.8 698.9 61.2Q699.6 61.6 700.0 62.4Q700.4 63.3 700.4 64.5L700.4 64.5Q700.4 65.6 700.0 66.5Q699.6 67.3 699.0 67.7Q698.3 68.1 697.5 68.1L697.5 68.1Q696.9 68.1 696.5 67.9Q696.1 67.7 695.9 67.4Q695.6 67.1 695.5 66.9L695.5 66.9L695.4 66.9L695.4 70.7ZM696.9 66.6L696.9 66.6Q697.4 66.6 697.7 66.3Q698.1 66.0 698.2 65.6Q698.4 65.1 698.4 64.5L698.4 64.5Q698.4 63.8 698.2 63.4Q698.1 62.9 697.7 62.6Q697.4 62.3 696.9 62.3L696.9 62.3Q696.4 62.3 696.1 62.6Q695.7 62.9 695.5 63.3Q695.4 63.8 695.4 64.5L695.4 64.5Q695.4 65.1 695.6 65.6Q695.7 66.1 696.1 66.3Q696.4 66.6 696.9 66.6ZM703.9 60.9L705.2 60.9L705.2 62.4L703.9 62.4L703.9 65.9Q703.9 66.3 704.1 66.4Q704.2 66.6 704.5 66.6L704.5 66.6Q704.7 66.6 704.9 66.6Q705.1 66.5 705.2 66.5L705.2 66.5L705.4 67.9Q705.1 68.0 704.8 68.1Q704.5 68.1 704.2 68.1L704.2 68.1Q703.1 68.1 702.6 67.6Q702.0 67.1 702.0 66.1L702.0 66.1L702.0 62.4L701.0 62.4L701.0 60.9L702.0 60.9L702.0 59.2L703.9 59.2L703.9 60.9ZM709.7 68.1L709.7 68.1Q708.6 68.1 707.8 67.7Q707.0 67.3 706.6 66.4Q706.2 65.6 706.2 64.5L706.2 64.5Q706.2 63.4 706.6 62.6Q707.0 61.7 707.8 61.3Q708.5 60.8 709.6 60.8L709.6 60.8Q710.3 60.8 710.9 61.0Q711.5 61.3 711.9 61.7Q712.4 62.2 712.7 62.8Q712.9 63.5 712.9 64.4L712.9 64.4L712.9 64.9L708.1 64.9Q708.1 65.5 708.3 65.9L708.3 65.9Q708.5 66.3 708.8 66.5Q709.2 66.7 709.7 66.7L709.7 66.7Q710.0 66.7 710.3 66.6Q710.6 66.5 710.8 66.3Q711.0 66.1 711.1 65.9L711.1 65.9L712.8 66.2Q712.6 66.8 712.2 67.2Q711.8 67.7 711.1 67.9Q710.5 68.1 709.7 68.1ZM708.1 63.8L708.1 63.8L711.1 63.8Q711.0 63.4 710.9 63.1L710.9 63.1Q710.8 62.7 710.4 62.5Q710.1 62.2 709.6 62.2L709.6 62.2Q709.1 62.2 708.8 62.5Q708.4 62.7 708.2 63.1L708.2 63.1Q708.1 63.4 708.1 63.8ZM714.2 58.5L716.1 58.5L716.1 68L714.2 68L714.2 58.5ZM719.1 68.1L719.1 68.1Q718.6 68.1 718.3 67.8Q718.0 67.5 718.0 67.0L718.0 67.0Q718.0 66.6 718.3 66.3Q718.6 65.9 719.1 65.9L719.1 65.9Q719.6 65.9 719.9 66.3Q720.2 66.6 720.2 67.0L720.2 67.0Q720.2 67.5 719.9 67.8Q719.6 68.1 719.1 68.1ZM724.1 68.1L724.1 68.1Q723.4 68.1 722.8 67.9Q722.3 67.7 722.0 67.2Q721.7 66.7 721.7 66.0L721.7 66.0Q721.7 65.4 721.9 65.0Q722.1 64.6 722.5 64.4Q722.9 64.1 723.4 64.0Q723.8 63.9 724.4 63.8L724.4 63.8Q725.0 63.8 725.4 63.7Q725.7 63.7 725.9 63.5Q726.1 63.4 726.1 63.2L726.1 63.2L726.1 63.2Q726.1 62.9 726.0 62.7Q725.8 62.4 725.6 62.3Q725.3 62.2 725.0 62.2L725.0 62.2Q724.6 62.2 724.3 62.3Q724.1 62.4 723.9 62.6Q723.7 62.8 723.6 63.0L723.6 63.0L721.9 62.8Q722.1 62.1 722.5 61.7Q722.9 61.3 723.6 61.0Q724.2 60.8 725.0 60.8L725.0 60.8Q725.6 60.8 726.1 61.0Q726.6 61.1 727.1 61.4Q727.5 61.7 727.7 62.1Q728.0 62.6 728.0 63.2L728.0 63.2L728.0 68L726.2 68L726.2 67.0L726.1 67.0Q726.0 67.3 725.7 67.6Q725.4 67.8 725.0 68.0Q724.6 68.1 724.1 68.1ZM724.6 66.8L724.6 66.8Q725.0 66.8 725.4 66.6Q725.7 66.4 725.9 66.1Q726.1 65.8 726.1 65.5L726.1 65.5L726.1 64.7Q726.0 64.8 725.9 64.8Q725.7 64.9 725.5 64.9Q725.3 64.9 725.1 65.0Q724.9 65.0 724.7 65.0L724.7 65.0Q724.3 65.1 724.1 65.2Q723.8 65.3 723.7 65.5Q723.5 65.7 723.5 66.0L723.5 66.0Q723.5 66.2 723.7 66.4Q723.8 66.6 724.0 66.7Q724.3 66.8 724.6 66.8ZM732.8 68.1L732.8 68.1Q731.7 68.1 730.9 67.7Q730.2 67.2 729.7 66.4Q729.3 65.6 729.3 64.5L729.3 64.5Q729.3 63.4 729.7 62.6Q730.2 61.7 730.9 61.3Q731.7 60.8 732.8 60.8L732.8 60.8Q733.4 60.8 734.0 61.0Q734.5 61.1 734.9 61.4Q735.3 61.8 735.6 62.2Q735.9 62.6 736.0 63.2L736.0 63.2L734.2 63.5Q734.1 63.2 734.0 63.0Q733.9 62.8 733.7 62.6Q733.5 62.5 733.3 62.4Q733.1 62.3 732.8 62.3L732.8 62.3Q732.3 62.3 732.0 62.6Q731.6 62.9 731.4 63.3Q731.3 63.8 731.3 64.5L731.3 64.5Q731.3 65.1 731.4 65.6Q731.6 66.1 732.0 66.4Q732.3 66.6 732.8 66.6L732.8 66.6Q733.1 66.6 733.3 66.6Q733.5 66.5 733.7 66.3Q733.9 66.1 734.0 65.9Q734.1 65.7 734.2 65.4L734.2 65.4L736.0 65.7Q735.9 66.3 735.6 66.7Q735.3 67.2 734.9 67.5Q734.5 67.8 734.0 68.0Q733.4 68.1 732.8 68.1ZM738.6 68.1L738.6 68.1Q738.2 68.1 737.8 67.8Q737.5 67.5 737.5 67.0L737.5 67.0Q737.5 66.6 737.8 66.3Q738.2 65.9 738.6 65.9L738.6 65.9Q739.1 65.9 739.4 66.3Q739.7 66.6 739.7 67.0L739.7 67.0Q739.7 67.5 739.4 67.8Q739.1 68.1 738.6 68.1ZM743.5 68L741.6 68L741.6 60.9L743.5 60.9L743.5 68ZM742.6 60.0L742.6 60.0Q742.1 60.0 741.8 59.7Q741.5 59.4 741.5 59.0L741.5 59.0Q741.5 58.6 741.8 58.3Q742.1 58.0 742.6 58.0L742.6 58.0Q743.0 58.0 743.3 58.3Q743.6 58.6 743.6 59.0L743.6 59.0Q743.6 59.4 743.3 59.7Q743.0 60.0 742.6 60.0ZM747.0 63.9L747.0 63.9L747.0 68L745.1 68L745.1 60.9L746.9 60.9L747.0 62.4Q747.2 61.7 747.7 61.3L747.7 61.3Q748.3 60.8 749.2 60.8L749.2 60.8Q749.9 60.8 750.5 61.1Q751.0 61.5 751.3 62.1Q751.6 62.7 751.6 63.5L751.6 63.5L751.6 68L749.7 68L749.7 63.8Q749.7 63.2 749.4 62.8Q749.0 62.4 748.4 62.4L748.4 62.4Q748.0 62.4 747.7 62.6Q747.4 62.8 747.2 63.1Q747.0 63.4 747.0 63.9Z "/></g><defs><clipPath id="satori_bc-id-2-2-0-1" clip-path="url(#satori_cp-id)"><path x="760" y="54" width="50" height="18" d="M769,54 h32 a9,9 0 0 1 9,9 v0 a9,9 0 0 1 -9,9 h-32 a9,9 0 0 1 -9,-9 v0 a9,9 0 0 1 9,-9"/></clipPath></defs><mask id="satori_om-id-2-2-0-1"><rect x="761" y="55" width="48" height="16" fill="#fff" mask="url(#satori_om-id)"/><path width="50" height="18" fill="none" stroke="#000" stroke-width="2" d="M762.636,56.636 A9,9 0 0 1 769,54 h32 a9,9 0 0 1 9,9 v0 a9,9 0 0 1 -9,9 h-32 a9,9 0 0 1 -9,-9 v0 A9,9 0 0 1 762.636,56.636"/></mask><path x="760" y="54" width="50" height="18" fill="#e34c2622" d="M769,54 h32 a9,9 0 0 1 9,9 v0 a9,9 0 0 1 -9,9 h-32 a9,9 0 0 1 -9,-9 v0 a9,9 0 0 1 9,-9" clip-path="url(#satori_cp-id)" mask="url(#satori_om-id)"/><path width="50" height="18" clip-path="url(#satori_bc-id-2-2-0-1)" fill="none" stroke="#e34c2655" stroke-width="2" d="M762.636,56.636 A9,9 0 0 1 769,54 h32 a9,9 0 0 1 9,9 v0 a9,9 0 0 1 -9,9 h-32 a9,9 0 0 1 -9,-9 v0 A9,9 0 0 1 762.636,56.636"/><g mask="url(#satori_om-id)" clip-path="url(#satori_cp-id)"><path fill="#e34c26" d="M772.1 67L770.7 67L770.7 59.7L772.1 59.7L772.1 62.7L775.3 62.7L775.3 59.7L776.8 59.7L776.8 67L775.3 67L775.3 63.9L772.1 63.9L772.1 67ZM780.1 61.0L777.8 61.0L777.8 59.7L783.8 59.7L783.8 61.0L781.6 61.0L781.6 67L780.1 67L780.1 61.0ZM786.3 67L784.8 67L784.8 59.7L787.1 59.7L788.3 63.1Q788.3 63.3 788.4 63.7Q788.5 64.0 788.6 64.5L788.6 64.5Q788.7 64.9 788.8 65.3L788.8 65.3Q788.9 64.9 789.0 64.5L789.0 64.5Q789.1 64.1 789.2 63.7Q789.3 63.3 789.4 63.1L789.4 63.1L790.5 59.7L792.8 59.7L792.8 67L791.3 67L791.3 63.6Q791.3 63.3 791.3 63.0Q791.3 62.6 791.3 62.2Q791.3 61.8 791.4 61.4L791.4 61.4Q791.4 61.2 791.4 61.0L791.4 61.0Q791.3 61.2 791.3 61.4L791.3 61.4Q791.1 61.9 791.0 62.3Q790.9 62.7 790.8 63.0Q790.7 63.3 790.6 63.6L790.6 63.6L789.4 67L788.2 67L787.0 63.6Q786.9 63.3 786.8 63.0Q786.7 62.7 786.6 62.3Q786.4 61.9 786.3 61.4L786.3 61.4Q786.3 61.2 786.2 61.1L786.2 61.1Q786.2 61.2 786.2 61.4L786.2 61.4Q786.2 61.8 786.3 62.2Q786.3 62.6 786.3 63.0Q786.3 63.3 786.3 63.6L786.3 63.6L786.3 67ZM798.8 67L794.1 67L794.1 59.7L795.6 59.7L795.6 65.8L798.8 65.8L798.8 67Z "/></g><mask id="satori_om-id-2-2-1"><rect x="590" y="78" width="220" height="17" fill="#fff" mask="url(#satori_om-id)"/></mask><g mask="url(#satori_om-id)" clip-path="url(#satori_cp-id)"><path fill="rgba(180,170,220,0.6)" d="M592.0 90L591.0 90L591.0 82.0L592.2 82.0L595.4 87.1Q595.6 87.3 595.7 87.6Q595.9 87.9 596.1 88.3L596.1 88.3Q596.3 88.5 596.4 88.8L596.4 88.8Q596.3 88.5 596.3 88.3L596.3 88.3Q596.3 87.9 596.3 87.5Q596.3 87.2 596.3 86.9L596.3 86.9L596.3 82.0L597.3 82.0L597.3 90L596.1 90L593.2 85.4Q593.0 85.1 592.8 84.8Q592.6 84.5 592.3 84.0L592.3 84.0Q592.2 83.7 591.9 83.2L591.9 83.2Q591.9 83.6 591.9 84.0L591.9 84.0Q592.0 84.5 592.0 84.8Q592.0 85.2 592.0 85.4L592.0 85.4L592.0 90ZM601.6 90.1L601.6 90.1Q600.8 90.1 600.1 89.7Q599.5 89.4 599.2 88.7Q598.8 88.0 598.8 87.0L598.8 87.0Q598.8 86.1 599.2 85.4Q599.5 84.7 600.1 84.3Q600.8 83.9 601.6 83.9L601.6 83.9Q602.4 83.9 603.0 84.3Q603.6 84.7 604.0 85.4Q604.3 86.1 604.3 87.0L604.3 87.0Q604.3 88.0 604.0 88.7Q603.6 89.4 603.0 89.7Q602.4 90.1 601.6 90.1ZM601.6 89.3L601.6 89.3Q602.2 89.3 602.6 89.0Q603.0 88.6 603.2 88.1Q603.3 87.6 603.3 87.0L603.3 87.0Q603.3 86.4 603.2 85.9Q603.0 85.4 602.6 85.1Q602.2 84.8 601.6 84.8L601.6 84.8Q601.0 84.8 600.6 85.1Q600.2 85.4 600.0 85.9Q599.8 86.4 599.8 87.0L599.8 87.0Q599.8 87.6 600.0 88.1Q600.2 88.6 600.6 89.0Q601.0 89.3 601.6 89.3Z M611.1 90.1L611.1 90.1Q610.3 90.1 609.8 89.7Q609.2 89.4 608.9 88.7Q608.5 88.0 608.5 87.0L608.5 87.0Q608.5 86.1 608.9 85.4Q609.2 84.7 609.8 84.3Q610.3 83.9 611.1 83.9L611.1 83.9Q611.7 83.9 612.0 84.1Q612.4 84.3 612.5 84.6Q612.7 84.8 612.8 85.0L612.8 85.0L612.9 85.0L612.9 82.0L613.9 82.0L613.9 90L612.9 90L612.9 89.1L612.8 89.1Q612.7 89.2 612.5 89.5Q612.3 89.7 612.0 89.9Q611.7 90.1 611.1 90.1ZM611.2 89.3L611.2 89.3Q611.8 89.3 612.1 89.0Q612.5 88.7 612.7 88.2Q612.9 87.7 612.9 87.0L612.9 87.0Q612.9 86.3 612.7 85.8Q612.5 85.3 612.2 85.1Q611.8 84.8 611.2 84.8L611.2 84.8Q610.7 84.8 610.3 85.1Q609.9 85.4 609.7 85.9Q609.5 86.4 609.5 87.0L609.5 87.0Q609.5 87.6 609.7 88.1Q609.9 88.7 610.3 89.0Q610.7 89.3 611.2 89.3ZM618.1 90.1L618.1 90.1Q617.2 90.1 616.6 89.7Q616.0 89.4 615.6 88.7Q615.3 88.0 615.3 87.0Q615.3 86.1 615.6 85.4Q615.9 84.7 616.5 84.3Q617.2 83.9 618.0 83.9L618.0 83.9Q618.5 83.9 618.9 84.1Q619.4 84.2 619.8 84.6Q620.1 84.9 620.4 85.5Q620.6 86.1 620.6 86.9L620.6 86.9L620.6 87.3L616.2 87.3Q616.3 87.9 616.5 88.3L616.5 88.3Q616.7 88.8 617.1 89.0Q617.5 89.3 618.1 89.3L618.1 89.3Q618.4 89.3 618.7 89.2Q619.0 89.1 619.2 88.9Q619.4 88.7 619.6 88.3L619.6 88.3L620.5 88.6Q620.4 89.1 620.0 89.4Q619.7 89.7 619.2 89.9Q618.7 90.1 618.1 90.1ZM616.3 86.5L616.3 86.5L619.6 86.5Q619.6 86.1 619.4 85.8L619.4 85.8Q619.2 85.3 618.9 85.0Q618.5 84.8 618.0 84.8Q617.4 84.8 617.0 85.0Q616.7 85.3 616.5 85.7L616.5 85.7Q616.3 86.1 616.3 86.5ZM624.0 90.1L624.0 90.1Q623.4 90.1 622.9 89.9Q622.4 89.8 622.1 89.4Q621.8 89.1 621.7 88.5L621.7 88.5L622.6 88.3Q622.8 88.8 623.1 89.0Q623.5 89.3 624.0 89.3L624.0 89.3Q624.6 89.3 625.0 89.0Q625.4 88.7 625.4 88.4L625.4 88.4Q625.4 88.1 625.2 87.9Q624.9 87.6 624.5 87.5L624.5 87.5L623.5 87.3Q622.7 87.1 622.3 86.7Q621.9 86.3 621.9 85.7L621.9 85.7Q621.9 85.2 622.2 84.8Q622.5 84.4 623.0 84.1Q623.5 83.9 624.1 83.9L624.1 83.9Q624.7 83.9 625.2 84.1Q625.6 84.3 625.9 84.6Q626.1 84.9 626.3 85.4L626.3 85.4L625.4 85.6Q625.3 85.3 625.0 85.0Q624.7 84.7 624.1 84.7L624.1 84.7Q623.6 84.7 623.2 85.0Q622.9 85.2 622.9 85.6L622.9 85.6Q622.9 85.9 623.1 86.1Q623.3 86.3 623.9 86.5L623.9 86.5L624.8 86.7Q625.6 86.9 626.0 87.3Q626.4 87.7 626.4 88.3L626.4 88.3Q626.4 88.8 626.1 89.2Q625.8 89.7 625.3 89.9Q624.7 90.1 624.0 90.1ZM630.2 90.1L630.2 90.1Q629.4 90.1 628.8 89.7Q628.2 89.4 627.8 88.7Q627.5 88.0 627.5 87.0L627.5 87.0Q627.5 86.1 627.8 85.4Q628.2 84.7 628.8 84.3Q629.4 83.9 630.2 83.9L630.2 83.9Q630.7 83.9 631.0 84.0Q631.4 84.1 631.8 84.4Q632.1 84.6 632.3 84.9Q632.5 85.2 632.7 85.6L632.7 85.6L631.7 85.8Q631.7 85.6 631.5 85.4Q631.4 85.2 631.2 85.1Q631.0 84.9 630.8 84.9Q630.5 84.8 630.2 84.8L630.2 84.8Q629.6 84.8 629.2 85.1Q628.8 85.4 628.7 85.9Q628.5 86.4 628.5 87.0L628.5 87.0Q628.5 87.6 628.7 88.1Q628.8 88.6 629.2 89.0Q629.6 89.3 630.2 89.3L630.2 89.3Q630.5 89.3 630.8 89.2Q631.0 89.1 631.2 89.0Q631.4 88.8 631.6 88.6Q631.7 88.4 631.8 88.2L631.8 88.2L632.7 88.4Q632.6 88.8 632.3 89.1Q632.1 89.5 631.8 89.7Q631.4 89.9 631.1 90.0Q630.7 90.1 630.2 90.1ZM635.0 90L634.1 90L634.1 84.0L635.0 84.0L635.0 84.9L635.1 84.9Q635.2 84.5 635.7 84.2Q636.1 83.9 636.6 83.9L636.6 83.9Q636.7 83.9 636.9 83.9Q637.0 83.9 637.1 83.9L637.1 83.9L637.1 84.9Q637.1 84.9 636.9 84.9Q636.7 84.8 636.5 84.8L636.5 84.8Q636.1 84.8 635.8 85.0Q635.4 85.2 635.2 85.5Q635.0 85.8 635.0 86.2L635.0 86.2L635.0 90ZM639.2 90L638.2 90L638.2 84.0L639.2 84.0L639.2 90ZM638.7 83.0L638.7 83.0Q638.4 83.0 638.2 82.8Q638.0 82.6 638.0 82.4L638.0 82.4Q638.0 82.1 638.2 81.9Q638.4 81.7 638.7 81.7L638.7 81.7Q639.0 81.7 639.2 81.9Q639.4 82.1 639.4 82.4L639.4 82.4Q639.4 82.6 639.2 82.8Q639.0 83.0 638.7 83.0ZM641.8 92.2L640.9 92.2L640.9 84.0L641.8 84.0L641.8 85.0L641.9 85.0Q642.0 84.8 642.2 84.6Q642.4 84.3 642.7 84.1Q643.1 83.9 643.7 83.9L643.7 83.9Q644.4 83.9 645.0 84.3Q645.5 84.7 645.9 85.4Q646.2 86.1 646.2 87.0L646.2 87.0Q646.2 88.0 645.9 88.7Q645.6 89.4 645.0 89.7Q644.4 90.1 643.7 90.1L643.7 90.1Q643.1 90.1 642.7 89.9Q642.4 89.7 642.2 89.5Q642.0 89.2 641.9 89.1L641.9 89.1L641.8 89.1L641.8 92.2ZM643.5 89.3L643.5 89.3Q644.1 89.3 644.5 89.0Q644.8 88.7 645.0 88.1Q645.2 87.6 645.2 87.0L645.2 87.0Q645.2 86.4 645.0 85.9Q644.8 85.4 644.5 85.1Q644.1 84.8 643.5 84.8L643.5 84.8Q643.0 84.8 642.6 85.1Q642.2 85.3 642.0 85.8Q641.8 86.3 641.8 87.0L641.8 87.0Q641.8 87.7 642.0 88.2Q642.2 88.7 642.6 89.0Q643.0 89.3 643.5 89.3ZM648.7 84.0L650.0 84.0L650.0 84.8L648.7 84.8L648.7 88.4Q648.7 88.8 648.9 89.0Q649.1 89.2 649.4 89.2L649.4 89.2Q649.5 89.2 649.7 89.2Q649.8 89.2 649.9 89.2L649.9 89.2L650.1 90.0Q650.0 90.0 649.8 90.0Q649.6 90.1 649.4 90.1L649.4 90.1Q648.6 90.1 648.2 89.7Q647.8 89.3 647.8 88.5L647.8 88.5L647.8 84.8L646.9 84.8L646.9 84.0L647.8 84.0L647.8 82.6L648.7 82.6L648.7 84.0ZM652.2 90L651.2 90L651.2 84.0L652.2 84.0L652.2 90ZM651.7 83.0L651.7 83.0Q651.4 83.0 651.2 82.8Q651.0 82.6 651.0 82.4L651.0 82.4Q651.0 82.1 651.2 81.9Q651.4 81.7 651.7 81.7L651.7 81.7Q652.0 81.7 652.2 81.9Q652.4 82.1 652.4 82.4L652.4 82.4Q652.4 82.6 652.2 82.8Q652.0 83.0 651.7 83.0ZM656.3 90.1L656.3 90.1Q655.5 90.1 654.9 89.7Q654.3 89.4 653.9 88.7Q653.6 88.0 653.6 87.0L653.6 87.0Q653.6 86.1 653.9 85.4Q654.3 84.7 654.9 84.3Q655.5 83.9 656.3 83.9L656.3 83.9Q657.1 83.9 657.8 84.3Q658.4 84.7 658.7 85.4Q659.1 86.1 659.1 87.0L659.1 87.0Q659.1 88.0 658.7 88.7Q658.4 89.4 657.8 89.7Q657.1 90.1 656.3 90.1ZM656.3 89.3L656.3 89.3Q656.9 89.3 657.3 89.0Q657.7 88.6 657.9 88.1Q658.1 87.6 658.1 87.0L658.1 87.0Q658.1 86.4 657.9 85.9Q657.7 85.4 657.3 85.1Q656.9 84.8 656.3 84.8L656.3 84.8Q655.7 84.8 655.3 85.1Q654.9 85.4 654.7 85.9Q654.6 86.4 654.6 87.0L654.6 87.0Q654.6 87.6 654.7 88.1Q654.9 88.6 655.3 89.0Q655.7 89.3 656.3 89.3ZM661.4 86.4L661.4 86.4L661.4 90L660.5 90L660.5 84.0L661.4 84.0L661.4 85.1Q661.7 84.5 662.0 84.3L662.0 84.3Q662.6 83.9 663.2 83.9L663.2 83.9Q663.8 83.9 664.3 84.2Q664.8 84.4 665.0 84.9Q665.3 85.4 665.3 86.2L665.3 86.2L665.3 90L664.3 90L664.3 86.3Q664.3 85.6 663.9 85.2Q663.6 84.8 662.9 84.8L662.9 84.8Q662.5 84.8 662.2 85.0Q661.8 85.2 661.6 85.5Q661.4 85.9 661.4 86.4Z M671.0 92.2L670.1 92.2L670.1 84.0L671.0 84.0L671.0 85.0L671.1 85.0Q671.2 84.8 671.4 84.6Q671.6 84.3 671.9 84.1Q672.3 83.9 672.8 83.9L672.8 83.9Q673.6 83.9 674.2 84.3Q674.7 84.7 675.1 85.4Q675.4 86.1 675.4 87.0L675.4 87.0Q675.4 88.0 675.1 88.7Q674.7 89.4 674.2 89.7Q673.6 90.1 672.8 90.1L672.8 90.1Q672.3 90.1 671.9 89.9Q671.6 89.7 671.4 89.5Q671.2 89.2 671.1 89.1L671.1 89.1L671.0 89.1L671.0 92.2ZM672.7 89.3L672.7 89.3Q673.3 89.3 673.6 89.0Q674.0 88.7 674.2 88.1Q674.4 87.6 674.4 87.0L674.4 87.0Q674.4 86.4 674.2 85.9Q674.0 85.4 673.6 85.1Q673.3 84.8 672.7 84.8L672.7 84.8Q672.1 84.8 671.8 85.1Q671.4 85.3 671.2 85.8Q671.0 86.3 671.0 87.0L671.0 87.0Q671.0 87.7 671.2 88.2Q671.4 88.7 671.8 89.0Q672.2 89.3 672.7 89.3ZM677.8 90L676.8 90L676.8 84.0L677.7 84.0L677.7 84.9L677.8 84.9Q678.0 84.5 678.4 84.2Q678.8 83.9 679.3 83.9L679.3 83.9Q679.5 83.9 679.6 83.9Q679.8 83.9 679.8 83.9L679.8 83.9L679.8 84.9Q679.8 84.9 679.6 84.9Q679.5 84.8 679.3 84.8L679.3 84.8Q678.8 84.8 678.5 85.0Q678.1 85.2 678.0 85.5Q677.8 85.8 677.8 86.2L677.8 86.2L677.8 90ZM683.4 90.1L683.4 90.1Q682.6 90.1 681.9 89.7Q681.3 89.4 681.0 88.7Q680.6 88.0 680.6 87.0L680.6 87.0Q680.6 86.1 681.0 85.4Q681.3 84.7 681.9 84.3Q682.6 83.9 683.4 83.9L683.4 83.9Q684.2 83.9 684.8 84.3Q685.4 84.7 685.8 85.4Q686.1 86.1 686.1 87.0L686.1 87.0Q686.1 88.0 685.8 88.7Q685.4 89.4 684.8 89.7Q684.2 90.1 683.4 90.1ZM683.4 89.3L683.4 89.3Q684.0 89.3 684.4 89.0Q684.8 88.6 685.0 88.1Q685.1 87.6 685.1 87.0L685.1 87.0Q685.1 86.4 685.0 85.9Q684.8 85.4 684.4 85.1Q684.0 84.8 683.4 84.8L683.4 84.8Q682.8 84.8 682.4 85.1Q682.0 85.4 681.8 85.9Q681.6 86.4 681.6 87.0L681.6 87.0Q681.6 87.6 681.8 88.1Q682.0 88.6 682.4 89.0Q682.8 89.3 683.4 89.3ZM690.3 90L689.3 90L687.0 84.0L688.0 84.0L689.3 87.6Q689.5 88.1 689.7 88.7L689.7 88.7Q689.7 88.9 689.8 89.1L689.8 89.1Q689.8 88.9 689.9 88.7L689.9 88.7Q690.0 88.1 690.2 87.6L690.2 87.6L691.5 84.0L692.6 84.0L690.3 90ZM694.7 90L693.7 90L693.7 84.0L694.7 84.0L694.7 90ZM694.2 83.0L694.2 83.0Q693.9 83.0 693.7 82.8Q693.5 82.6 693.5 82.4L693.5 82.4Q693.5 82.1 693.7 81.9Q693.9 81.7 694.2 81.7L694.2 81.7Q694.5 81.7 694.7 81.9Q694.9 82.1 694.9 82.4L694.9 82.4Q694.9 82.6 694.7 82.8Q694.5 83.0 694.2 83.0ZM698.6 90.1L698.6 90.1Q697.9 90.1 697.3 89.7Q696.7 89.4 696.4 88.7Q696.1 88.0 696.1 87.0L696.1 87.0Q696.1 86.1 696.4 85.4Q696.7 84.7 697.3 84.3Q697.9 83.9 698.6 83.9L698.6 83.9Q699.2 83.9 699.6 84.1Q699.9 84.3 700.1 84.6Q700.3 84.8 700.4 85.0L700.4 85.0L700.4 85.0L700.4 82.0L701.4 82.0L701.4 90L700.5 90L700.5 89.1L700.4 89.1Q700.3 89.2 700.1 89.5Q699.9 89.7 699.5 89.9Q699.2 90.1 698.6 90.1ZM698.8 89.3L698.8 89.3Q699.3 89.3 699.7 89.0Q700.1 88.7 700.3 88.2Q700.5 87.7 700.5 87.0L700.5 87.0Q700.5 86.3 700.3 85.8Q700.1 85.3 699.7 85.1Q699.3 84.8 698.8 84.8L698.8 84.8Q698.2 84.8 697.8 85.1Q697.4 85.4 697.3 85.9Q697.1 86.4 697.1 87.0L697.1 87.0Q697.1 87.6 697.3 88.1Q697.4 88.7 697.8 89.0Q698.2 89.3 698.8 89.3ZM705.6 90.1L705.6 90.1Q704.8 90.1 704.1 89.7Q703.5 89.4 703.2 88.7Q702.8 88.0 702.8 87.0Q702.8 86.1 703.2 85.4Q703.5 84.7 704.1 84.3Q704.7 83.9 705.5 83.9L705.5 83.9Q706.0 83.9 706.5 84.1Q706.9 84.2 707.3 84.6Q707.7 84.9 707.9 85.5Q708.1 86.1 708.1 86.9L708.1 86.9L708.1 87.3L703.8 87.3Q703.8 87.9 704.0 88.3L704.0 88.3Q704.3 88.8 704.7 89.0Q705.1 89.3 705.6 89.3L705.6 89.3Q706.0 89.3 706.3 89.2Q706.6 89.1 706.8 88.9Q707.0 88.7 707.1 88.3L707.1 88.3L708.0 88.6Q707.9 89.1 707.6 89.4Q707.2 89.7 706.7 89.9Q706.3 90.1 705.6 90.1ZM703.8 86.5L703.8 86.5L707.2 86.5Q707.1 86.1 707.0 85.8L707.0 85.8Q706.8 85.3 706.4 85.0Q706.1 84.8 705.5 84.8Q705.0 84.8 704.6 85.0Q704.2 85.3 704.0 85.7L704.0 85.7Q703.8 86.1 703.8 86.5ZM711.8 90.1L711.8 90.1Q711.0 90.1 710.5 89.7Q709.9 89.4 709.6 88.7Q709.2 88.0 709.2 87.0L709.2 87.0Q709.2 86.1 709.6 85.4Q709.9 84.7 710.5 84.3Q711.0 83.9 711.8 83.9L711.8 83.9Q712.4 83.9 712.7 84.1Q713.1 84.3 713.2 84.6Q713.4 84.8 713.5 85.0L713.5 85.0L713.6 85.0L713.6 82.0L714.6 82.0L714.6 90L713.6 90L713.6 89.1L713.5 89.1Q713.4 89.2 713.2 89.5Q713.0 89.7 712.7 89.9Q712.3 90.1 711.8 90.1ZM711.9 89.3L711.9 89.3Q712.5 89.3 712.8 89.0Q713.2 88.7 713.4 88.2Q713.6 87.7 713.6 87.0L713.6 87.0Q713.6 86.3 713.4 85.8Q713.2 85.3 712.8 85.1Q712.5 84.8 711.9 84.8L711.9 84.8Q711.3 84.8 711.0 85.1Q710.6 85.4 710.4 85.9Q710.2 86.4 710.2 87.0L710.2 87.0Q710.2 87.6 710.4 88.1Q710.6 88.7 711.0 89.0Q711.4 89.3 711.9 89.3ZM717.0 90.1L717.0 90.1Q716.7 90.1 716.5 89.9Q716.3 89.6 716.3 89.3L716.3 89.3Q716.3 89.0 716.5 88.8Q716.7 88.6 717.0 88.6L717.0 88.6Q717.3 88.6 717.5 88.8Q717.7 89.0 717.7 89.3L717.7 89.3Q717.7 89.6 717.5 89.9Q717.3 90.1 717.0 90.1Z "/></g></svg>