<!-- Generated by readme-aura https://github.com/collectioneur/readme-aura -->
<svg width="860" height="140" viewBox="0 0 860 140" xmlns="http://www.w3.org/2000/svg"><defs><clipPath id="satori_bc-id"><path x="0" y="0" width="860" height="140" d="M16,0 h828 a16,16 0 0 1 16,16 v108 a16,16 0 0 1 -16,16 h-828 a16,16 0 0 1 -16,-16 v-108 a16,16 0 0 1 16,-16"/></clipPath></defs><clipPath id="satori_cp-id"><path x="0" y="0" width="860" height="140" d="M16,0 h828 a16,16 0 0 1 16,16 v108 a16,16 0 0 1 -16,16 h-828 a16,16 0 0 1 -16,-16 v-108 a16,16 0 0 1 16,-16"/></clipPath><mask id="satori_om-id"><rect x="1" y="1" width="858" height="138" fill="#fff"/><path width="860" height="140" fill="none" stroke="#000" stroke-width="2" d="M4.686,4.686 A16,16 0 0 1 16,0 h828 a16,16 0 0 1 16,16 v108 a16,16 0 0 1 -16,16 h-828 a16,16 0 0 1 -16,-16 v-108 A16,16 0 0 1 4.686,4.686"/></mask><path x="0" y="0" width="860" height="140" fill="#08080c" d="M16,0 h828 a16,16 0 0 1 16,16 v108 a16,16 0 0 1 -16,16 h-828 a16,16 0 0 1 -16,-16 v-108 a16,16 0 0 1 16,-16"/><path width="860" height="140" clip-path="url(#satori_bc-id)" fill="none" stroke="rgba(110,80,220,0.18)" stroke-width="2" d="M4.686,4.686 A16,16 0 0 1 16,0 h828 a16,16 0 0 1 16,16 v108 a16,16 0 0 1 -16,16 h-828 a16,16 0 0 1 -16,-16 v-108 A16,16 0 0 1 4.686,4.686"/><clipPath id="satori_cp-id-0" clip-path="url(#satori_cp-id)"><rect x="1" y="1" width="860" height="140"/></clipPath><mask id="satori_om-id-0"><rect x="1" y="1" width="860" height="140" fill="#fff" mask="url(#satori_om-id)"/></mask><svg x="1" y="1" width="860" height="140" preserveAspectRatio="none" clip-path="url(#satori_cp-id-0)" mask="url(#satori_om-id-0)"><defs><radialGradient id="g1" cx="50%" cy="50%" r="50%"><stop offset="0%" stop-color="rgba(110,20,210,0.65)"></stop><stop offset="45%" stop-color="rgba(80,15,170,0.28)"></stop><stop offset="70%" stop-color="rgba(80,15,170,0)"></stop></radialGradient><radialGradient id="g2" cx="50%" cy="50%" r="50%"><stop offset="0%" stop-color="rgba(40,70,255,0.55)"></stop><stop offset="45%" stop-color="rgba(20,50,200,0.22)"></stop><stop offset="70%" stop-color="rgba(20,50,200,0)"></stop></radialGradient><radialGradient id="g3" cx="50%" cy="50%" r="50%"><stop offset="0%" stop-color="rgba(0,140,255,0.42)"></stop><stop offset="70%" stop-color="rgba(0,140,255,0)"></stop></radialGradient><radialGradient id="g4" cx="50%" cy="50%" r="50%"><stop offset="0%" stop-color="rgba(0,195,235,0.30)"></stop><stop offset="70%" stop-color="rgba(0,195,235,0)"></stop></radialGradient><radialGradient id="g5" cx="50%" cy="50%" r="50%"><stop offset="0%" stop-color="rgba(100,30,210,0.40)"></stop><stop offset="70%" stop-color="rgba(100,30,210,0)"></stop></radialGradient></defs><ellipse id="glow-1" cx="710" cy="150" rx="210" ry="150" fill="url(#g1)"></ellipse><ellipse id="glow-2" cx="550" cy="140" rx="190" ry="140" fill="url(#g2)"></ellipse><ellipse id="glow-3" cx="400" cy="130" rx="170" ry="130" fill="url(#g3)"></ellipse><ellipse id="glow-4" cx="250" cy="140" rx="150" ry="120" fill="url(#g4)"></ellipse><ellipse id="glow-5" cx="100" cy="150" rx="130" ry="110" fill="url(#g5)"></ellipse><style>

         @keyframes float-slow {
           0%, 100% { transform: translateX(0px); opacity: 0.8; }
           50% { transform: translateX(350px); opacity: 1.2; }
         }
         @keyframes float-medium {
           0%, 100% { transform: translateX(0px); opacity: 0.7; }
           50% { transform: translateX(-250px); opacity: 1.1; }
         }
         @keyframes float-fast {
           0%, 100% { transform: translateX(0px); opacity: 0.9; }
           50% { transform: translateX(200px); opacity: 0.6; }
         }
         @keyframes float-diagonal {
           0%, 100% { transform: translate(0px, 0px); opacity: 0.75; }
           50% { transform: translate(120px, 30px); opacity: 1.0; }
         }
         @keyframes float-wave {
           0%, 100% { transform: translateX(0px); opacity: 0.65; }
           33% { transform: translateX(-160px); opacity: 0.9; }
           66% { transform: translateX(80px); opacity: 1.0; }
         }
         @keyframes float-pulse {
           0%, 100% { transform: scale(1); opacity: 0.8; }
           50% { transform: scale(1.3); opacity: 0.4; }
         }
         #glow-1 { animation: float-slow 8s ease-in-out infinite; }
         #glow-2 { animation: float-medium 12s ease-in-out infinite; }
         #glow-3 { animation: float-fast 9s ease-in-out infinite; }
         #glow-4 { animation: float-diagonal 10s ease-in-out infinite; }
         #glow-5 { animation: float-wave 14s ease-in-out infinite; }
       
</style>
</svg><mask id="satori_om-id-0-0"><rect x="1" y="1" width="0" height="140" fill="#fff" mask="url(#satori_om-id)"/></mask><mask id="satori_om-id-0-0-0"><rect x="1" y="1" width="0" height="140" fill="#fff" mask="url(#satori_om-id)"/></mask><mask id="satori_om-id-0-0-0-0"><rect x="1" y="1" width="0" height="140" fill="#fff" mask="url(#satori_om-id)"/></mask><mask id="satori_om-id-0-0-0-1"><rect x="1" y="1" width="0" height="140" fill="#fff" mask="url(#satori_om-id)"/></mask><mask id="satori_om-id-0-0-0-2"><rect x="1" y="1" width="0" height="140" fill="#fff" mask="url(#satori_om-id)"/></mask><mask id="satori_om-id-0-0-1"><rect x="1" y="1" width="0" height="140" fill="#fff" mask="url(#satori_om-id)"/></mask><mask id="satori_om-id-0-0-1-0"><rect x="1" y="1" width="0" height="140" fill="#fff" mask="url(#satori_om-id)"/></mask><mask id="satori_om-id-0-0-1-1"><rect x="1" y="1" width="0" height="140" fill="#fff" mask="url(#satori_om-id)"/></mask><mask id="satori_om-id-0-0-1-2"><rect x="1" y="1" width="0" height="140" fill="#fff" mask="url(#satori_om-id)"/></mask><mask id="satori_om-id-0-0-2"><rect x="1" y="1" width="0" height="140" fill="#fff" mask="url(#satori_om-id)"/></mask><mask id="satori_om-id-0-0-2-0"><rect x="1" y="1" width="0" height="140" fill="#fff" mask="url(#satori_om-id)"/></mask><mask id="satori_om-id-0-0-2-1"><rect x="1" y="1" width="0" height="140" fill="#fff" mask="url(#satori_om-id)"/></mask><mask id="satori_om-id-0-0-3"><rect x="1" y="1" width="0" height="140" fill="#fff" mask="url(#satori_om-id)"/></mask><mask id="satori_om-id-0-0-3-0"><rect x="1" y="1" width="0" height="140" fill="#fff" mask="url(#satori_om-id)"/></mask><mask id="satori_om-id-0-0-3-1"><rect x="1" y="1" width="0" height="140" fill="#fff" mask="url(#satori_om-id)"/></mask><mask id="satori_om-id-0-0-4"><rect x="1" y="1" width="0" height="140" fill="#fff" mask="url(#satori_om-id)"/></mask><mask id="satori_om-id-0-0-4-0"><rect x="1" y="1" width="0" height="140" fill="#fff" mask="url(#satori_om-id)"/></mask><mask id="satori_om-id-0-0-4-1"><rect x="1" y="1" width="0" height="140" fill="#fff" mask="url(#satori_om-id)"/></mask><mask id="satori_om-id-0-1"><rect x="1" y="1" width="0" height="140" fill="#fff" mask="url(#satori_om-id)"/></mask><mask id="satori_om-id-0-2"><rect x="1" y="1" width="0" height="140" fill="#fff" mask="url(#satori_om-id)"/></mask><mask id="satori_om-id-0-3"><rect x="1" y="1" width="0" height="140" fill="#fff" mask="url(#satori_om-id)"/></mask><mask id="satori_om-id-0-4"><rect x="1" y="1" width="0" height="140" fill="#fff" mask="url(#satori_om-id)"/></mask><mask id="satori_om-id-0-5"><rect x="1" y="1" width="0" height="140" fill="#fff" mask="url(#satori_om-id)"/></mask><defs><clipPath id="satori_bc-id-1" clip-path="url(#satori_cp-id)"><rect x="1" y="30" width="270" height="80"/></clipPath></defs><mask id="satori_om-id-1"><rect x="1" y="30" width="269" height="80" fill="#fff" mask="url(#satori_om-id)"/><path width="270" height="80" fill="none" stroke="#000" stroke-width="2" d="M271,30 A0,0 0 0 1 271,30 v80 A0,0 0 0 1 271,110"/></mask><path width="270" height="80" clip-path="url(#satori_bc-id-1)" fill="none" stroke="rgba(255,255,255,0.06)" stroke-width="2" d="M271,30 A0,0 0 0 1 271,30 v80 A0,0 0 0 1 271,110"/><mask id="satori_om-id-1-0"><rect x="119" y="46" width="33" height="30" fill="#fff" mask="url(#satori_om-id)"/></mask><g mask="url(#satori_om-id)" clip-path="url(#satori_cp-id)"><path fill="#a78bfa" d="M125.2 50.2L130.0 50.2L130.0 72L125.5 72L125.5 54.1L125.4 54.1L120.4 57.7L120.4 53.6L125.2 50.2ZM142.0 72.3L142.0 72.3Q140.3 72.3 138.7 71.7Q137.2 71.2 136.0 69.9Q134.7 68.7 134.0 66.7Q133.3 64.6 133.3 61.6L133.3 61.6Q133.3 58.8 133.9 56.7Q134.5 54.5 135.7 53.0Q136.9 51.5 138.5 50.7Q140.1 49.9 142.1 49.9L142.1 49.9Q144.3 49.9 145.9 50.7Q147.6 51.6 148.6 53.0Q149.6 54.4 149.8 56.2L149.8 56.2L145.4 56.2Q145.1 55.1 144.3 54.4Q143.4 53.7 142.1 53.7L142.1 53.7Q140.7 53.7 139.7 54.6Q138.7 55.4 138.2 57.0Q137.7 58.6 137.7 60.7L137.7 60.7L137.9 60.7Q138.4 59.8 139.2 59.1Q140.0 58.4 141.1 58.0Q142.1 57.7 143.3 57.7L143.3 57.7Q145.3 57.7 146.8 58.6Q148.3 59.5 149.2 61.1Q150.1 62.7 150.1 64.7L150.1 64.7Q150.1 66.9 149.0 68.6Q148.0 70.3 146.2 71.3Q144.4 72.3 142.0 72.3ZM141.9 68.7L141.9 68.7Q143.0 68.7 143.9 68.2Q144.7 67.7 145.2 66.8Q145.7 65.9 145.7 64.8L145.7 64.8Q145.7 63.7 145.2 62.8Q144.7 62.0 143.9 61.4Q143.0 60.9 142.0 60.9L142.0 60.9Q141.1 60.9 140.5 61.2Q139.8 61.5 139.3 62.1Q138.7 62.6 138.4 63.3Q138.2 64.0 138.2 64.8L138.2 64.8Q138.2 65.9 138.6 66.8Q139.1 67.7 140.0 68.2Q140.8 68.7 141.9 68.7Z "/></g><mask id="satori_om-id-1-1"><rect x="113" y="81" width="45" height="13" fill="#fff" mask="url(#satori_om-id)"/></mask><g mask="url(#satori_om-id)" clip-path="url(#satori_cp-id)"><path fill="rgba(200,195,225,0.45)" d="M115.4 92L113.7 92L113.7 84.0L116.8 84.0Q117.8 84.0 118.4 84.3Q119.0 84.6 119.4 85.2Q119.7 85.8 119.7 86.6Q119.7 87.4 119.4 88.0Q119.0 88.5 118.4 88.8L118.4 88.8Q118.3 88.9 118.3 88.9L118.3 88.9L120.0 92L118.2 92L116.6 89.1L115.4 89.1L115.4 92ZM115.4 85.4L115.4 87.8L116.5 87.8Q117.0 87.8 117.4 87.7Q117.7 87.5 117.9 87.3Q118.0 87.0 118.0 86.6L118.0 86.6Q118.0 86.2 117.9 85.9Q117.7 85.6 117.4 85.5Q117.0 85.4 116.5 85.4L116.5 85.4L115.4 85.4ZM127.8 92L122.4 92L122.4 84.0L127.8 84.0L127.8 85.4L124.1 85.4L124.1 87.3L127.5 87.3L127.5 88.6L124.1 88.6L124.1 90.6L127.8 90.6L127.8 92ZM132.3 92L130.6 92L130.6 84.0L133.8 84.0Q134.7 84.0 135.3 84.3Q135.9 84.7 136.3 85.3Q136.6 85.9 136.6 86.7L136.6 86.7Q136.6 87.5 136.3 88.1Q135.9 88.7 135.3 89.0Q134.6 89.4 133.7 89.4L133.7 89.4L132.3 89.4L132.3 92ZM132.3 85.4L132.3 88.1L133.5 88.1Q134.0 88.1 134.3 87.9Q134.6 87.7 134.8 87.4Q134.9 87.1 134.9 86.7Q134.9 86.3 134.8 86.0Q134.6 85.7 134.3 85.5Q134.0 85.4 133.4 85.4L133.4 85.4L132.3 85.4ZM142.8 92.1L142.8 92.1Q141.7 92.1 140.9 91.6Q140.0 91.1 139.5 90.2Q139.0 89.3 139.0 88.0L139.0 88.0Q139.0 86.7 139.5 85.8Q140.0 84.9 140.9 84.4Q141.7 83.9 142.8 83.9L142.8 83.9Q143.8 83.9 144.7 84.4Q145.5 84.9 146.0 85.8Q146.5 86.7 146.5 88.0L146.5 88.0Q146.5 89.3 146.0 90.2Q145.5 91.1 144.7 91.6Q143.8 92.1 142.8 92.1ZM142.8 90.7L142.8 90.7Q143.4 90.7 143.9 90.3Q144.3 90.0 144.6 89.5Q144.8 88.9 144.8 88.0L144.8 88.0Q144.8 87.1 144.6 86.5Q144.3 86.0 143.9 85.6Q143.4 85.3 142.8 85.3L142.8 85.3Q142.2 85.3 141.7 85.7Q141.2 86.0 141.0 86.6Q140.7 87.1 140.7 88.0L140.7 88.0Q140.7 88.9 141.0 89.4Q141.2 90.0 141.7 90.3Q142.2 90.7 142.8 90.7ZM152.2 92.1L152.2 92.1Q151.2 92.1 150.5 91.8Q149.8 91.5 149.4 90.9Q149.0 90.4 149.0 89.5L149.0 89.5L150.6 89.5Q150.6 89.9 150.8 90.2Q151.0 90.5 151.4 90.6Q151.7 90.7 152.2 90.7L152.2 90.7Q152.6 90.7 152.9 90.6Q153.2 90.5 153.4 90.2Q153.6 90.0 153.6 89.7L153.6 89.7Q153.6 89.4 153.4 89.3Q153.3 89.1 153.0 88.9Q152.7 88.8 152.2 88.7L152.2 88.7L151.3 88.5Q150.3 88.2 149.8 87.7Q149.2 87.2 149.2 86.3L149.2 86.3Q149.2 85.6 149.6 85.0Q150.0 84.5 150.6 84.2Q151.3 83.9 152.2 83.9L152.2 83.9Q153.1 83.9 153.7 84.2Q154.4 84.5 154.8 85.0Q155.1 85.6 155.1 86.3L155.1 86.3L153.6 86.3Q153.5 85.8 153.2 85.5Q152.8 85.3 152.2 85.3L152.2 85.3Q151.8 85.3 151.5 85.4Q151.2 85.5 151.0 85.7Q150.9 85.9 150.9 86.2L150.9 86.2Q150.9 86.5 151.0 86.7Q151.2 86.9 151.5 87.0Q151.8 87.1 152.1 87.2L152.1 87.2L152.9 87.4Q153.4 87.5 153.8 87.7Q154.2 87.9 154.6 88.2Q154.9 88.4 155.1 88.8Q155.3 89.2 155.3 89.7L155.3 89.7Q155.3 90.4 154.9 91.0Q154.5 91.5 153.8 91.8Q153.1 92.1 152.2 92.1Z "/></g><defs><clipPath id="satori_bc-id-2" clip-path="url(#satori_cp-id)"><rect x="271" y="30" width="271" height="80"/></clipPath></defs><mask id="satori_om-id-2"><rect x="271" y="30" width="270" height="80" fill="#fff" mask="url(#satori_om-id)"/><path width="271" height="80" fill="none" stroke="#000" stroke-width="2" d="M542,30 A0,0 0 0 1 542,30 v80 A0,0 0 0 1 542,110"/></mask><path width="271" height="80" clip-path="url(#satori_bc-id-2)" fill="none" stroke="rgba(255,255,255,0.06)" stroke-width="2" d="M542,30 A0,0 0 0 1 542,30 v80 A0,0 0 0 1 542,110"/><mask id="satori_om-id-2-0"><rect x="395" y="46" width="21" height="30" fill="#fff" mask="url(#satori_om-id)"/></mask><g mask="url(#satori_om-id)" clip-path="url(#satori_cp-id)"><path fill="#60a5fa" d="M406.9 68.1L396.5 68.1L396.5 64.6L405.6 50.2L411.2 50.2L411.2 64.5L413.9 64.5L413.9 68.1L411.2 68.1L411.2 72L406.9 72L406.9 68.1ZM401.0 64.5L407.0 64.5L407.0 55.1L406.8 55.1L401.0 64.3L401.0 64.5Z "/></g><mask id="satori_om-id-2-1"><rect x="383" y="81" width="45" height="13" fill="#fff" mask="url(#satori_om-id)"/></mask><g mask="url(#satori_om-id)" clip-path="url(#satori_cp-id)"><path fill="rgba(200,195,225,0.45)" d="M386.7 92.1L386.7 92.1Q385.7 92.1 385.0 91.8Q384.3 91.5 383.9 90.9Q383.5 90.4 383.5 89.5L383.5 89.5L385.1 89.5Q385.1 89.9 385.3 90.2Q385.5 90.5 385.9 90.6Q386.2 90.7 386.6 90.7L386.6 90.7Q387.1 90.7 387.4 90.6Q387.7 90.5 387.9 90.2Q388.1 90.0 388.1 89.7L388.1 89.7Q388.1 89.4 387.9 89.3Q387.8 89.1 387.5 88.9Q387.2 88.8 386.7 88.7L386.7 88.7L385.8 88.5Q384.8 88.2 384.2 87.7Q383.7 87.2 383.7 86.3L383.7 86.3Q383.7 85.6 384.1 85.0Q384.5 84.5 385.1 84.2Q385.8 83.9 386.7 83.9L386.7 83.9Q387.6 83.9 388.2 84.2Q388.9 84.5 389.3 85.0Q389.6 85.6 389.6 86.3L389.6 86.3L388.1 86.3Q388.0 85.8 387.6 85.5Q387.3 85.3 386.7 85.3L386.7 85.3Q386.2 85.3 386.0 85.4Q385.7 85.5 385.5 85.7Q385.4 85.9 385.4 86.2L385.4 86.2Q385.4 86.5 385.5 86.7Q385.7 86.9 386.0 87.0Q386.3 87.1 386.6 87.2L386.6 87.2L387.4 87.4Q387.9 87.5 388.3 87.7Q388.7 87.9 389.1 88.2Q389.4 88.4 389.6 88.8Q389.7 89.2 389.7 89.7L389.7 89.7Q389.7 90.4 389.4 91.0Q389.0 91.5 388.3 91.8Q387.6 92.1 386.7 92.1ZM394.6 85.4L392.1 85.4L392.1 84.0L398.6 84.0L398.6 85.4L396.2 85.4L396.2 92L394.6 92L394.6 85.4ZM402.6 92L400.8 92L403.5 84.0L405.7 84.0L408.5 92L406.7 92L406.1 90.1L403.2 90.1L402.6 92ZM403.6 88.9L405.6 88.9L405.4 88.1Q405.2 87.4 404.9 86.5L404.9 86.5Q404.8 85.9 404.6 85.3L404.6 85.3Q404.4 85.9 404.3 86.5L404.3 86.5Q404.1 87.4 403.9 88.1L403.9 88.1L403.6 88.9ZM412.6 92L411.0 92L411.0 84.0L414.1 84.0Q415.0 84.0 415.7 84.3Q416.3 84.6 416.6 85.2Q417.0 85.8 417.0 86.6Q417.0 87.4 416.6 88.0Q416.3 88.5 415.6 88.8L415.6 88.8Q415.6 88.9 415.5 88.9L415.5 88.9L417.3 92L415.4 92L413.9 89.1L412.6 89.1L412.6 92ZM412.6 85.4L412.6 87.8L413.8 87.8Q414.3 87.8 414.6 87.7Q415.0 87.5 415.1 87.3Q415.3 87.0 415.3 86.6L415.3 86.6Q415.3 86.2 415.1 85.9Q415.0 85.6 414.6 85.5Q414.3 85.4 413.8 85.4L413.8 85.4L412.6 85.4ZM422.6 92.1L422.6 92.1Q421.7 92.1 421.0 91.8Q420.3 91.5 419.9 90.9Q419.5 90.4 419.4 89.5L419.4 89.5L421.0 89.5Q421.1 89.9 421.3 90.2Q421.5 90.5 421.8 90.6Q422.2 90.7 422.6 90.7L422.6 90.7Q423.1 90.7 423.4 90.6Q423.7 90.5 423.9 90.2Q424.1 90.0 424.1 89.7L424.1 89.7Q424.1 89.4 423.9 89.3Q423.8 89.1 423.4 88.9Q423.1 88.8 422.7 88.7L422.7 88.7L421.8 88.5Q420.8 88.2 420.2 87.7Q419.7 87.2 419.7 86.3L419.7 86.3Q419.7 85.6 420.0 85.0Q420.4 84.5 421.1 84.2Q421.8 83.9 422.7 83.9L422.7 83.9Q423.5 83.9 424.2 84.2Q424.9 84.5 425.2 85.0Q425.6 85.6 425.6 86.3L425.6 86.3L424.0 86.3Q424.0 85.8 423.6 85.5Q423.3 85.3 422.6 85.3L422.6 85.3Q422.2 85.3 421.9 85.4Q421.6 85.5 421.5 85.7Q421.3 85.9 421.3 86.2L421.3 86.2Q421.3 86.5 421.5 86.7Q421.7 86.9 422.0 87.0Q422.3 87.1 422.6 87.2L422.6 87.2L423.3 87.4Q423.8 87.5 424.3 87.7Q424.7 87.9 425.0 88.2Q425.4 88.4 425.5 88.8Q425.7 89.2 425.7 89.7L425.7 89.7Q425.7 90.4 425.4 91.0Q425.0 91.5 424.3 91.8Q423.6 92.1 422.6 92.1Z "/></g><mask id="satori_om-id-3"><rect x="542" y="30" width="317" height="80" fill="#fff" mask="url(#satori_om-id)"/></mask><mask id="satori_om-id-3-0"><rect x="654" y="46" width="93" height="30" fill="#fff" mask="url(#satori_om-id)"/></mask><g mask="url(#satori_om-id)" clip-path="url(#satori_cp-id)"><path fill="#f59e0b" d="M671.3 72L655.8 72L655.8 68.8L663.6 61.5Q664.5 60.6 665.2 59.8Q665.9 59.0 666.3 58.2Q666.6 57.5 666.6 56.6L666.6 56.6Q666.6 55.6 666.2 54.9Q665.7 54.2 665.0 53.8Q664.2 53.5 663.2 53.5L663.2 53.5Q662.2 53.5 661.5 53.9Q660.7 54.3 660.3 55.0Q659.9 55.8 659.9 56.9L659.9 56.9L655.6 56.9Q655.6 54.7 656.6 53.2Q657.6 51.6 659.3 50.7Q661.0 49.9 663.3 49.9L663.3 49.9Q665.6 49.9 667.3 50.7Q669.0 51.5 670.0 53.0Q671.0 54.4 671.0 56.3L671.0 56.3Q671.0 57.5 670.5 58.7Q670.0 59.9 668.8 61.4Q667.6 62.9 665.3 64.9L665.3 64.9L662.0 68.2L662.0 68.3L671.3 68.3L671.3 72ZM682.1 72.3L682.1 72.3Q679.9 72.3 678.1 71.5Q676.4 70.6 675.3 69.2Q674.3 67.7 674.3 65.9L674.3 65.9L678.6 65.9Q678.7 66.7 679.1 67.4Q679.6 68.0 680.4 68.4Q681.2 68.7 682.1 68.7L682.1 68.7Q683.2 68.7 684.0 68.3Q684.9 67.8 685.4 66.9Q685.8 66.0 685.8 64.9L685.8 64.9Q685.8 63.7 685.4 62.8Q684.9 61.9 684.0 61.4Q683.2 60.9 682.0 60.9L682.0 60.9Q681.0 60.9 680.1 61.3Q679.2 61.7 678.7 62.3L678.7 62.3L674.7 61.6L675.8 50.2L689.0 50.2L689.0 53.9L679.5 53.9L678.9 59.4L679.0 59.4Q679.6 58.6 680.8 58.1Q681.9 57.6 683.3 57.6L683.3 57.6Q684.8 57.6 686.1 58.1Q687.3 58.6 688.2 59.6Q689.2 60.5 689.7 61.9Q690.2 63.2 690.2 64.7L690.2 64.7Q690.2 66.9 689.2 68.6Q688.1 70.3 686.3 71.3Q684.5 72.3 682.1 72.3ZM701.7 72.3L701.7 72.3Q698.9 72.3 697.0 71.0Q695.0 69.6 694.0 67.1Q692.9 64.6 692.9 61.1L692.9 61.1Q692.9 57.6 694.0 55.1Q695.0 52.5 697.0 51.2Q698.9 49.9 701.7 49.9L701.7 49.9Q704.4 49.9 706.4 51.2Q708.3 52.6 709.4 55.1Q710.4 57.6 710.4 61.1L710.4 61.1Q710.4 64.6 709.4 67.1Q708.3 69.6 706.4 71.0Q704.4 72.3 701.7 72.3ZM701.7 68.6L701.7 68.6Q703.0 68.6 703.9 67.7Q704.9 66.8 705.4 65.2Q705.9 63.5 705.9 61.1L705.9 61.1Q705.9 58.7 705.4 57.0Q704.9 55.3 703.9 54.5Q703.0 53.6 701.7 53.6L701.7 53.6Q700.3 53.6 699.4 54.5Q698.5 55.3 698.0 57.0Q697.5 58.7 697.5 61.1L697.5 61.1Q697.5 63.5 698.0 65.2Q698.5 66.8 699.4 67.7Q700.3 68.6 701.7 68.6ZM718.4 72L713.8 72L722.9 54.0L722.9 53.9L712.3 53.9L712.3 50.2L727.5 50.2L727.5 53.9L718.4 72ZM736.5 72L731.8 72L740.9 54.0L740.9 53.9L730.3 53.9L730.3 50.2L745.6 50.2L745.6 53.9L736.5 72Z "/></g><mask id="satori_om-id-3-1"><rect x="668" y="81" width="66" height="13" fill="#fff" mask="url(#satori_om-id)"/></mask><g mask="url(#satori_om-id)" clip-path="url(#satori_cp-id)"><path fill="rgba(200,195,225,0.45)" d="M672.2 92.1L672.2 92.1Q671.2 92.1 670.3 91.6Q669.5 91.1 669.0 90.2Q668.5 89.3 668.5 88.0L668.5 88.0Q668.5 86.7 669.0 85.8Q669.5 84.9 670.3 84.4Q671.2 83.9 672.2 83.9L672.2 83.9Q672.9 83.9 673.5 84.1Q674.1 84.3 674.5 84.6Q675.0 85.0 675.3 85.5Q675.6 86.1 675.7 86.7L675.7 86.7L674.0 86.7Q674.0 86.4 673.8 86.1Q673.6 85.9 673.4 85.7Q673.2 85.5 672.9 85.4Q672.6 85.3 672.3 85.3L672.3 85.3Q671.6 85.3 671.2 85.7Q670.7 86.0 670.4 86.6Q670.2 87.2 670.2 88.0L670.2 88.0Q670.2 88.9 670.4 89.5Q670.7 90.1 671.2 90.4Q671.6 90.7 672.2 90.7L672.2 90.7Q672.6 90.7 672.9 90.6Q673.2 90.5 673.4 90.3Q673.6 90.1 673.8 89.8Q674.0 89.6 674.0 89.3L674.0 89.3L675.7 89.3Q675.6 89.8 675.3 90.3Q675.1 90.8 674.6 91.2Q674.2 91.6 673.6 91.9Q673.0 92.1 672.2 92.1ZM681.9 92.1L681.9 92.1Q680.8 92.1 680.0 91.6Q679.1 91.1 678.6 90.2Q678.1 89.3 678.1 88.0L678.1 88.0Q678.1 86.7 678.6 85.8Q679.1 84.9 680.0 84.4Q680.8 83.9 681.9 83.9L681.9 83.9Q682.9 83.9 683.8 84.4Q684.6 84.9 685.1 85.8Q685.6 86.7 685.6 88.0L685.6 88.0Q685.6 89.3 685.1 90.2Q684.6 91.1 683.8 91.6Q682.9 92.1 681.9 92.1ZM681.9 90.7L681.9 90.7Q682.5 90.7 683.0 90.3Q683.4 90.0 683.7 89.5Q683.9 88.9 683.9 88.0L683.9 88.0Q683.9 87.1 683.7 86.5Q683.4 86.0 683.0 85.6Q682.5 85.3 681.9 85.3L681.9 85.3Q681.3 85.3 680.8 85.7Q680.3 86.0 680.1 86.6Q679.8 87.1 679.8 88.0L679.8 88.0Q679.8 88.9 680.1 89.4Q680.3 90.0 680.8 90.3Q681.3 90.7 681.9 90.7ZM690.0 92L688.3 92L688.3 84.0L690.9 84.0L692.2 87.7Q692.2 87.9 692.3 88.3Q692.4 88.7 692.5 89.2L692.5 89.2Q692.7 89.7 692.7 90.1L692.7 90.1Q692.8 89.7 692.9 89.2L692.9 89.2Q693.0 88.8 693.2 88.3Q693.3 87.9 693.3 87.7L693.3 87.7L694.6 84.0L697.1 84.0L697.1 92L695.5 92L695.5 88.2Q695.5 88.0 695.5 87.6Q695.5 87.2 695.5 86.7Q695.5 86.3 695.5 85.8L695.5 85.8Q695.6 85.6 695.6 85.4L695.6 85.4Q695.5 85.6 695.4 85.9L695.4 85.9Q695.3 86.3 695.2 86.8Q695.1 87.2 694.9 87.6Q694.8 88.0 694.8 88.2L694.8 88.2L693.4 92L692.0 92L690.7 88.2Q690.6 88.0 690.5 87.6Q690.4 87.2 690.3 86.8Q690.1 86.4 690.0 85.9L690.0 85.9Q690.0 85.7 689.9 85.5L689.9 85.5Q689.9 85.6 689.9 85.8L689.9 85.8Q689.9 86.2 689.9 86.7Q689.9 87.2 690.0 87.6Q690.0 88.0 690.0 88.2L690.0 88.2L690.0 92ZM701.7 92L700.1 92L700.1 84.0L702.6 84.0L703.9 87.7Q704.0 87.9 704.1 88.3Q704.2 88.7 704.3 89.2L704.3 89.2Q704.4 89.7 704.5 90.1L704.5 90.1Q704.6 89.7 704.7 89.2L704.7 89.2Q704.8 88.8 704.9 88.3Q705.0 87.9 705.1 87.7L705.1 87.7L706.4 84.0L708.9 84.0L708.9 92L707.2 92L707.2 88.2Q707.2 88.0 707.2 87.6Q707.3 87.2 707.3 86.7Q707.3 86.3 707.3 85.8L707.3 85.8Q707.3 85.6 707.3 85.4L707.3 85.4Q707.2 85.6 707.2 85.9L707.2 85.9Q707.1 86.3 706.9 86.8Q706.8 87.2 706.7 87.6Q706.6 88.0 706.5 88.2L706.5 88.2L705.2 92L703.8 92L702.4 88.2Q702.4 88.0 702.3 87.6Q702.1 87.2 702.0 86.8Q701.9 86.4 701.8 85.9L701.8 85.9Q701.7 85.7 701.7 85.5L701.7 85.5Q701.7 85.6 701.7 85.8L701.7 85.8Q701.7 86.2 701.7 86.7Q701.7 87.2 701.7 87.6Q701.7 88.0 701.7 88.2L701.7 88.2L701.7 92ZM711.8 84.0L713.5 84.0L713.5 92L711.8 92L711.8 84.0ZM718.5 85.4L716.1 85.4L716.1 84.0L722.6 84.0L722.6 85.4L720.2 85.4L720.2 92L718.5 92L718.5 85.4ZM728.2 92.1L728.2 92.1Q727.2 92.1 726.5 91.8Q725.8 91.5 725.4 90.9Q725.0 90.4 725.0 89.5L725.0 89.5L726.6 89.5Q726.6 89.9 726.8 90.2Q727.0 90.5 727.4 90.6Q727.7 90.7 728.2 90.7L728.2 90.7Q728.6 90.7 728.9 90.6Q729.3 90.5 729.5 90.2Q729.6 90.0 729.6 89.7L729.6 89.7Q729.6 89.4 729.5 89.3Q729.3 89.1 729.0 88.9Q728.7 88.8 728.3 88.7L728.3 88.7L727.4 88.5Q726.4 88.2 725.8 87.7Q725.2 87.2 725.2 86.3L725.2 86.3Q725.2 85.6 725.6 85.0Q726.0 84.5 726.7 84.2Q727.3 83.9 728.2 83.9L728.2 83.9Q729.1 83.9 729.8 84.2Q730.4 84.5 730.8 85.0Q731.2 85.6 731.2 86.3L731.2 86.3L729.6 86.3Q729.6 85.8 729.2 85.5Q728.8 85.3 728.2 85.3L728.2 85.3Q727.8 85.3 727.5 85.4Q727.2 85.5 727.0 85.7Q726.9 85.9 726.9 86.2L726.9 86.2Q726.9 86.5 727.1 86.7Q727.2 86.9 727.5 87.0Q727.8 87.1 728.2 87.2L728.2 87.2L728.9 87.4Q729.4 87.5 729.8 87.7Q730.3 87.9 730.6 88.2Q730.9 88.4 731.1 88.8Q731.3 89.2 731.3 89.7L731.3 89.7Q731.3 90.4 730.9 91.0Q730.6 91.5 729.9 91.8Q729.2 92.1 728.2 92.1Z "/></g></svg>