<!-- Generated by readme-aura https://github.com/collectioneur/readme-aura -->
<svg width="860" height="140" viewBox="0 0 860 140" xmlns="http://www.w3.org/2000/svg"><defs><clipPath id="satori_bc-id"><path x="0" y="0" width="860" height="140" d="M16,0 h828 a16,16 0 0 1 16,16 v108 a16,16 0 0 1 -16,16 h-828 a16,16 0 0 1 -16,-16 v-108 a16,16 0 0 1 16,-16"/></clipPath></defs><clipPath id="satori_cp-id"><path x="0" y="0" width="860" height="140" d="M16,0 h828 a16,16 0 0 1 16,16 v108 a16,16 0 0 1 -16,16 h-828 a16,16 0 0 1 -16,-16 v-108 a16,16 0 0 1 16,-16"/></clipPath><mask id="satori_om-id"><rect x="1" y="1" width="858" height="138" fill="#fff"/><path width="860" height="140" fill="none" stroke="#000" stroke-width="2" d="M4.686,4.686 A16,16 0 0 1 16,0 h828 a16,16 0 0 1 16,16 v108 a16,16 0 0 1 -16,16 h-828 a16,16 0 0 1 -16,-16 v-108 A16,16 0 0 1 4.686,4.686"/></mask><path x="0" y="0" width="860" height="140" fill="#08080c" d="M16,0 h828 a16,16 0 0 1 16,16 v108 a16,16 0 0 1 -16,16 h-828 a16,16 0 0 1 -16,-16 v-108 a16,16 0 0 1 16,-16"/><path width="860" height="140" clip-path="url(#satori_bc-id)" fill="none" stroke="rgba(110,80,220,0.18)" stroke-width="2" d="M4.686,4.686 A16,16 0 0 1 16,0 h828 a16,16 0 0 1 16,16 v108 a16,16 0 0 1 -16,16 h-828 a16,16 0 0 1 -16,-16 v-108 A16,16 0 0 1 4.686,4.686"/><clipPath id="satori_cp-id-0" clip-path="url(#satori_cp-id)"><rect x="1" y="1" width="860" height="140"/></clipPath><mask id="satori_om-id-0"><rect x="1" y="1" width="860" height="140" fill="#fff" mask="url(#satori_om-id)"/></mask><svg x="1" y="1" width="860" height="140" preserveAspectRatio="none" clip-path="url(#satori_cp-id-0)" mask="url(#satori_om-id-0)"><defs><radialGradient id="g1" cx="50%" cy="50%" r="50%"><stop offset="0%" stop-color="rgba(110,20,210,0.65)"></stop><stop offset="45%" stop-color="rgba(80,15,170,0.28)"></stop><stop offset="70%" stop-color="rgba(80,15,170,0)"></stop></radialGradient><radialGradient id="g2" cx="50%" cy="50%" r="50%"><stop offset="0%" stop-color="rgba(40,70,255,0.55)"></stop><stop offset="45%" stop-color="rgba(20,50,200,0.22)"></stop><stop offset="70%" stop-color="rgba(20,50,200,0)"></stop></radialGradient><radialGradient id="g3" cx="50%" cy="50%" r="50%"><stop offset="0%" stop-color="rgba(0,140,255,0.42)"></stop><stop offset="70%" stop-color="rgba(0,140,255,0)"></stop></radialGradient><radialGradient id="g4" cx="50%" cy="50%" r="50%"><stop offset="0%" stop-color="rgba(0,195,235,0.30)"></stop><stop offset="70%" stop-color="rgba(0,195,235,0)"></stop></radialGradient><radialGradient id="g5" cx="50%" cy="50%" r="50%"><stop offset="0%" stop-color="rgba(100,30,210,0.40)"></stop><stop offset="70%" stop-color="rgba(100,30,210,0)"></stop></radialGradient></defs><ellipse id="glow-1" cx="710" cy="150" rx="210" ry="150" fill="url(#g1)"></ellipse><ellipse id="glow-2" cx="550" cy="140" rx="190" ry="140" fill="url(#g2)"></ellipse><ellipse id="glow-3" cx="400" cy="130" rx="170" ry="130" fill="url(#g3)"></ellipse><ellipse id="glow-4" cx="250" cy="140" rx="150" ry="120" fill="url(#g4)"></ellipse><ellipse id="glow-5" cx="100" cy="150" rx="130" ry="110" fill="url(#g5)"></ellipse><style>

         @keyframes float-slow {
           0%, 100% { transform: translateX(0px); opacity: 0.8; }
           50% { transform: translateX(350px); opacity: 1.2; }
         }
         @keyframes float-medium {
           0%, 100% { transform: translateX(0px); opacity: 0.7; }
           50% { transform: translateX(-250px); opacity: 1.1; }
         }
         @keyframes float-fast {
           0%, 100% { transform: translateX(0px); opacity: 0.9; }
           50% { transform: translateX(200px); opacity: 0.6; }
         }
         @keyframes float-diagonal {
           0%, 100% { transform: translate(0px, 0px); opacity: 0.75; }
           50% { transform: translate(120px, 30px); opacity: 1.0; }
         }
         @keyframes float-wave {
           0%, 100% { transform: translateX(0px); opacity: 0.65; }
           33% { transform: translateX(-160px); opacity: 0.9; }
           66% { transform: translateX(80px); opacity: 1.0; }
         }
         @keyframes float-pulse {
           0%, 100% { transform: scale(1); opacity: 0.8; }
           50% { transform: scale(1.3); opacity: 0.4; }
         }
         #glow-1 { animation: float-slow 8s ease-in-out infinite; }
         #glow-2 { animation: float-medium 12s ease-in-out infinite; }
         #glow-3 { animation: float-fast 9s ease-in-out infinite; }
         #glow-4 { animation: float-diagonal 10s ease-in-out infinite; }
         #glow-5 { animation: float-wave 14s ease-in-out infinite; }
       
</style>
</svg><mask id="satori_om-id-0-0"><rect x="1" y="1" width="0" height="140" fill="#fff" mask="url(#satori_om-id)"/></mask><mask id="satori_om-id-0-0-0"><rect x="1" y="1" width="0" height="140" fill="#fff" mask="url(#satori_om-id)"/></mask><mask id="satori_om-id-0-0-0-0"><rect x="1" y="1" width="0" height="140" fill="#fff" mask="url(#satori_om-id)"/></mask><mask id="satori_om-id-0-0-0-1"><rect x="1" y="1" width="0" height="140" fill="#fff" mask="url(#satori_om-id)"/></mask><mask id="satori_om-id-0-0-0-2"><rect x="1" y="1" width="0" height="140" fill="#fff" mask="url(#satori_om-id)"/></mask><mask id="satori_om-id-0-0-1"><rect x="1" y="1" width="0" height="140" fill="#fff" mask="url(#satori_om-id)"/></mask><mask id="satori_om-id-0-0-1-0"><rect x="1" y="1" width="0" height="140" fill="#fff" mask="url(#satori_om-id)"/></mask><mask id="satori_om-id-0-0-1-1"><rect x="1" y="1" width="0" height="140" fill="#fff" mask="url(#satori_om-id)"/></mask><mask id="satori_om-id-0-0-1-2"><rect x="1" y="1" width="0" height="140" fill="#fff" mask="url(#satori_om-id)"/></mask><mask id="satori_om-id-0-0-2"><rect x="1" y="1" width="0" height="140" fill="#fff" mask="url(#satori_om-id)"/></mask><mask id="satori_om-id-0-0-2-0"><rect x="1" y="1" width="0" height="140" fill="#fff" mask="url(#satori_om-id)"/></mask><mask id="satori_om-id-0-0-2-1"><rect x="1" y="1" width="0" height="140" fill="#fff" mask="url(#satori_om-id)"/></mask><mask id="satori_om-id-0-0-3"><rect x="1" y="1" width="0" height="140" fill="#fff" mask="url(#satori_om-id)"/></mask><mask id="satori_om-id-0-0-3-0"><rect x="1" y="1" width="0" height="140" fill="#fff" mask="url(#satori_om-id)"/></mask><mask id="satori_om-id-0-0-3-1"><rect x="1" y="1" width="0" height="140" fill="#fff" mask="url(#satori_om-id)"/></mask><mask id="satori_om-id-0-0-4"><rect x="1" y="1" width="0" height="140" fill="#fff" mask="url(#satori_om-id)"/></mask><mask id="satori_om-id-0-0-4-0"><rect x="1" y="1" width="0" height="140" fill="#fff" mask="url(#satori_om-id)"/></mask><mask id="satori_om-id-0-0-4-1"><rect x="1" y="1" width="0" height="140" fill="#fff" mask="url(#satori_om-id)"/></mask><mask id="satori_om-id-0-1"><rect x="1" y="1" width="0" height="140" fill="#fff" mask="url(#satori_om-id)"/></mask><mask id="satori_om-id-0-2"><rect x="1" y="1" width="0" height="140" fill="#fff" mask="url(#satori_om-id)"/></mask><mask id="satori_om-id-0-3"><rect x="1" y="1" width="0" height="140" fill="#fff" mask="url(#satori_om-id)"/></mask><mask id="satori_om-id-0-4"><rect x="1" y="1" width="0" height="140" fill="#fff" mask="url(#satori_om-id)"/></mask><mask id="satori_om-id-0-5"><rect x="1" y="1" width="0" height="140" fill="#fff" mask="url(#satori_om-id)"/></mask><defs><clipPath id="satori_bc-id-1" clip-path="url(#satori_cp-id)"><rect x="1" y="30" width="273" height="80"/></clipPath></defs><mask id="satori_om-id-1"><rect x="1" y="30" width="272" height="80" fill="#fff" mask="url(#satori_om-id)"/><path width="273" height="80" fill="none" stroke="#000" stroke-width="2" d="M274,30 A0,0 0 0 1 274,30 v80 A0,0 0 0 1 274,110"/></mask><path width="273" height="80" clip-path="url(#satori_bc-id-1)" fill="none" stroke="rgba(255,255,255,0.06)" stroke-width="2" d="M274,30 A0,0 0 0 1 274,30 v80 A0,0 0 0 1 274,110"/><mask id="satori_om-id-1-0"><rect x="121" y="46" width="33" height="30" fill="#fff" mask="url(#satori_om-id)"/></mask><g mask="url(#satori_om-id)" clip-path="url(#satori_cp-id)"><path fill="#a78bfa" d="M127.2 50.2L132.0 50.2L132.0 72L127.5 72L127.5 54.1L127.4 54.1L122.4 57.7L122.4 53.6L127.2 50.2ZM144.0 72.3L144.0 72.3Q142.3 72.3 140.7 71.7Q139.2 71.2 138.0 69.9Q136.7 68.7 136.0 66.7Q135.3 64.6 135.3 61.6L135.3 61.6Q135.3 58.8 135.9 56.7Q136.5 54.5 137.7 53.0Q138.9 51.5 140.5 50.7Q142.1 49.9 144.1 49.9L144.1 49.9Q146.3 49.9 147.9 50.7Q149.6 51.6 150.6 53.0Q151.6 54.4 151.8 56.2L151.8 56.2L147.4 56.2Q147.1 55.1 146.3 54.4Q145.4 53.7 144.1 53.7L144.1 53.7Q142.7 53.7 141.7 54.6Q140.7 55.4 140.2 57.0Q139.7 58.6 139.7 60.7L139.7 60.7L139.9 60.7Q140.4 59.8 141.2 59.1Q142.0 58.4 143.1 58.0Q144.1 57.7 145.3 57.7L145.3 57.7Q147.3 57.7 148.8 58.6Q150.3 59.5 151.2 61.1Q152.1 62.7 152.1 64.7L152.1 64.7Q152.1 66.9 151.0 68.6Q150.0 70.3 148.2 71.3Q146.4 72.3 144.0 72.3ZM143.9 68.7L143.9 68.7Q145.0 68.7 145.9 68.2Q146.7 67.7 147.2 66.8Q147.7 65.9 147.7 64.8L147.7 64.8Q147.7 63.7 147.2 62.8Q146.7 62.0 145.9 61.4Q145.0 60.9 144.0 60.9L144.0 60.9Q143.1 60.9 142.5 61.2Q141.8 61.5 141.3 62.1Q140.7 62.6 140.4 63.3Q140.2 64.0 140.2 64.8L140.2 64.8Q140.2 65.9 140.6 66.8Q141.1 67.7 142.0 68.2Q142.8 68.7 143.9 68.7Z "/></g><mask id="satori_om-id-1-1"><rect x="115" y="81" width="45" height="13" fill="#fff" mask="url(#satori_om-id)"/></mask><g mask="url(#satori_om-id)" clip-path="url(#satori_cp-id)"><path fill="rgba(200,195,225,0.45)" d="M117.4 92L115.7 92L115.7 84.0L118.8 84.0Q119.8 84.0 120.4 84.3Q121.0 84.6 121.4 85.2Q121.7 85.8 121.7 86.6Q121.7 87.4 121.4 88.0Q121.0 88.5 120.4 88.8L120.4 88.8Q120.3 88.9 120.3 88.9L120.3 88.9L122.0 92L120.2 92L118.6 89.1L117.4 89.1L117.4 92ZM117.4 85.4L117.4 87.8L118.5 87.8Q119.0 87.8 119.4 87.7Q119.7 87.5 119.9 87.3Q120.0 87.0 120.0 86.6L120.0 86.6Q120.0 86.2 119.9 85.9Q119.7 85.6 119.4 85.5Q119.0 85.4 118.5 85.4L118.5 85.4L117.4 85.4ZM129.8 92L124.4 92L124.4 84.0L129.8 84.0L129.8 85.4L126.1 85.4L126.1 87.3L129.5 87.3L129.5 88.6L126.1 88.6L126.1 90.6L129.8 90.6L129.8 92ZM134.3 92L132.6 92L132.6 84.0L135.8 84.0Q136.7 84.0 137.3 84.3Q137.9 84.7 138.3 85.3Q138.6 85.9 138.6 86.7L138.6 86.7Q138.6 87.5 138.3 88.1Q137.9 88.7 137.3 89.0Q136.6 89.4 135.7 89.4L135.7 89.4L134.3 89.4L134.3 92ZM134.3 85.4L134.3 88.1L135.5 88.1Q136.0 88.1 136.3 87.9Q136.6 87.7 136.8 87.4Q136.9 87.1 136.9 86.7Q136.9 86.3 136.8 86.0Q136.6 85.7 136.3 85.5Q136.0 85.4 135.4 85.4L135.4 85.4L134.3 85.4ZM144.8 92.1L144.8 92.1Q143.7 92.1 142.9 91.6Q142.0 91.1 141.5 90.2Q141.0 89.3 141.0 88.0L141.0 88.0Q141.0 86.7 141.5 85.8Q142.0 84.9 142.9 84.4Q143.7 83.9 144.8 83.9L144.8 83.9Q145.8 83.9 146.7 84.4Q147.5 84.9 148.0 85.8Q148.5 86.7 148.5 88.0L148.5 88.0Q148.5 89.3 148.0 90.2Q147.5 91.1 146.7 91.6Q145.8 92.1 144.8 92.1ZM144.8 90.7L144.8 90.7Q145.4 90.7 145.9 90.3Q146.3 90.0 146.6 89.5Q146.8 88.9 146.8 88.0L146.8 88.0Q146.8 87.1 146.6 86.5Q146.3 86.0 145.9 85.6Q145.4 85.3 144.8 85.3L144.8 85.3Q144.2 85.3 143.7 85.7Q143.2 86.0 143.0 86.6Q142.7 87.1 142.7 88.0L142.7 88.0Q142.7 88.9 143.0 89.4Q143.2 90.0 143.7 90.3Q144.2 90.7 144.8 90.7ZM154.2 92.1L154.2 92.1Q153.2 92.1 152.5 91.8Q151.8 91.5 151.4 90.9Q151.0 90.4 151.0 89.5L151.0 89.5L152.6 89.5Q152.6 89.9 152.8 90.2Q153.0 90.5 153.4 90.6Q153.7 90.7 154.2 90.7L154.2 90.7Q154.6 90.7 154.9 90.6Q155.2 90.5 155.4 90.2Q155.6 90.0 155.6 89.7L155.6 89.7Q155.6 89.4 155.4 89.3Q155.3 89.1 155.0 88.9Q154.7 88.8 154.2 88.7L154.2 88.7L153.3 88.5Q152.3 88.2 151.8 87.7Q151.2 87.2 151.2 86.3L151.2 86.3Q151.2 85.6 151.6 85.0Q152.0 84.5 152.6 84.2Q153.3 83.9 154.2 83.9L154.2 83.9Q155.1 83.9 155.7 84.2Q156.4 84.5 156.8 85.0Q157.1 85.6 157.1 86.3L157.1 86.3L155.6 86.3Q155.5 85.8 155.2 85.5Q154.8 85.3 154.2 85.3L154.2 85.3Q153.8 85.3 153.5 85.4Q153.2 85.5 153.0 85.7Q152.9 85.9 152.9 86.2L152.9 86.2Q152.9 86.5 153.0 86.7Q153.2 86.9 153.5 87.0Q153.8 87.1 154.1 87.2L154.1 87.2L154.9 87.4Q155.4 87.5 155.8 87.7Q156.2 87.9 156.6 88.2Q156.9 88.4 157.1 88.8Q157.3 89.2 157.3 89.7L157.3 89.7Q157.3 90.4 156.9 91.0Q156.5 91.5 155.8 91.8Q155.1 92.1 154.2 92.1Z "/></g><defs><clipPath id="satori_bc-id-2" clip-path="url(#satori_cp-id)"><rect x="274" y="30" width="274" height="80"/></clipPath></defs><mask id="satori_om-id-2"><rect x="274" y="30" width="273" height="80" fill="#fff" mask="url(#satori_om-id)"/><path width="274" height="80" fill="none" stroke="#000" stroke-width="2" d="M548,30 A0,0 0 0 1 548,30 v80 A0,0 0 0 1 548,110"/></mask><path width="274" height="80" clip-path="url(#satori_bc-id-2)" fill="none" stroke="rgba(255,255,255,0.06)" stroke-width="2" d="M548,30 A0,0 0 0 1 548,30 v80 A0,0 0 0 1 548,110"/><mask id="satori_om-id-2-0"><rect x="400" y="46" width="21" height="30" fill="#fff" mask="url(#satori_om-id)"/></mask><g mask="url(#satori_om-id)" clip-path="url(#satori_cp-id)"><path fill="#60a5fa" d="M411.9 68.1L401.5 68.1L401.5 64.6L410.6 50.2L416.2 50.2L416.2 64.5L418.9 64.5L418.9 68.1L416.2 68.1L416.2 72L411.9 72L411.9 68.1ZM406.0 64.5L412.0 64.5L412.0 55.1L411.8 55.1L406.0 64.3L406.0 64.5Z "/></g><mask id="satori_om-id-2-1"><rect x="388" y="81" width="45" height="13" fill="#fff" mask="url(#satori_om-id)"/></mask><g mask="url(#satori_om-id)" clip-path="url(#satori_cp-id)"><path fill="rgba(200,195,225,0.45)" d="M391.7 92.1L391.7 92.1Q390.7 92.1 390.0 91.8Q389.3 91.5 388.9 90.9Q388.5 90.4 388.5 89.5L388.5 89.5L390.1 89.5Q390.1 89.9 390.3 90.2Q390.5 90.5 390.9 90.6Q391.2 90.7 391.6 90.7L391.6 90.7Q392.1 90.7 392.4 90.6Q392.7 90.5 392.9 90.2Q393.1 90.0 393.1 89.7L393.1 89.7Q393.1 89.4 392.9 89.3Q392.8 89.1 392.5 88.9Q392.2 88.8 391.7 88.7L391.7 88.7L390.8 88.5Q389.8 88.2 389.2 87.7Q388.7 87.2 388.7 86.3L388.7 86.3Q388.7 85.6 389.1 85.0Q389.5 84.5 390.1 84.2Q390.8 83.9 391.7 83.9L391.7 83.9Q392.6 83.9 393.2 84.2Q393.9 84.5 394.3 85.0Q394.6 85.6 394.6 86.3L394.6 86.3L393.1 86.3Q393.0 85.8 392.6 85.5Q392.3 85.3 391.7 85.3L391.7 85.3Q391.2 85.3 391.0 85.4Q390.7 85.5 390.5 85.7Q390.4 85.9 390.4 86.2L390.4 86.2Q390.4 86.5 390.5 86.7Q390.7 86.9 391.0 87.0Q391.3 87.1 391.6 87.2L391.6 87.2L392.4 87.4Q392.9 87.5 393.3 87.7Q393.7 87.9 394.1 88.2Q394.4 88.4 394.6 88.8Q394.7 89.2 394.7 89.7L394.7 89.7Q394.7 90.4 394.4 91.0Q394.0 91.5 393.3 91.8Q392.6 92.1 391.7 92.1ZM399.6 85.4L397.1 85.4L397.1 84.0L403.6 84.0L403.6 85.4L401.2 85.4L401.2 92L399.6 92L399.6 85.4ZM407.6 92L405.8 92L408.5 84.0L410.7 84.0L413.5 92L411.7 92L411.1 90.1L408.2 90.1L407.6 92ZM408.6 88.9L410.6 88.9L410.4 88.1Q410.2 87.4 409.9 86.5L409.9 86.5Q409.8 85.9 409.6 85.3L409.6 85.3Q409.4 85.9 409.3 86.5L409.3 86.5Q409.1 87.4 408.9 88.1L408.9 88.1L408.6 88.9ZM417.6 92L416.0 92L416.0 84.0L419.1 84.0Q420.0 84.0 420.7 84.3Q421.3 84.6 421.6 85.2Q422.0 85.8 422.0 86.6Q422.0 87.4 421.6 88.0Q421.3 88.5 420.6 88.8L420.6 88.8Q420.6 88.9 420.5 88.9L420.5 88.9L422.3 92L420.4 92L418.9 89.1L417.6 89.1L417.6 92ZM417.6 85.4L417.6 87.8L418.8 87.8Q419.3 87.8 419.6 87.7Q420.0 87.5 420.1 87.3Q420.3 87.0 420.3 86.6L420.3 86.6Q420.3 86.2 420.1 85.9Q420.0 85.6 419.6 85.5Q419.3 85.4 418.8 85.4L418.8 85.4L417.6 85.4ZM427.6 92.1L427.6 92.1Q426.7 92.1 426.0 91.8Q425.3 91.5 424.9 90.9Q424.5 90.4 424.4 89.5L424.4 89.5L426.0 89.5Q426.1 89.9 426.3 90.2Q426.5 90.5 426.8 90.6Q427.2 90.7 427.6 90.7L427.6 90.7Q428.1 90.7 428.4 90.6Q428.7 90.5 428.9 90.2Q429.1 90.0 429.1 89.7L429.1 89.7Q429.1 89.4 428.9 89.3Q428.8 89.1 428.4 88.9Q428.1 88.8 427.7 88.7L427.7 88.7L426.8 88.5Q425.8 88.2 425.2 87.7Q424.7 87.2 424.7 86.3L424.7 86.3Q424.7 85.6 425.0 85.0Q425.4 84.5 426.1 84.2Q426.8 83.9 427.7 83.9L427.7 83.9Q428.5 83.9 429.2 84.2Q429.9 84.5 430.2 85.0Q430.6 85.6 430.6 86.3L430.6 86.3L429.0 86.3Q429.0 85.8 428.6 85.5Q428.3 85.3 427.6 85.3L427.6 85.3Q427.2 85.3 426.9 85.4Q426.6 85.5 426.5 85.7Q426.3 85.9 426.3 86.2L426.3 86.2Q426.3 86.5 426.5 86.7Q426.7 86.9 427.0 87.0Q427.3 87.1 427.6 87.2L427.6 87.2L428.3 87.4Q428.8 87.5 429.3 87.7Q429.7 87.9 430.0 88.2Q430.4 88.4 430.5 88.8Q430.7 89.2 430.7 89.7L430.7 89.7Q430.7 90.4 430.4 91.0Q430.0 91.5 429.3 91.8Q428.6 92.1 427.6 92.1Z "/></g><mask id="satori_om-id-3"><rect x="548" y="30" width="311" height="80" fill="#fff" mask="url(#satori_om-id)"/></mask><mask id="satori_om-id-3-0"><rect x="662" y="46" width="84" height="30" fill="#fff" mask="url(#satori_om-id)"/></mask><g mask="url(#satori_om-id)" clip-path="url(#satori_cp-id)"><path fill="#f59e0b" d="M679.3 72L663.8 72L663.8 68.8L671.6 61.5Q672.5 60.6 673.2 59.8Q673.9 59.0 674.3 58.2Q674.6 57.5 674.6 56.6L674.6 56.6Q674.6 55.6 674.2 54.9Q673.7 54.2 673.0 53.8Q672.2 53.5 671.2 53.5L671.2 53.5Q670.2 53.5 669.5 53.9Q668.7 54.3 668.3 55.0Q667.9 55.8 667.9 56.9L667.9 56.9L663.6 56.9Q663.6 54.7 664.6 53.2Q665.6 51.6 667.3 50.7Q669.0 49.9 671.3 49.9L671.3 49.9Q673.6 49.9 675.3 50.7Q677.0 51.5 678.0 53.0Q679.0 54.4 679.0 56.3L679.0 56.3Q679.0 57.5 678.5 58.7Q678.0 59.9 676.8 61.4Q675.6 62.9 673.3 64.9L673.3 64.9L670.0 68.2L670.0 68.3L679.3 68.3L679.3 72ZM690.1 72.3L690.1 72.3Q687.9 72.3 686.1 71.5Q684.4 70.6 683.3 69.2Q682.3 67.7 682.3 65.9L682.3 65.9L686.6 65.9Q686.7 66.7 687.1 67.4Q687.6 68.0 688.4 68.4Q689.2 68.7 690.1 68.7L690.1 68.7Q691.2 68.7 692.0 68.3Q692.9 67.8 693.4 66.9Q693.8 66.0 693.8 64.9L693.8 64.9Q693.8 63.7 693.4 62.8Q692.9 61.9 692.0 61.4Q691.2 60.9 690.0 60.9L690.0 60.9Q689.0 60.9 688.1 61.3Q687.2 61.7 686.7 62.3L686.7 62.3L682.7 61.6L683.8 50.2L697.0 50.2L697.0 53.9L687.5 53.9L686.9 59.4L687.0 59.4Q687.6 58.6 688.8 58.1Q689.9 57.6 691.3 57.6L691.3 57.6Q692.8 57.6 694.1 58.1Q695.3 58.6 696.2 59.6Q697.2 60.5 697.7 61.9Q698.2 63.2 698.2 64.7L698.2 64.7Q698.2 66.9 697.2 68.6Q696.1 70.3 694.3 71.3Q692.5 72.3 690.1 72.3ZM705.7 50.2L710.5 50.2L710.5 72L706.1 72L706.1 54.1L705.9 54.1L700.9 57.7L700.9 53.6L705.7 50.2ZM722.6 72.3L722.6 72.3Q719.8 72.3 717.9 71.0Q716.0 69.6 714.9 67.1Q713.9 64.6 713.9 61.1L713.9 61.1Q713.9 57.6 714.9 55.1Q716.0 52.5 717.9 51.2Q719.8 49.9 722.6 49.9L722.6 49.9Q725.4 49.9 727.3 51.2Q729.3 52.6 730.3 55.1Q731.3 57.6 731.3 61.1L731.3 61.1Q731.3 64.6 730.3 67.1Q729.3 69.6 727.3 71.0Q725.4 72.3 722.6 72.3ZM722.6 68.6L722.6 68.6Q723.9 68.6 724.9 67.7Q725.8 66.8 726.3 65.2Q726.8 63.5 726.8 61.1L726.8 61.1Q726.8 58.7 726.3 57.0Q725.8 55.3 724.9 54.5Q723.9 53.6 722.6 53.6L722.6 53.6Q721.3 53.6 720.3 54.5Q719.4 55.3 718.9 57.0Q718.4 58.7 718.4 61.1L718.4 61.1Q718.4 63.5 718.9 65.2Q719.4 66.8 720.3 67.7Q721.3 68.6 722.6 68.6ZM738.9 50.2L743.7 50.2L743.7 72L739.2 72L739.2 54.1L739.1 54.1L734.1 57.7L734.1 53.6L738.9 50.2Z "/></g><mask id="satori_om-id-3-1"><rect x="671" y="81" width="66" height="13" fill="#fff" mask="url(#satori_om-id)"/></mask><g mask="url(#satori_om-id)" clip-path="url(#satori_cp-id)"><path fill="rgba(200,195,225,0.45)" d="M675.2 92.1L675.2 92.1Q674.2 92.1 673.3 91.6Q672.5 91.1 672.0 90.2Q671.5 89.3 671.5 88.0L671.5 88.0Q671.5 86.7 672.0 85.8Q672.5 84.9 673.3 84.4Q674.2 83.9 675.2 83.9L675.2 83.9Q675.9 83.9 676.5 84.1Q677.1 84.3 677.5 84.6Q678.0 85.0 678.3 85.5Q678.6 86.1 678.7 86.7L678.7 86.7L677.0 86.7Q677.0 86.4 676.8 86.1Q676.6 85.9 676.4 85.7Q676.2 85.5 675.9 85.4Q675.6 85.3 675.3 85.3L675.3 85.3Q674.6 85.3 674.2 85.7Q673.7 86.0 673.4 86.6Q673.2 87.2 673.2 88.0L673.2 88.0Q673.2 88.9 673.4 89.5Q673.7 90.1 674.2 90.4Q674.6 90.7 675.2 90.7L675.2 90.7Q675.6 90.7 675.9 90.6Q676.2 90.5 676.4 90.3Q676.6 90.1 676.8 89.8Q677.0 89.6 677.0 89.3L677.0 89.3L678.7 89.3Q678.6 89.8 678.3 90.3Q678.1 90.8 677.6 91.2Q677.2 91.6 676.6 91.9Q676.0 92.1 675.2 92.1ZM684.9 92.1L684.9 92.1Q683.8 92.1 683.0 91.6Q682.1 91.1 681.6 90.2Q681.1 89.3 681.1 88.0L681.1 88.0Q681.1 86.7 681.6 85.8Q682.1 84.9 683.0 84.4Q683.8 83.9 684.9 83.9L684.9 83.9Q685.9 83.9 686.8 84.4Q687.6 84.9 688.1 85.8Q688.6 86.7 688.6 88.0L688.6 88.0Q688.6 89.3 688.1 90.2Q687.6 91.1 686.8 91.6Q685.9 92.1 684.9 92.1ZM684.9 90.7L684.9 90.7Q685.5 90.7 686.0 90.3Q686.4 90.0 686.7 89.5Q686.9 88.9 686.9 88.0L686.9 88.0Q686.9 87.1 686.7 86.5Q686.4 86.0 686.0 85.6Q685.5 85.3 684.9 85.3L684.9 85.3Q684.3 85.3 683.8 85.7Q683.3 86.0 683.1 86.6Q682.8 87.1 682.8 88.0L682.8 88.0Q682.8 88.9 683.1 89.4Q683.3 90.0 683.8 90.3Q684.3 90.7 684.9 90.7ZM693.0 92L691.3 92L691.3 84.0L693.9 84.0L695.2 87.7Q695.2 87.9 695.3 88.3Q695.4 88.7 695.5 89.2L695.5 89.2Q695.7 89.7 695.7 90.1L695.7 90.1Q695.8 89.7 695.9 89.2L695.9 89.2Q696.0 88.8 696.2 88.3Q696.3 87.9 696.3 87.7L696.3 87.7L697.6 84.0L700.1 84.0L700.1 92L698.5 92L698.5 88.2Q698.5 88.0 698.5 87.6Q698.5 87.2 698.5 86.7Q698.5 86.3 698.5 85.8L698.5 85.8Q698.6 85.6 698.6 85.4L698.6 85.4Q698.5 85.6 698.4 85.9L698.4 85.9Q698.3 86.3 698.2 86.8Q698.1 87.2 697.9 87.6Q697.8 88.0 697.8 88.2L697.8 88.2L696.4 92L695.0 92L693.7 88.2Q693.6 88.0 693.5 87.6Q693.4 87.2 693.3 86.8Q693.1 86.4 693.0 85.9L693.0 85.9Q693.0 85.7 692.9 85.5L692.9 85.5Q692.9 85.6 692.9 85.8L692.9 85.8Q692.9 86.2 692.9 86.7Q692.9 87.2 693.0 87.6Q693.0 88.0 693.0 88.2L693.0 88.2L693.0 92ZM704.7 92L703.1 92L703.1 84.0L705.6 84.0L706.9 87.7Q707.0 87.9 707.1 88.3Q707.2 88.7 707.3 89.2L707.3 89.2Q707.4 89.7 707.5 90.1L707.5 90.1Q707.6 89.7 707.7 89.2L707.7 89.2Q707.8 88.8 707.9 88.3Q708.0 87.9 708.1 87.7L708.1 87.7L709.4 84.0L711.9 84.0L711.9 92L710.2 92L710.2 88.2Q710.2 88.0 710.2 87.6Q710.3 87.2 710.3 86.7Q710.3 86.3 710.3 85.8L710.3 85.8Q710.3 85.6 710.3 85.4L710.3 85.4Q710.2 85.6 710.2 85.9L710.2 85.9Q710.1 86.3 709.9 86.8Q709.8 87.2 709.7 87.6Q709.6 88.0 709.5 88.2L709.5 88.2L708.2 92L706.8 92L705.4 88.2Q705.4 88.0 705.3 87.6Q705.1 87.2 705.0 86.8Q704.9 86.4 704.8 85.9L704.8 85.9Q704.7 85.7 704.7 85.5L704.7 85.5Q704.7 85.6 704.7 85.8L704.7 85.8Q704.7 86.2 704.7 86.7Q704.7 87.2 704.7 87.6Q704.7 88.0 704.7 88.2L704.7 88.2L704.7 92ZM714.8 84.0L716.5 84.0L716.5 92L714.8 92L714.8 84.0ZM721.5 85.4L719.1 85.4L719.1 84.0L725.6 84.0L725.6 85.4L723.2 85.4L723.2 92L721.5 92L721.5 85.4ZM731.2 92.1L731.2 92.1Q730.2 92.1 729.5 91.8Q728.8 91.5 728.4 90.9Q728.0 90.4 728.0 89.5L728.0 89.5L729.6 89.5Q729.6 89.9 729.8 90.2Q730.0 90.5 730.4 90.6Q730.7 90.7 731.2 90.7L731.2 90.7Q731.6 90.7 731.9 90.6Q732.3 90.5 732.5 90.2Q732.6 90.0 732.6 89.7L732.6 89.7Q732.6 89.4 732.5 89.3Q732.3 89.1 732.0 88.9Q731.7 88.8 731.3 88.7L731.3 88.7L730.4 88.5Q729.4 88.2 728.8 87.7Q728.2 87.2 728.2 86.3L728.2 86.3Q728.2 85.6 728.6 85.0Q729.0 84.5 729.7 84.2Q730.3 83.9 731.2 83.9L731.2 83.9Q732.1 83.9 732.8 84.2Q733.4 84.5 733.8 85.0Q734.2 85.6 734.2 86.3L734.2 86.3L732.6 86.3Q732.6 85.8 732.2 85.5Q731.8 85.3 731.2 85.3L731.2 85.3Q730.8 85.3 730.5 85.4Q730.2 85.5 730.0 85.7Q729.9 85.9 729.9 86.2L729.9 86.2Q729.9 86.5 730.1 86.7Q730.2 86.9 730.5 87.0Q730.8 87.1 731.2 87.2L731.2 87.2L731.9 87.4Q732.4 87.5 732.8 87.7Q733.3 87.9 733.6 88.2Q733.9 88.4 734.1 88.8Q734.3 89.2 734.3 89.7L734.3 89.7Q734.3 90.4 733.9 91.0Q733.6 91.5 732.9 91.8Q732.2 92.1 731.2 92.1Z "/></g></svg>